<svg width="181" height="138" viewBox="0 0 181 138" fill="none" xmlns="http://www.w3.org/2000/svg">
<g clip-path="url(#clip0_8_89)" filter="url(#filter0_d_8_89)">
<path fill-rule="evenodd" clip-rule="evenodd" d="M129.079 33.406C129.079 33.731 128.247 33.9991 127.215 33.9991C126.186 33.9991 125.34 33.731 125.34 33.406V0.581006C125.34 0.256006 126.186 -0.00805664 127.215 -0.00805664C128.247 -0.00805664 129.079 0.256006 129.079 0.581006V33.406ZM131.536 77.6751C131.536 77.6751 132.854 85.6863 124.033 92.1721V87.2849L119.972 83.3422L125.795 77.8091L131.536 77.6751Z" fill="#636666"/>
<path fill-rule="evenodd" clip-rule="evenodd" d="M131.581 77.5328C131.581 80.6203 129.011 83.1086 125.832 83.1086L86.1814 77.5328C82.9998 77.5328 80.4233 75.0384 80.4233 71.957V23.1054C80.4233 20.024 82.9969 17.5296 86.1814 17.5296L125.832 15.667C129.011 15.667 131.581 18.1675 131.581 21.2468V77.5307" fill="#A6A8AB"/>
<path fill-rule="evenodd" clip-rule="evenodd" d="M123.318 68.0003C123.318 70.3099 121.395 72.1786 119.013 72.1786L89.3123 68.0003C86.931 68.0003 84.9966 66.1275 84.9966 63.82V27.2169C84.9966 24.9094 86.931 23.0407 89.3123 23.0407L119.013 21.6472C121.397 21.6472 123.318 23.5119 123.318 25.8275V68.0003Z" fill="#84D0EC"/>
<path fill-rule="evenodd" clip-rule="evenodd" d="M111.145 70.8217C104.59 61.6079 101.533 51.2851 102.05 40.3326C102.333 34.3405 103.139 28.2609 104.598 22.3276L89.3265 23.0467C86.9452 23.0467 85.0107 24.9073 85.0107 27.2189V63.822C85.0107 66.1295 86.9452 67.9983 89.3265 67.9983L111.346 71.102C111.275 71.0117 111.208 70.9195 111.145 70.8258" fill="#27A8E0"/>
<path fill-rule="evenodd" clip-rule="evenodd" d="M129.511 16.9976C129.554 17.2738 129.579 17.5419 129.579 17.8263V74.1102C129.579 77.1937 127.009 79.6921 123.835 79.6921L84.1851 74.1102C82.7625 74.1102 81.4673 73.6105 80.4604 72.7777C80.8734 75.4671 83.2546 77.5308 86.145 77.5308L125.767 83.1066C128.949 83.1066 131.522 80.6163 131.522 77.5308V21.2449C131.522 19.5488 130.733 18.0213 129.489 16.9976" fill="#808184"/>
<path fill-rule="evenodd" clip-rule="evenodd" d="M127.204 85.7594L127.215 85.475H127.178C126.935 83.588 125.334 81.9813 123.026 81.5629L86.0346 76.4441C83.099 75.9079 80.1521 77.5085 79.4507 80.0029L45.8922 110.512C45.8526 110.64 45.83 110.776 45.8073 110.918C45.7677 110.931 45.7451 110.943 45.7451 110.943V114.847L45.7847 114.855C46.0506 116.72 47.6456 118.296 49.9251 118.716L88.5969 129.884C91.5296 130.412 94.4737 128.814 95.1807 126.311L127.062 89.7813C127.24 89.1455 127.252 88.4975 127.13 87.8922L127.181 86.4297C127.206 86.2083 127.215 85.989 127.206 85.7655" fill="#A6A8AB"/>
<path fill-rule="evenodd" clip-rule="evenodd" d="M127.178 85.4751C127.121 85.0302 126.983 84.5925 126.768 84.1731L95.175 120.376C94.468 122.877 91.5239 124.479 88.5911 123.951L49.9193 112.781C48.1885 112.47 46.865 111.487 46.206 110.214L45.8893 110.508C45.8497 110.636 45.827 110.772 45.8044 110.915C45.7648 110.927 45.7422 110.939 45.7422 110.939V114.843L45.7818 114.851C46.0476 116.716 47.6427 118.292 49.9222 118.712L88.5939 129.88C91.5267 130.408 94.4708 128.81 95.1778 126.307L127.059 89.7773C127.237 89.1415 127.249 88.4936 127.127 87.8883L127.178 86.4258C127.204 86.2023 127.215 85.9829 127.204 85.7595L127.215 85.4751H127.178Z" fill="#808184"/>
<path d="M83.6563 89.4765C86.4865 89.4765 88.7809 87.6395 88.7809 85.3734C88.7809 83.1073 86.4865 81.2703 83.6563 81.2703C80.8261 81.2703 78.5317 83.1073 78.5317 85.3734C78.5317 87.6395 80.8261 89.4765 83.6563 89.4765Z" fill="#636666"/>
<path d="M96.5523 92.2085C99.3825 92.2085 101.677 90.3669 101.677 88.0952C101.677 85.8235 99.3825 83.9819 96.5523 83.9819C93.7221 83.9819 91.4277 85.8235 91.4277 88.0952C91.4277 90.3669 93.7221 92.2085 96.5523 92.2085Z" fill="#636666"/>
<path d="M109.728 95.2128C112.56 95.2128 114.856 93.3758 114.856 91.1097C114.856 88.8436 112.56 87.0066 109.728 87.0066C106.897 87.0066 104.601 88.8436 104.601 91.1097C104.601 93.3758 106.897 95.2128 109.728 95.2128Z" fill="#636666"/>
<path d="M73.438 100.425C76.2683 100.425 78.5626 98.588 78.5626 96.3219C78.5626 94.0558 76.2683 92.2188 73.438 92.2188C70.6078 92.2188 68.3135 94.0558 68.3135 96.3219C68.3135 98.588 70.6078 100.425 73.438 100.425Z" fill="#636666"/>
<path fill-rule="evenodd" clip-rule="evenodd" d="M91.462 99.0599C91.462 101.337 89.1684 103.163 86.3375 103.163C83.5093 103.163 81.2129 101.333 81.2129 99.0599C81.2129 96.791 83.5037 94.9568 86.3375 94.9568C89.1656 94.9548 91.462 96.793 91.462 99.0599ZM104.635 102.07C104.635 104.335 102.339 106.173 99.5137 106.173C96.6856 106.173 94.3778 104.337 94.3778 102.07C94.3778 99.8013 96.6799 97.9569 99.5137 97.9569C102.339 97.9569 104.635 99.8013 104.635 102.07Z" fill="#636666"/>
<path d="M61.5176 111.383C64.3478 111.383 66.6422 109.544 66.6422 107.274C66.6422 105.005 64.3478 103.165 61.5176 103.165C58.6874 103.165 56.3931 105.005 56.3931 107.274C56.3931 109.544 58.6874 111.383 61.5176 111.383Z" fill="#636666"/>
<path fill-rule="evenodd" clip-rule="evenodd" d="M79.5554 110.013C79.5554 112.288 77.2589 114.122 74.428 114.122C71.5999 114.122 69.3091 112.288 69.3091 110.013C69.3091 107.746 71.5999 105.909 74.428 105.909C77.2561 105.911 79.5554 107.746 79.5554 110.013Z" fill="#636666"/>
<path d="M87.5874 117.126C90.4177 117.126 92.712 115.284 92.712 113.013C92.712 110.741 90.4177 108.899 87.5874 108.899C84.7572 108.899 82.4629 110.741 82.4629 113.013C82.4629 115.284 84.7572 117.126 87.5874 117.126Z" fill="#636666"/>
<path fill-rule="evenodd" clip-rule="evenodd" d="M81.6961 85.3734C81.6961 83.5474 83.1809 81.9975 85.2341 81.4653C84.7295 81.3289 84.1952 81.2581 83.656 81.2561C80.8279 81.2561 78.5314 83.1005 78.5314 85.3714C78.5314 87.6403 80.8279 89.4745 83.656 89.4745C84.2103 89.4745 84.7477 89.4035 85.2341 89.2735C83.1809 88.7413 81.6961 87.1975 81.6961 85.3694M94.598 88.0953C94.598 86.2672 96.0856 84.7194 98.1445 84.1872C97.6358 84.0546 97.0991 83.9859 96.5579 83.9841C93.7298 83.9841 91.4334 85.8224 91.4334 88.0933C91.4334 90.3622 93.727 92.2066 96.5579 92.2066C97.1066 92.2066 97.6467 92.1294 98.1445 91.9974C96.0884 91.4692 94.598 89.9214 94.598 88.0953ZM107.808 91.1097C107.808 89.2795 109.293 87.7338 111.349 87.1975C110.841 87.0671 110.305 86.9991 109.765 86.9964C106.948 86.9964 104.644 88.8388 104.644 91.1077C104.644 93.3766 106.946 95.2108 109.765 95.2108C110.325 95.2108 110.857 95.1356 111.349 95.0158C109.296 94.4816 107.808 92.9256 107.808 91.1077M97.5449 102.05C97.5449 100.23 99.0325 98.6822 101.083 98.15C100.582 98.0125 100.05 97.9422 99.5133 97.9428C96.6852 97.9428 94.3774 99.7872 94.3774 102.056C94.3774 104.321 96.6795 106.159 99.5133 106.159C100.059 106.159 100.585 106.09 101.083 105.964C99.0354 105.428 97.5449 103.882 97.5449 102.05ZM84.38 99.06C84.38 97.2299 85.8591 95.6861 87.9236 95.1499C87.4156 95.0185 86.8798 94.9511 86.3399 94.9508C83.5118 94.9508 81.2153 96.7891 81.2153 99.0539C81.2153 101.331 83.5061 103.157 86.3399 103.157C86.8942 103.157 87.4259 103.088 87.9236 102.952C85.8619 102.428 84.38 100.878 84.38 99.0519M71.4668 96.3219C71.4668 94.4958 72.9487 92.9419 75.0076 92.4138C74.5017 92.2821 73.9676 92.2147 73.4295 92.2147C70.6014 92.2147 68.3021 94.051 68.3021 96.3178C68.3021 98.5827 70.5986 100.421 73.4295 100.421C73.9782 100.421 74.5042 100.356 75.0076 100.216C72.9487 99.6836 71.4668 98.1399 71.4668 96.3178M59.5604 107.274C59.5604 105.454 61.0451 103.898 63.104 103.37C62.5963 103.238 62.0605 103.169 61.5203 103.167C58.6921 103.167 56.4014 105.001 56.4014 107.27C56.4014 109.539 58.6865 111.38 61.5203 111.38C62.0718 111.38 62.6063 111.315 63.104 111.178C61.0565 110.646 59.5604 109.103 59.5604 107.272M72.4595 110.013C72.4595 108.193 73.9414 106.647 76.0003 106.11C75.4935 105.976 74.957 105.907 74.4165 105.909C71.5884 105.909 69.2976 107.744 69.2976 110.013C69.2976 112.288 71.5884 114.122 74.4165 114.122C74.9708 114.122 75.4997 114.057 76.0003 113.923C73.9471 113.393 72.4595 111.845 72.4595 110.013ZM85.6074 113.013C85.6074 111.191 87.095 109.641 89.1511 109.105C88.6462 108.972 88.1133 108.903 87.5758 108.901C84.7477 108.901 82.4512 110.74 82.4512 113.011C82.4512 115.286 84.742 117.124 87.5758 117.124C88.114 117.122 88.6475 117.051 89.1511 116.915C87.095 116.387 85.6074 114.841 85.6074 113.013Z" fill="#808184"/>
</g>
<defs>
<filter id="filter0_d_8_89" x="-4" y="0" width="189" height="138" filterUnits="userSpaceOnUse" color-interpolation-filters="sRGB">
<feFlood flood-opacity="0" result="BackgroundImageFix"/>
<feColorMatrix in="SourceAlpha" type="matrix" values="0 0 0 0 0 0 0 0 0 0 0 0 0 0 0 0 0 0 127 0" result="hardAlpha"/>
<feOffset dy="4"/>
<feGaussianBlur stdDeviation="2"/>
<feComposite in2="hardAlpha" operator="out"/>
<feColorMatrix type="matrix" values="0 0 0 0 0 0 0 0 0 0 0 0 0 0 0 0 0 0 0.25 0"/>
<feBlend mode="normal" in2="BackgroundImageFix" result="effect1_dropShadow_8_89"/>
<feBlend mode="normal" in="SourceGraphic" in2="effect1_dropShadow_8_89" result="shape"/>
</filter>
<clipPath id="clip0_8_89">
<rect width="181" height="130" fill="white"/>
</clipPath>
</defs>
</svg>
