<svg width="44" height="52" viewBox="0 0 44 52" fill="none" xmlns="http://www.w3.org/2000/svg">
<g clip-path="url(#clip0_8_153)">
<path d="M2.75 52H41.25C42.7662 52 44 50.9064 44 49.5625V15.4375C44 15.4099 43.9853 15.3871 43.9835 15.3611C43.9798 15.3238 43.9688 15.2912 43.9597 15.2555C43.9309 15.1426 43.8746 15.0367 43.7947 14.9451C43.7818 14.9305 43.7837 14.9126 43.7708 14.898L29.1042 0.273C29.0987 0.268125 29.0913 0.268125 29.0858 0.26325C28.974 0.159592 28.8328 0.0844009 28.677 0.0455C28.6422 0.03575 28.611 0.0325 28.5743 0.027625C28.5212 0.0195 28.4717 0 28.4167 0H2.75C1.23383 0 0 1.09362 0 2.4375V49.5625C0 50.9064 1.23383 52 2.75 52ZM29.3333 2.94938L41.0428 14.625H30.25C29.8467 14.625 29.3333 13.9425 29.3333 13.4062V2.94938ZM1.83333 2.4375C1.83333 2.22201 1.92991 2.01535 2.10182 1.86298C2.27373 1.7106 2.50688 1.625 2.75 1.625H27.5V13.4062C27.5 14.7209 28.7008 16.25 30.25 16.25H42.1667V49.5625C42.1667 49.778 42.0701 49.9847 41.8982 50.137C41.7263 50.2894 41.4931 50.375 41.25 50.375H2.75C2.23667 50.375 1.83333 50.0175 1.83333 49.5625V2.4375Z" fill="#FFFCFC"/>
<path d="M10.0832 22.75H33.9165C34.1596 22.75 34.3928 22.6644 34.5647 22.512C34.7366 22.3597 34.8332 22.153 34.8332 21.9375C34.8332 21.722 34.7366 21.5153 34.5647 21.363C34.3928 21.2106 34.1596 21.125 33.9165 21.125H10.0832C9.84006 21.125 9.6069 21.2106 9.43499 21.363C9.26308 21.5153 9.1665 21.722 9.1665 21.9375C9.1665 22.153 9.26308 22.3597 9.43499 22.512C9.6069 22.6644 9.84006 22.75 10.0832 22.75ZM10.0832 29.25H33.9165C34.1596 29.25 34.3928 29.1644 34.5647 29.012C34.7366 28.8597 34.8332 28.653 34.8332 28.4375C34.8332 28.222 34.7366 28.0153 34.5647 27.863C34.3928 27.7106 34.1596 27.625 33.9165 27.625H10.0832C9.84006 27.625 9.6069 27.7106 9.43499 27.863C9.26308 28.0153 9.1665 28.222 9.1665 28.4375C9.1665 28.653 9.26308 28.8597 9.43499 29.012C9.6069 29.1644 9.84006 29.25 10.0832 29.25ZM10.0832 16.25H21.0832C21.3263 16.25 21.5594 16.1644 21.7314 16.012C21.9033 15.8597 21.9998 15.653 21.9998 15.4375C21.9998 15.222 21.9033 15.0153 21.7314 14.863C21.5594 14.7106 21.3263 14.625 21.0832 14.625H10.0832C9.84006 14.625 9.6069 14.7106 9.43499 14.863C9.26308 15.0153 9.1665 15.222 9.1665 15.4375C9.1665 15.653 9.26308 15.8597 9.43499 16.012C9.6069 16.1644 9.84006 16.25 10.0832 16.25ZM10.0832 35.75H33.9165C34.1596 35.75 34.3928 35.6644 34.5647 35.512C34.7366 35.3597 34.8332 35.153 34.8332 34.9375C34.8332 34.722 34.7366 34.5153 34.5647 34.363C34.3928 34.2106 34.1596 34.125 33.9165 34.125H10.0832C9.84006 34.125 9.6069 34.2106 9.43499 34.363C9.26308 34.5153 9.1665 34.722 9.1665 34.9375C9.1665 35.153 9.26308 35.3597 9.43499 35.512C9.6069 35.6644 9.84006 35.75 10.0832 35.75ZM10.0832 42.25H33.9165C34.1596 42.25 34.3928 42.1644 34.5647 42.012C34.7366 41.8597 34.8332 41.653 34.8332 41.4375C34.8332 41.222 34.7366 41.0153 34.5647 40.863C34.3928 40.7106 34.1596 40.625 33.9165 40.625H10.0832C9.84006 40.625 9.6069 40.7106 9.43499 40.863C9.26308 41.0153 9.1665 41.222 9.1665 41.4375C9.1665 41.653 9.26308 41.8597 9.43499 42.012C9.6069 42.1644 9.84006 42.25 10.0832 42.25Z" fill="#FFFCFC"/>
</g>
<defs>
<clipPath id="clip0_8_153">
<rect width="44" height="52" fill="white"/>
</clipPath>
</defs>
</svg>
