<svg width="48" height="42" viewBox="0 0 48 42" fill="none" xmlns="http://www.w3.org/2000/svg">
<g clip-path="url(#clip0_8_161)">
<path d="M48 21C48 22.9414 47.7188 24.8008 47.1562 26.5781C46.5938 28.3555 45.7891 30.0303 44.7422 31.6025C43.6953 33.1748 42.4453 34.5898 40.9922 35.8477C39.5391 37.1055 37.9141 38.1992 36.1172 39.1289C34.3203 40.0586 32.4062 40.7627 30.375 41.2412C28.3438 41.7197 26.2188 41.9727 24 42C21.7812 42 19.6562 41.7539 17.625 41.2617C15.5938 40.7695 13.6797 40.0654 11.8828 39.1494C10.0859 38.2334 8.46875 37.1396 7.03125 35.8682C5.59375 34.5967 4.34375 33.1748 3.28125 31.6025C2.21875 30.0303 1.41406 28.3555 0.867188 26.5781C0.320312 24.8008 0.03125 22.9414 0 21C0 19.0723 0.28125 17.2129 0.84375 15.4219C1.40625 13.6309 2.21094 11.9561 3.25781 10.3975C4.30469 8.83887 5.55469 7.42383 7.00781 6.15234C8.46094 4.88086 10.0859 3.78711 11.8828 2.87109C13.6797 1.95508 15.5938 1.25098 17.625 0.758789C19.6562 0.266602 21.7812 0.0136719 24 0C26.2031 0 28.3281 0.246094 30.375 0.738281C32.4219 1.23047 34.3359 1.93457 36.1172 2.85059C37.8984 3.7666 39.5156 4.86035 40.9688 6.13184C42.4219 7.40332 43.6719 8.8252 44.7188 10.3975C45.7656 11.9697 46.5703 13.6445 47.1328 15.4219C47.6953 17.1992 47.9844 19.0586 48 21ZM24 39.375C25.9219 39.375 27.7734 39.1562 29.5547 38.7188C31.3359 38.2812 33.0078 37.666 34.5703 36.873C36.1328 36.0801 37.5547 35.1162 38.8359 33.9814C40.1172 32.8467 41.2109 31.6094 42.1172 30.2695C43.0234 28.9297 43.7344 27.4668 44.25 25.8809C44.7656 24.2949 45.0156 22.668 45 21C45 19.3184 44.75 17.6982 44.25 16.1396C43.75 14.5811 43.0469 13.1182 42.1406 11.751C41.2344 10.3838 40.1328 9.13965 38.8359 8.01855C37.5391 6.89746 36.125 5.94043 34.5938 5.14746C33.0625 4.35449 31.3906 3.73242 29.5781 3.28125C27.7656 2.83008 25.9062 2.61133 24 2.625C22.0625 2.625 20.2031 2.84375 18.4219 3.28125C16.6406 3.71875 14.9766 4.33398 13.4297 5.12695C11.8828 5.91992 10.4609 6.88379 9.16406 8.01855C7.86719 9.15332 6.77344 10.3906 5.88281 11.7305C4.99219 13.0703 4.28125 14.5332 3.75 16.1191C3.21875 17.7051 2.96875 19.332 3 21C3 22.6953 3.25 24.3223 3.75 25.8809C4.25 27.4395 4.95312 28.8955 5.85938 30.249C6.76562 31.6025 7.86719 32.8467 9.16406 33.9814C10.4609 35.1162 11.875 36.0732 13.4062 36.8525C14.9375 37.6318 16.6094 38.2539 18.4219 38.7188C20.2344 39.1836 22.0938 39.4023 24 39.375ZM24 28.875C24.8594 28.875 25.6953 28.7725 26.5078 28.5674C27.3203 28.3623 28.0859 28.0547 28.8047 27.6445C29.5234 27.2344 30.1562 26.7627 30.7031 26.2295C31.25 25.6963 31.7266 25.0742 32.1328 24.3633L34.8516 25.5117C34.3516 26.4277 33.7266 27.2549 32.9766 27.9932C32.2266 28.7314 31.375 29.3604 30.4219 29.8799C29.4688 30.3994 28.4531 30.7959 27.375 31.0693C26.2969 31.3428 25.1719 31.4863 24 31.5C22.2812 31.5 20.6406 31.1924 19.0781 30.5771C17.5156 29.9619 16.1562 29.0869 15 27.9521V31.5H12V23.625H21V26.25H17.2969C18.1406 27.0703 19.1484 27.7129 20.3203 28.1777C21.4922 28.6426 22.7188 28.875 24 28.875ZM33 14.0479V10.5H36V18.375H27V15.75H30.7031C29.8594 14.9297 28.8516 14.2871 27.6797 13.8223C26.5078 13.3574 25.2812 13.125 24 13.125C23.1406 13.125 22.3047 13.2275 21.4922 13.4326C20.6797 13.6377 19.9141 13.9453 19.1953 14.3555C18.4766 14.7656 17.8438 15.2373 17.2969 15.7705C16.75 16.3037 16.2734 16.9258 15.8672 17.6367L13.1484 16.4883C13.6484 15.5723 14.2734 14.7451 15.0234 14.0068C15.7734 13.2686 16.625 12.6396 17.5781 12.1201C18.5312 11.6006 19.5469 11.2041 20.625 10.9307C21.7031 10.6572 22.8281 10.5137 24 10.5C25.7188 10.5 27.3594 10.8076 28.9219 11.4229C30.4844 12.0381 31.8438 12.9131 33 14.0479Z" fill="#FEF8F8"/>
</g>
<defs>
<clipPath id="clip0_8_161">
<rect width="48" height="42" fill="white"/>
</clipPath>
</defs>
</svg>
