<svg width="53" height="50" viewBox="0 0 53 50" fill="none" xmlns="http://www.w3.org/2000/svg">
<path d="M26.4998 8.33329C36.2408 8.33329 44.1665 15.8104 44.1665 25C44.1665 34.1895 36.2408 41.6666 26.4998 41.6666C16.7589 41.6666 8.83317 34.1895 8.83317 25C8.83317 15.8104 16.7589 8.33329 26.4998 8.33329ZM26.4998 4.16663C14.3032 4.16663 4.4165 13.4937 4.4165 25C4.4165 36.5062 14.3032 45.8333 26.4998 45.8333C38.6965 45.8333 48.5832 36.5062 48.5832 25C48.5832 13.4937 38.6965 4.16663 26.4998 4.16663ZM16.6728 27.0833C16.6308 27.4291 16.5623 27.7687 16.5623 28.125C16.5623 30.6114 17.6093 32.9959 19.473 34.7541C21.3366 36.5122 23.8643 37.5 26.4998 37.5C29.1354 37.5 31.6631 36.5122 33.5267 34.7541C35.3904 32.9959 36.4373 30.6114 36.4373 28.125C36.4373 27.7687 36.3667 27.4291 36.3269 27.0833H16.6728ZM22.0832 20.8333V16.6666C22.0832 16.1141 21.8505 15.5842 21.4364 15.1935C21.0222 14.8028 20.4605 14.5833 19.8748 14.5833C19.2892 14.5833 18.7275 14.8028 18.3133 15.1935C17.8992 15.5842 17.6665 16.1141 17.6665 16.6666V20.8333C17.6665 21.3858 17.8992 21.9157 18.3133 22.3064C18.7275 22.6971 19.2892 22.9166 19.8748 22.9166C20.4605 22.9166 21.0222 22.6971 21.4364 22.3064C21.8505 21.9157 22.0832 21.3858 22.0832 20.8333ZM35.3332 20.8333V16.6666C35.3332 16.1141 35.1005 15.5842 34.6864 15.1935C34.2722 14.8028 33.7105 14.5833 33.1248 14.5833C32.5392 14.5833 31.9775 14.8028 31.5633 15.1935C31.1492 15.5842 30.9165 16.1141 30.9165 16.6666V20.8333C30.9165 21.3858 31.1492 21.9157 31.5633 22.3064C31.9775 22.6971 32.5392 22.9166 33.1248 22.9166C33.7105 22.9166 34.2722 22.6971 34.6864 22.3064C35.1005 21.9157 35.3332 21.3858 35.3332 20.8333Z" fill="#FFFDFD"/>
</svg>
