<svg width="111" height="94" viewBox="0 0 111 94" fill="none" xmlns="http://www.w3.org/2000/svg">
<path d="M81.3292 0.170635C81.0518 0.428444 80.2622 2.09742 79.75 3.53573C79.0458 5.50322 79.0245 5.67962 78.9711 9.64175L78.9178 13.2782H78.3096C77.9681 13.2782 77.3173 13.1561 76.8478 12.9933C76.1009 12.7355 75.8342 12.7219 74.4897 12.7897C73.6682 12.844 72.7079 12.9661 72.3771 13.0883C71.8009 13.2647 71.6942 13.2647 70.7339 12.9933C69.6989 12.6948 67.6503 12.5998 66.4019 12.7897C66.1139 12.8304 65.367 12.9254 64.7481 12.9933C64.1292 13.0747 62.8702 13.2375 61.9419 13.3461L60.2561 13.5632L59.7759 13.0068C58.869 11.9485 57.5779 11.4328 56.831 11.8263C56.4042 12.057 56.1908 12.4777 55.9881 13.4546C55.9241 13.8074 55.8174 14.0924 55.764 14.0924C55.7107 14.0924 55.3906 13.821 55.0598 13.4953C54.2275 12.6812 53.8221 12.4505 53.1285 12.3691C52.595 12.3013 52.4883 12.342 52.2003 12.6405C51.9975 12.8576 51.8161 13.2647 51.6881 13.7531C51.5387 14.3637 51.464 14.4994 51.3253 14.4316C50.9092 14.228 49.6395 13.821 49.4154 13.821C49.042 13.821 48.5618 14.4451 48.3698 15.1779C48.1884 15.8563 47.9003 16.2091 47.6122 16.0734C47.2494 15.897 47.5268 13.9702 48.1564 12.1791C48.3591 11.6092 48.5298 10.9715 48.5298 10.768C48.5298 9.84528 47.7722 9.07185 46.876 9.07185C46.2358 9.07185 46.0651 9.30252 45.2968 11.2022L44.6886 12.7219L44.6139 15.2321L44.5499 17.7424L42.4053 18.7736C39.5991 20.1441 36.8676 21.5417 36.7609 21.6774C36.7075 21.7452 36.6648 21.9895 36.6648 22.2201C36.6542 22.6951 37.081 23.3464 38.0093 24.2691C38.4361 24.6897 38.4894 24.7982 38.4467 25.1782C38.2973 26.4808 38.2867 26.5351 37.9879 26.6979C37.7318 26.8607 35.7579 27.0507 31.6286 27.3221C25.7922 27.702 21.3428 28.4483 17.4803 29.7102C13.1056 31.1349 11.7826 31.8677 10.5662 33.5502C9.59523 34.8935 9.10441 36.2097 8.68828 38.5843C8.05876 42.1258 6.81037 51.6104 6.81037 52.7909C6.81037 53.5779 6.68233 53.8629 5.54065 55.4912C3.92949 57.8114 3.02255 59.996 2.44637 62.9269C2.29699 63.7139 2.12627 64.4331 2.08359 64.5281C2.04091 64.6231 1.66747 64.9216 1.25134 65.1929C0.835213 65.4779 0.419085 65.8443 0.333726 66.0071C0.120327 66.4277 -0.0503917 70.7155 0.0136279 73.9313C0.0563076 76.4687 0.184347 77.1879 0.771193 78.4634C1.31536 79.6439 2.58508 80.8651 3.66274 81.245C3.89748 81.3264 5.12452 81.4892 6.38358 81.5978C7.64263 81.7199 8.77364 81.842 8.90168 81.8692C9.06173 81.9099 9.26446 82.3034 9.62724 83.2532C10.6302 85.872 12.0493 88.2601 13.4257 89.6035C14.226 90.3904 15.7304 91.476 16.5414 91.8423C16.9148 92.0187 17.2562 92.1951 17.2989 92.2494C17.4056 92.3715 16.1466 92.4801 13.5324 92.5886C4.45232 92.9957 3.8548 93.1856 10.7582 93.4706C26.0376 94.1083 80.0061 94.1897 100.706 93.6063C105.358 93.4706 108.762 93.2806 109.05 93.1178C109.22 93.0364 109.925 91.6795 110.138 91.0282C110.629 89.522 110.853 85.2885 110.639 81.7063C110.383 77.4186 109.871 75.044 108.922 73.7414L108.463 73.1172H107.065H105.657L105.262 72.5066C104.76 71.7603 104.344 71.4754 103.587 71.3668C103.032 71.2854 102.989 71.2583 102.786 70.7426C102.53 70.132 102.05 69.7114 101.538 69.6843C101.346 69.6707 99.7241 69.7114 97.9316 69.7792L94.6773 69.8878L94.4318 69.3315C93.9624 68.2867 93.6636 68.1781 90.1532 67.8932C88.8408 67.7846 87.7525 67.6761 87.7205 67.6489C87.6991 67.6082 88.8942 67.5404 90.3773 67.4861L93.0874 67.3911L94.4318 67.8117C96.0003 68.3002 96.5232 68.3274 97.1313 67.961C97.8889 67.4997 98.241 66.9026 98.3691 65.9257C98.6145 63.9853 97.4728 33.1296 96.9606 28.0005C96.8112 26.4265 96.5658 24.8661 96.3098 23.8891C96.107 23.0886 95.9897 22.885 94.5279 21.0396C92.2765 18.163 90.548 16.5212 88.0939 14.9336C86.7068 14.0381 85.6505 13.5632 84.0607 13.1425C83.4418 12.9797 82.919 12.8169 82.887 12.7762C82.855 12.749 82.823 11.3514 82.8016 9.69602L82.7696 6.68372L83.5165 4.82478C83.922 3.80711 84.2954 2.74873 84.3381 2.47735C84.4341 1.82604 84.1034 0.957632 83.5699 0.428444C83.2284 0.10279 83.0577 0.0485142 82.3642 0.00780743C81.756 -0.0193304 81.4999 0.0213764 81.3292 0.170635ZM82.9617 1.33756C83.1537 1.48682 83.3351 1.74463 83.3778 1.92103C83.4418 2.28739 83.0257 3.64428 82.3428 5.24541L81.9267 6.24951V15.0015C81.9267 19.832 81.9053 23.7399 81.884 23.7127C81.8093 23.6177 81.6173 18.8143 81.4465 12.6405L81.2758 6.91439L81.5532 5.80174C81.8627 4.5534 81.8307 4.22774 81.4999 5.17757C81.1905 6.07312 81.1051 8.1763 81.0197 16.6026C80.9557 24.2826 80.9771 23.9977 80.3689 23.9977C80.1661 23.9977 80.1128 23.9027 80.0488 23.3464C80.0061 22.9936 79.9634 19.0179 79.9634 14.4994C79.9528 7.90492 79.9848 6.14096 80.1021 5.54393C80.2835 4.64838 81.2652 2.09742 81.6599 1.50039C82.0014 0.98477 82.4388 0.930495 82.9617 1.33756ZM47.5588 10.3745L47.8789 10.7137L47.3348 12.0706C46.7906 13.4139 46.7906 13.4546 46.7159 14.9743C46.6519 16.5483 46.5879 16.8333 46.3745 16.5619C46.2998 16.4669 46.2784 15.8427 46.3105 14.6215C46.3745 12.4912 46.2358 12.7219 46.0757 15.015C45.937 16.8468 45.905 17.0775 45.7023 17.0775C45.4782 17.0775 45.4035 16.589 45.4035 15.1643C45.4142 13.7124 45.5956 12.7355 46.0971 11.4464C46.4598 10.4966 46.7799 10.0217 47.0467 10.0217C47.1534 10.0217 47.3775 10.1845 47.5588 10.3745ZM58.3995 12.8576C59.4772 13.4818 59.3384 13.6174 57.7486 13.5496C57.0978 13.5225 56.9697 13.5632 56.8737 13.7667C56.7243 14.1059 56.5963 13.916 56.6816 13.5089C56.7777 12.9797 57.1618 12.4641 57.4499 12.4641C57.5886 12.4641 58.026 12.6405 58.3995 12.8576ZM54.0675 13.5089C54.3876 13.726 54.6223 13.9431 54.601 14.0245C54.5797 14.1059 54.1315 14.1602 53.5767 14.1602C52.9365 14.1602 52.5524 14.2145 52.467 14.323C52.0722 14.8251 52.0509 14.2145 52.435 13.4953C52.6911 13.0204 52.7444 12.9797 53.1072 13.0611C53.3206 13.1018 53.7474 13.3054 54.0675 13.5089ZM76.5384 13.6174L76.8585 13.7938L76.5384 13.821C76.3677 13.821 76.0262 13.9295 75.7915 14.0381C75.5567 14.1466 74.8098 14.2959 74.1376 14.3637C73.2307 14.4451 72.6652 14.5808 71.9503 14.8929C71.4275 15.1236 70.8833 15.3136 70.7446 15.3136C70.4245 15.3136 70.3071 14.9201 70.5632 14.6894C70.7766 14.4859 71.8756 13.9431 72.6972 13.631C73.4121 13.3596 76.0796 13.3461 76.5384 13.6174ZM49.9596 14.4994C50.109 14.5673 50.237 14.6758 50.237 14.7301C50.237 14.7979 49.9276 14.9608 49.5434 15.1236C48.7859 15.4221 48.6899 15.3271 49.138 14.7437C49.4474 14.323 49.5541 14.2959 49.9596 14.4994ZM68.8774 14.7708C69.2615 15.0693 69.5176 15.6392 69.8697 16.9961C69.9977 17.5117 70.1898 18.0273 70.2858 18.1495C70.3818 18.2716 71.3421 19.0586 72.4304 19.8999C74.5324 21.5281 74.9699 21.8945 74.8739 22.0166C74.8419 22.0573 74.1483 21.596 73.3267 20.9989C72.5158 20.3883 71.4275 19.6013 70.9153 19.2214C69.9337 18.5023 69.3042 18.2987 68.92 18.5565C68.4932 18.8551 68.4506 19.1264 67.8957 25.2189C67.693 27.4985 67.4796 29.6288 67.4263 29.968L67.3302 30.5786L67.3196 29.9273C67.2982 28.7875 68.0558 20.2798 68.2692 19.235C68.3332 18.9772 68.4932 18.6108 68.6426 18.4344C68.792 18.258 68.9094 18.0816 68.9094 18.0273C68.9094 17.9052 66.754 16.6162 66.0285 16.3041C65.2709 15.992 63.1263 15.992 60.4268 16.3041C59.3705 16.4398 57.6953 16.6297 56.6923 16.7383C55.7 16.8604 54.3983 17.0097 53.8114 17.0775C53.2246 17.1454 52.3816 17.2403 51.9442 17.2811C51.5067 17.3353 51.0266 17.3896 50.8772 17.4167C50.7278 17.4439 50.2477 17.4982 49.8102 17.5524C49.1593 17.6203 48.199 18.0002 44.7526 19.5335C42.4159 20.5783 40.4847 21.406 40.4633 21.3789C40.4207 21.3382 41.2849 20.8768 47.943 17.4032L50.7171 15.9649L57.5459 15.3C66.0712 14.4859 65.2816 14.5537 67.0421 14.5266C68.3545 14.4994 68.5786 14.5266 68.8774 14.7708ZM78.9498 14.8929L79.2059 15.1507L79.2379 20.9718C79.2592 24.1605 79.2379 26.9693 79.2059 27.2135C79.0885 28.0141 78.9711 28.0684 77.4133 28.0684C76.6344 28.0684 75.9515 28.0141 75.8768 27.9598C75.5567 27.702 75.5247 27.01 75.5247 21.216V15.3407L75.8555 14.9879C76.1649 14.6487 76.2396 14.6351 77.4453 14.6351C78.523 14.6351 78.7364 14.6758 78.9498 14.8929ZM86.4401 15.1779C87.443 15.802 87.5284 16.0191 86.6428 15.6799C85.9919 15.4357 85.8746 15.4357 85.5971 15.5985L85.2877 15.7885L85.2557 18.0273C85.2344 19.2621 85.2557 21.2432 85.2877 22.4372L85.3624 24.6218L86.0666 25.3546C88.2966 27.6749 95.0294 34.785 95.2108 35.0292C95.4562 35.3413 95.5949 35.4634 89.9611 30.2665C87.6031 28.0819 85.6078 26.3044 85.5438 26.3044C85.3944 26.3044 85.4478 32.519 85.7145 46.6578C85.7999 51.1762 85.8959 56.6174 85.9386 58.7613L86.0133 62.6691H85.245H84.4875V60.5659V58.4628H84.7862C84.9569 58.4628 85.181 58.3813 85.2984 58.2728C85.4904 58.0828 85.5011 57.9064 85.4904 55.1112C85.4798 53.483 85.3944 48.1504 85.2984 43.2656C85.1917 38.3807 85.085 32.3154 85.0423 29.778L84.9676 25.1917L84.4448 24.5947L83.9326 23.9977L83.8259 21.311C83.7726 19.8456 83.7406 17.8645 83.7619 16.9283C83.8046 14.703 83.8686 14.5808 84.9676 14.6623C85.5438 14.7165 85.8959 14.8386 86.4401 15.1779ZM88.3286 17.5524C91.1348 19.3707 94.6132 22.7629 95.2108 24.2826C95.4455 24.8661 95.8509 26.5622 95.7763 26.6436C95.7549 26.6708 95.4562 26.1687 95.1041 25.5174C93.7063 22.9257 90.9641 19.927 87.8805 17.6067C85.7999 16.0327 85.9599 16.0191 88.3286 17.5524ZM64.2146 17.8917C63.5211 18.0002 62.7208 18.1088 59.8399 18.4887C58.1754 18.7194 57.2045 18.8279 53.7047 19.2485C50.0556 19.6692 50.4397 19.5742 45.5316 21.4196C41.9465 22.7765 40.8795 23.265 40.6874 23.6449C40.6127 23.7941 40.4633 24.2691 40.3566 24.6761C40.2499 25.0832 40.1539 25.341 40.1219 25.246C40.0685 25.0289 40.378 23.862 40.5914 23.4821C40.6767 23.3192 40.9328 23.0614 41.1462 22.9257C42.1919 22.2473 49.01 19.4928 50.3757 19.1943C50.8558 19.0857 53.0539 18.8143 55.2519 18.5701C61.3977 17.9324 62.9022 17.7967 63.9479 17.7967H64.9081L64.2146 17.8917ZM71.9503 21.3382C73.9349 22.6272 74.8845 23.3599 74.8845 23.5906C74.8845 23.672 74.8632 23.7263 74.8312 23.7263C74.7992 23.7263 73.7002 23.0207 72.3878 22.1659C71.0647 21.311 69.8697 20.6054 69.7203 20.6054C69.3788 20.6054 69.4215 20.3612 68.9627 24.8118C68.5893 28.4211 68.4079 29.8323 68.3865 29.3981C68.3759 29.0725 68.8987 22.6001 69.0161 21.6231C69.0801 21.1753 69.1228 20.7683 69.1228 20.714C69.1228 20.524 69.5922 20.0627 69.795 20.0627C69.9017 20.0627 70.8726 20.6326 71.9503 21.3382ZM65.7297 22.5729C65.6871 23.2921 64.7694 28.5568 64.5881 29.0996L64.4493 29.5202L63.1903 29.6695C62.4861 29.7645 61.2484 29.9002 60.4268 29.968C59.6052 30.0494 58.3782 30.1715 57.7059 30.2394C56.5856 30.3479 56.2548 30.3208 53.8648 29.9002C52.4243 29.6423 50.7918 29.3574 50.237 29.2624L49.2234 29.086L49.2554 28.5568C49.3087 27.8784 50.0876 23.862 50.205 23.7127C50.3117 23.577 64.9402 21.9488 65.5483 22.003C65.7297 22.0302 65.7617 22.1116 65.7297 22.5729ZM67.0635 23.8891C67.0315 23.9977 66.9995 23.957 66.9995 23.8077C66.9888 23.6585 67.0208 23.577 67.0528 23.6313C67.0848 23.672 67.0955 23.7941 67.0635 23.8891ZM49.3834 24.0248C49.3834 24.1198 49.17 25.2596 48.9033 26.5486C48.6365 27.8513 48.4231 28.9368 48.4231 28.9775C48.4231 29.0182 48.2631 29.0182 48.0817 28.9639C47.5055 28.8146 44.87 28.489 42.5653 28.2719C41.3703 28.1633 40.3353 28.0141 40.2606 27.9327C40.0472 27.702 40.3673 26.6029 40.6661 26.5079C40.7941 26.4672 42.7254 25.8566 44.9554 25.1646C47.1854 24.459 49.0953 23.8756 49.202 23.8756C49.298 23.862 49.3834 23.9434 49.3834 24.0248ZM66.6687 26.6708C66.1885 29.9137 65.7084 32.7361 65.6017 32.8718C65.4737 33.0482 61.5471 32.329 61.5471 32.139C61.5471 32.044 63.6598 31.8677 64.8548 31.8677H65.559L65.8578 30.1308C66.5513 26.1144 66.9248 24.1062 66.9674 24.2419C66.9888 24.3233 66.8501 25.4224 66.6687 26.6708ZM83.047 25.0289C83.4632 25.0696 83.8686 25.151 83.9433 25.2053C84.1567 25.3817 84.2527 27.7156 84.4341 37.7023C84.5302 42.7364 84.6475 48.7474 84.7009 51.0677C84.7649 53.3744 84.8076 55.749 84.8076 56.346C84.8076 57.3772 84.7969 57.4044 84.5728 57.323C83.4205 56.9023 81.1158 56.8209 79.8247 57.1466L79.0565 57.3365L79.0031 56.3731C78.9178 55.0977 78.747 46.7528 78.6617 39.6562L78.587 33.9437L79.0351 33.3467C79.4939 32.7361 80.0061 31.5827 80.0061 31.1756C80.0061 30.8907 79.558 30.0494 79.0778 29.4117L78.715 28.9232L79.1632 28.8418C79.8461 28.7332 79.8994 28.5568 79.8994 26.5486V24.8118L81.1051 24.8797C81.756 24.9204 82.6416 24.9882 83.047 25.0289ZM74.9165 27.5527C75.0019 27.9462 74.9486 28.0276 74.5324 28.1362C73.6468 28.3669 72.3771 29.0046 70.5099 30.1851C68.3012 31.5827 67.8104 32.0305 67.5116 32.9125C67.3409 33.4145 67.2769 33.4959 66.9888 33.4959C66.7647 33.4959 66.6687 33.4281 66.6687 33.2788C66.6687 32.8989 67.3302 31.4606 67.6717 31.0942C68.1305 30.6057 72.7826 27.7156 73.4974 27.4713C74.3937 27.1728 74.8419 27.1864 74.9165 27.5527ZM42.3412 29.7645C48.6899 30.3751 54.0462 31.3113 59.8933 32.8175C63.3503 33.6995 63.5744 33.7809 62.3474 33.6995C61.8245 33.6588 61.2697 33.6045 61.1203 33.5638C60.7682 33.4959 58.8476 33.2653 57.1191 33.0889C53.8114 32.7496 45.5102 32.5597 45.7129 32.8175C45.7663 32.8853 46.7479 33.1567 47.8896 33.4281C51.5174 34.2829 56.767 35.8298 56.3402 35.9112C56.2122 35.9383 55.6573 35.8569 55.1132 35.7484C54.0995 35.5313 51.0799 34.9885 49.4901 34.7307C47.3348 34.3779 43.6857 34.0251 41.1142 33.903C38.9695 33.808 35.7366 33.6588 35.0644 33.6316C35.0323 33.6316 34.979 33.0617 34.9577 32.3697C34.9256 31.2842 34.883 30.9857 34.5842 30.253L34.2534 29.3845L37.2517 29.466C38.9055 29.5202 41.1996 29.6423 42.3412 29.7645ZM78.2989 29.6831C79.75 30.66 79.1845 33.2245 77.52 33.2245C76.0369 33.2245 75.2473 31.2842 76.2396 30.0766C76.8051 29.3845 77.6374 29.2353 78.2989 29.6831ZM32.9304 30.8771L33.3038 31.3792L33.2398 33.4959C33.0797 38.8285 31.9167 47.974 30.487 55.2062C29.7401 58.9919 29.4733 59.7518 28.7904 60.1996C28.1289 60.6066 27.5527 60.6745 20.2545 61.1765C13.6071 61.6379 10.4061 61.8279 8.91235 61.8821L7.9734 61.9228L8.04809 60.7695C8.09077 60.1317 8.15479 59.304 8.19746 58.9377L8.27215 58.2592L8.35751 58.8291C8.40019 59.1412 8.52823 59.5754 8.63493 59.8061C8.97637 60.5252 9.36049 60.5252 18.3339 59.8197C25.1093 59.2905 26.1976 59.1683 26.6244 58.9105C27.1046 58.6256 27.6914 57.7707 27.8301 57.1466C28.1929 55.4912 30.1348 39.6291 30.551 34.8528C30.7004 33.0617 30.647 32.5732 30.2415 32.1526C30.0602 31.9626 28.7371 31.9084 27.8515 32.0576C27.6274 32.0983 26.9019 32.1933 26.2296 32.2747C23.6795 32.5868 20.9267 33.0753 17.4696 33.8216C13.6925 34.6357 12.4974 35.0835 11.8039 35.9112C11.3771 36.4132 11.4411 36.074 11.8893 35.3684C12.7429 34.0658 13.7778 33.4281 16.3493 32.6139C18.6006 31.8948 21.2681 31.3113 24.4158 30.8636C27.6167 30.4022 27.3393 30.4293 30.1135 30.4022L32.5569 30.3751L32.9304 30.8771ZM91.5083 33.9573C92.5539 34.785 94.7946 36.9696 94.8907 37.2681C94.9974 37.6073 95.1787 43.2927 95.1254 44.4596C95.0934 45.1381 95.0294 45.5316 94.912 45.6808C94.7413 45.8844 94.6986 45.8708 94.2291 45.5858C92.6393 44.6089 90.8788 43.062 90.644 42.4243C90.3773 41.7051 90.2492 40.009 90.2172 36.8067C90.1852 32.9396 90.1959 32.926 91.5083 33.9573ZM25.9736 34.9071C25.7388 39.2627 23.4981 57.9471 23.1674 58.3135C22.922 58.5984 23.5622 49.5073 24.1063 44.8938C24.5225 41.3795 25.8135 33.6316 25.9842 33.6316C26.0163 33.6316 26.0163 34.2015 25.9736 34.9071ZM73.06 35.0564C74.6925 35.8433 76.0796 36.4811 76.1329 36.4811C76.1969 36.4811 76.2823 35.9248 76.325 35.2463C76.3677 34.3915 76.4317 34.0523 76.5064 34.1472C76.6237 34.2965 76.5811 36.8067 76.453 36.9696C76.4103 37.0238 75.2153 36.4675 73.7962 35.7348C71.1287 34.3508 69.859 33.6588 70.0084 33.6452C70.0511 33.6316 71.4275 34.2694 73.06 35.0564ZM77.584 46.7256C77.6054 56.5767 77.5947 57.0516 77.4026 57.4044C77.1999 57.7979 76.6024 58.3271 76.3783 58.3271C76.3036 58.3271 76.4744 58.1235 76.7624 57.8793C77.0932 57.6079 77.3066 57.2958 77.3706 57.038C77.424 56.8073 77.4346 51.6376 77.4133 45.3687C77.3813 38.435 77.4026 34.5543 77.456 35.2599C77.5093 35.8976 77.5627 41.0538 77.584 46.7256ZM67.1808 34.4729C67.2662 34.5814 67.3089 35.3549 67.3089 37.051V39.4663H66.6794C66.2632 39.4663 66.0072 39.3984 65.9218 39.2627C65.7191 38.9506 65.8151 34.6086 66.0285 34.4458C66.2526 34.2558 67.0315 34.2829 67.1808 34.4729ZM19.6676 38.3672C19.3155 42.0851 18.1098 52.8995 17.7257 55.8711L17.427 58.1235L17.3949 56.4274C17.3416 53.8222 17.8431 47.5126 18.4513 42.9263C18.8994 39.5205 19.8597 34.3915 19.913 35.0428C19.9344 35.2463 19.8277 36.7389 19.6676 38.3672ZM14.6528 36.5761C14.258 39.4934 12.9883 49.548 12.5721 53.103C12.2734 55.6404 11.996 57.7436 11.964 57.7843C11.8466 57.9064 12.0386 54.5413 12.3054 51.7054C12.8602 45.9251 13.4684 41.7458 14.5034 36.7118C14.6208 36.1283 14.7275 36.0333 14.6528 36.5761ZM67.1702 41.7323C67.1382 41.868 67.1168 41.7594 67.1168 41.5016C67.1168 41.2438 67.1382 41.1352 67.1702 41.2574C67.1915 41.393 67.1915 41.6101 67.1702 41.7323ZM54.9104 43.347C55.4439 43.4012 55.86 43.4962 55.828 43.5505C55.796 43.6183 55.2625 43.6726 54.633 43.6726C50.5251 43.6862 46.7906 45.0838 43.4829 47.8654C42.3306 48.8424 41.8611 49.358 42.3733 49.1138C42.5226 49.0459 42.9708 48.7745 43.3762 48.5167C45.6489 47.0649 49.5328 45.5587 52.7444 44.8803C53.7581 44.6767 58.6236 44.6767 59.5198 44.8938C60.6402 45.1516 62.6141 46.0336 63.8945 46.8478C65.0469 47.5805 66.8821 49.0052 66.8821 49.1816C66.8821 49.2223 66.6047 49.0595 66.2739 48.8288C65.3136 48.1639 64.0119 47.5262 62.7528 47.1056C61.7285 46.7799 61.4191 46.7392 59.9466 46.7392C58.4849 46.7392 58.1648 46.7799 57.2365 47.1056C55.9561 47.5533 54.7077 48.2861 53.5874 49.2495C52.6591 50.0365 50.9625 52.0582 50.4931 52.9266L50.1943 53.4694L49.17 53.388C45.4035 53.103 42.6507 53.1844 40.3673 53.6458C37.241 54.2835 35.2137 55.7218 34.3815 57.8522C33.9974 58.8563 34.0507 59.6975 34.5522 60.5931L34.915 61.2173L32.9624 61.1358C31.8954 61.0816 30.9778 61.0137 30.9244 60.973C30.6683 60.7695 32.5356 57.133 34.1574 54.6635C36.6755 50.8235 39.3003 48.1775 42.608 46.115C44.838 44.731 46.7693 43.944 49.1593 43.4691C50.1516 43.2791 53.3313 43.2113 54.9104 43.347ZM65.6124 49.6294C66.7114 50.1586 68.1625 51.529 68.728 52.5467C68.9094 52.8859 68.8454 52.8452 68.4186 52.3567C67.7037 51.5155 67.0101 50.932 66.3593 50.5928C65.8898 50.3621 65.5697 50.3214 64.2893 50.3214C62.9449 50.3214 62.7101 50.3621 62.166 50.6471C61.291 51.1084 60.032 52.1396 59.3171 52.9809C58.7516 53.6458 58.4528 54.0936 57.5566 55.654C57.3965 55.9389 57.2365 56.1425 57.2045 56.1153C57.0978 55.9796 57.9727 53.6594 58.4635 52.7774C59.3278 51.217 60.5121 50.0907 61.9739 49.4801C62.7955 49.1273 64.7481 49.2087 65.6124 49.6294ZM66.1885 51.5697C67.4476 51.9768 68.9841 53.4423 69.923 55.1384C71.993 58.8563 73.1987 65.3965 73.3801 73.9313C73.4441 77.4186 73.3694 81.842 73.2307 82.2491C73.0386 82.8326 72.9639 82.3305 72.9426 80.268C72.9426 79.0604 72.9106 78.287 72.8893 78.5448C72.7826 79.8203 72.3878 82.0727 72.0463 83.321C71.6836 84.6508 70.5312 87.7174 70.4458 87.5952C70.4245 87.5681 70.5312 87.1203 70.6806 86.6047C71.086 85.2614 71.5555 83.1446 71.7689 81.7335C71.9076 80.8244 71.9503 79.8067 71.9396 77.7306C71.9396 75.2475 71.9076 74.759 71.6515 73.2393C70.6806 67.4183 68.8987 63.8903 65.9751 62.0178C65.623 61.8007 64.8335 61.4208 64.2359 61.1765C63.6384 60.9459 63.1476 60.7016 63.1476 60.6474C63.1476 60.471 64.1506 59.3312 64.5134 59.0869C64.9722 58.7884 65.1962 58.8156 65.8471 59.2226C69.4322 61.5429 72.0783 66.7941 72.8039 73.0358L72.9426 74.2706L72.9533 72.9679C72.9746 70.3084 72.6225 66.0478 72.153 63.3611C71.1287 57.5265 69.1334 54.0529 66.1352 52.8859C65.2496 52.5467 64.0866 52.5738 63.2223 52.9538C61.2057 53.8629 59.1677 56.6174 57.4605 60.7695C57.1404 61.5565 56.7883 62.4792 56.6923 62.832C56.5643 63.2526 56.4362 63.4833 56.3189 63.4833C56.2228 63.4833 54.8251 63.239 53.2139 62.9405C51.6027 62.642 49.9169 62.3163 49.4581 62.2349C47.8896 61.95 48.8499 61.8414 52.3283 61.9364L55.7533 62.0314L56.1801 61.0273C56.4256 60.471 56.9911 59.2905 57.4605 58.3949C60.4054 52.7367 63.1689 50.5656 66.1885 51.5697ZM94.1971 51.8683C94.6346 52.1939 95.1361 52.6553 95.3068 52.8859C95.5842 53.2523 95.6269 53.4151 95.7016 54.6228C95.8296 56.7259 95.915 63.0898 95.8189 63.619C95.6802 64.4059 95.3388 64.4467 94.3358 63.8089C93.8877 63.524 93.4289 63.1305 93.3222 62.9405C93.0234 62.3977 92.9167 60.8645 92.8954 56.1425C92.8527 50.6606 92.81 50.8235 94.1971 51.8683ZM75.6741 53.7815C75.7061 54.3649 75.7808 54.9077 75.8235 54.962C75.8662 55.0163 76.0582 55.1112 76.2503 55.1519L76.5917 55.2334V54.5142C76.5917 53.6322 76.7518 53.198 76.8691 53.7679C76.9652 54.2835 76.8371 55.3555 76.6451 55.5997C76.5064 55.7897 76.4317 55.7897 76.0369 55.6133C75.3967 55.3283 75.2687 54.9484 75.3647 53.483C75.4607 52.1261 75.5781 52.2482 75.6741 53.7815ZM49.01 54.3921C50.8025 54.5278 52.7017 54.8806 53.8861 55.2876C54.6437 55.559 55.1345 56.1696 55.2199 56.943C55.3266 57.9743 54.3342 59.6433 53.1606 60.4031C52.3176 60.9459 51.5921 61.0816 50.3864 60.9052C47.9856 60.5659 46.844 60.5117 41.8077 60.4981C36.0673 60.471 35.3844 60.4303 35.139 60.0096C34.3388 58.6799 35.5658 56.5767 37.7852 55.4776C38.7028 55.0163 40.1112 54.5685 41.1035 54.3921C42.0532 54.2428 46.908 54.2428 49.01 54.3921ZM7.08779 56.6581C7.05578 57.0245 6.92774 58.5577 6.7997 60.091C6.67166 61.6243 6.5543 62.8998 6.53296 62.9269C6.47961 62.9948 5.50864 63.1847 4.65505 63.2933C4.16423 63.3476 3.92949 63.334 3.92949 63.239C3.92949 63.0355 4.18557 62.8727 4.8151 62.6827C5.10318 62.6013 5.45529 62.4249 5.60467 62.3028C6.31956 61.7057 6.78903 58.8427 6.27688 58.1914C6.15951 58.0421 6.0208 57.92 5.95678 57.92C5.72204 57.92 5.87142 57.5265 6.39425 56.7938C6.693 56.3731 6.98109 56.0204 7.04511 56.0204C7.1198 56.0204 7.13047 56.251 7.08779 56.6581ZM81.4359 58.3542C81.4679 58.7477 81.5426 59.7111 81.6066 60.4981C81.7133 61.8279 81.7666 62.0314 82.3855 63.6597C83.0257 65.3558 83.047 65.4508 83.047 66.482C83.047 67.6354 82.9403 67.9067 82.5455 67.771C82.0441 67.6082 81.98 67.4725 81.916 66.3056C81.8733 65.41 81.7773 64.9623 81.4679 64.0939C81.2652 63.4968 81.0304 62.737 80.9771 62.3977C80.8384 61.665 80.689 58.1778 80.785 57.8657C80.8277 57.7436 80.9664 57.6486 81.1158 57.6486C81.3505 57.6486 81.3825 57.7165 81.4359 58.3542ZM82.951 57.8114C82.9937 57.9064 83.0897 58.8427 83.1644 59.9011C83.2818 61.6108 83.3351 61.9364 83.6766 62.9405C84.3168 64.7587 84.5195 66.5091 84.2847 67.8932C84.2207 68.246 84.1674 68.3002 83.8579 68.2731C83.2818 68.246 83.1857 68.0153 83.3244 67.079C83.5058 65.8171 83.4098 64.9216 82.9403 63.619L82.5242 62.4656L82.4815 60.3895C82.4602 59.2498 82.4709 58.1642 82.5029 57.9743C82.5776 57.6351 82.823 57.5401 82.951 57.8114ZM75.8128 58.2728C75.7808 58.3135 75.6848 58.3271 75.6101 58.2864C75.5247 58.2457 75.5567 58.2049 75.6741 58.2049C75.7915 58.1914 75.8555 58.2321 75.8128 58.2728ZM6.01013 59.0055C6.04214 59.0734 6.0208 59.5211 5.95678 59.9825C5.76472 61.3801 5.74338 61.4208 5.52998 60.8238C5.43395 60.5252 5.22055 60.1453 5.06051 59.9689C4.71907 59.5618 4.7084 59.3583 5.01783 59.0869C5.28457 58.8427 5.90343 58.802 6.01013 59.0055ZM76.325 61.2173C78.1495 61.9771 79.5473 62.6149 79.4513 62.642C79.2912 62.6827 73.5508 61.4208 73.0386 61.2308C72.8359 61.1494 72.7185 60.8645 72.5905 60.1182C72.5158 59.684 72.5265 59.6568 72.7612 59.7518C72.8999 59.7925 74.5111 60.4574 76.325 61.2173ZM4.94314 61.9364C4.33495 62.3028 4.14289 62.3435 4.14289 62.0857C4.14289 61.7464 4.39897 61.5836 4.94314 61.5972L5.47663 61.6108L4.94314 61.9364ZM90.9001 63.8768C94.8907 64.9623 95.8189 65.1658 96.1604 65.0573C96.4591 64.9623 97.0673 64.2024 97.2487 63.6732C97.3661 63.3204 97.3767 63.3883 97.3874 64.4874C97.3981 65.6679 97.3981 65.6814 97.0353 66.1428C96.7579 66.4956 96.5872 66.6041 96.2884 66.6041C95.8936 66.6041 93.717 65.7764 89.6944 64.0803C86.2587 62.6284 86.2907 62.6284 90.9001 63.8768ZM45.4889 63.619C49.5114 63.8496 55.86 64.718 55.9667 65.0573C56.0521 65.3422 55.7747 66.7534 55.6146 66.8348C55.4973 66.8891 54.761 66.7669 52.307 66.2649C51.0692 66.0071 48.3911 65.7764 46.0224 65.7221C44.4966 65.6814 42.8427 65.6272 42.3412 65.6C40.8581 65.5186 41.7117 65.7357 43.835 65.9935C44.9234 66.1156 46.4385 66.3327 47.1961 66.482C49.042 66.8212 52.6377 67.6761 53.1712 67.9067L53.598 68.0967L53.0645 68.0289C52.7764 67.9881 52.2216 67.9067 51.8375 67.8389C50.9412 67.6625 49.5114 67.4454 48.103 67.2826C47.4842 67.2011 46.8119 67.1197 46.6092 67.079C46.4065 67.0519 45.8303 66.984 45.3288 66.9433C44.8273 66.8891 44.2832 66.8212 44.1018 66.7941C42.9921 66.6313 38.0413 66.5363 30.4976 66.5363C14.9515 66.5363 11.121 66.7941 3.68408 68.3681C2.63843 68.5987 1.72082 68.7751 1.63546 68.7751C1.50742 68.7751 1.47541 68.5987 1.48608 67.9881C1.50742 66.6991 1.56077 66.577 2.27565 66.292C3.78011 65.7086 8.15479 65.0708 13.4791 64.6502C19.3475 64.1888 23.4021 63.9989 36.8462 63.5782C39.8552 63.4833 43.1948 63.4968 45.4889 63.619ZM63.3077 65.2608C65.5483 66.1428 67.4796 69.0601 68.2158 72.6559C68.4292 73.7142 68.4399 77.7306 68.2158 78.884C67.565 82.3712 65.6444 85.3157 63.3823 86.3062C62.3367 86.7675 60.8216 86.7268 59.7866 86.2248C57.9087 85.3157 56.3829 83.2125 55.4759 80.268C55.0171 78.8162 54.8998 77.6221 54.9531 75.1525C54.9958 73.3072 55.0385 72.9137 55.2945 71.9638C56.1268 68.8701 57.4392 66.7941 59.2851 65.6543C60.6295 64.8266 61.8779 64.7045 63.3077 65.2608ZM75.4927 69.8607C75.4394 72.4659 75.4607 73.28 75.5567 73.3207C75.6741 73.375 81.1478 74.6098 81.2865 74.6098C81.3185 74.6098 81.3292 73.0494 81.3078 71.1361C81.2652 67.7032 81.2758 67.6761 81.4786 67.8389C81.6706 67.9881 81.6813 68.0289 81.5319 68.1645C81.4039 68.2867 81.3932 68.3816 81.4786 68.5987C81.5746 68.8159 82.1721 69.0601 84.6155 69.8471C88.7768 71.204 91.5403 72.1402 92.5006 72.5202C93.1728 72.7915 93.3969 72.9544 93.749 73.4429C95.5095 75.8717 95.4775 80.5937 93.685 82.8733C92.906 83.8638 92.5433 83.9316 89.449 83.6467C88.1046 83.5246 86.8562 83.3889 86.6748 83.3617C86.5041 83.3346 85.9279 83.2668 85.4158 83.2261C84.4341 83.1311 84.2421 82.9411 84.8929 82.724C85.2984 82.5883 86.056 81.435 86.4721 80.3359C87.155 78.5041 87.4004 75.5596 87.0269 73.7278C86.7282 72.3438 86.3867 71.299 86.088 70.9326C85.8426 70.6069 85.0423 70.1863 84.9356 70.322C84.9143 70.3491 85.0957 70.7019 85.3304 71.0954C86.4827 73.0222 86.8242 76.3195 86.1306 78.9247C85.7038 80.5801 85.1277 81.4757 85.1277 80.5123C85.1277 80.1188 85.117 80.1188 83.4845 79.8474C82.855 79.7388 82.3108 79.6167 82.2788 79.5896C82.2575 79.5489 82.3855 78.9247 82.5669 78.192C83.1537 75.8717 83.0897 73.9042 82.3748 71.9774C82.0334 71.0683 81.6599 70.417 81.5532 70.5527C81.5212 70.6069 81.5639 72.0317 81.6599 73.7414C81.8307 76.9979 81.8627 78.9247 81.756 79.2775C81.5746 79.861 81.4999 79.3046 81.4999 77.4728C81.4999 75.6546 81.4786 75.4375 81.3185 75.3696C81.1158 75.2882 79.9954 75.0711 77.2533 74.5555C76.0155 74.3248 75.5994 74.2841 75.5247 74.4062C75.4714 74.5012 75.2793 75.5867 75.1193 76.8215L74.8098 79.074L75.2473 79.1554C75.4927 79.2096 76.1863 79.2775 76.7945 79.3318C78.0428 79.4403 78.0215 79.4132 78.1069 80.7294C78.1389 81.2857 78.1389 81.2993 77.552 81.6792C76.7731 82.1948 76.6237 82.1677 77.2853 81.6385C77.584 81.4078 77.8508 81.15 77.9041 81.0686C77.9788 80.9329 77.9041 80.0374 77.8081 79.9152C77.7868 79.8745 77.0185 79.8474 76.1009 79.8203C75.194 79.8067 74.4151 79.7524 74.383 79.7117C74.3404 79.671 74.3937 78.2055 74.5004 76.4687C74.6605 73.7685 74.6711 72.9001 74.5751 70.3084C74.4044 66.0071 74.351 66.4684 75.0126 66.4684H75.5567L75.4927 69.8607ZM39.0549 67.7168C39.7698 68.0153 40.1539 68.4088 40.442 69.1551C40.6554 69.7114 40.6874 69.9963 40.6874 71.2854C40.6874 72.9815 40.5914 73.3072 39.8978 74.1077C39.1403 74.9761 38.8949 75.0169 34.0827 75.0033C27.3287 74.9761 26.2403 74.6776 32.4716 74.5555C36.014 74.4877 37.8492 74.3248 38.7775 73.9992C39.4924 73.7414 39.9512 73.1036 40.0579 72.2217C40.1646 71.3261 40.0579 69.8607 39.8445 69.3586C39.5991 68.748 39.311 68.5445 38.5001 68.3816C37.7105 68.2324 33.8053 68.0017 30.2949 67.8932C28.9825 67.8525 27.8728 67.7982 27.8515 67.7575C27.8195 67.7168 27.9795 67.6761 28.2143 67.6761C28.4383 67.6625 29.3239 67.6082 30.1775 67.5539C31.0311 67.4997 33.2611 67.459 35.139 67.4861C37.8492 67.5132 38.6601 67.5539 39.0549 67.7168ZM54.6543 68.3681C55.0811 68.5445 55.3372 68.7073 55.3052 68.8159C55.2839 68.8973 55.1132 69.7928 54.9318 70.7833C54.7397 71.7739 54.569 72.5609 54.5476 72.5473C54.537 72.5202 54.4623 71.8553 54.3983 71.0547C54.2702 69.4807 54.0568 68.3816 53.8434 68.2188C53.6087 68.0153 53.9074 68.0831 54.6543 68.3681ZM5.06051 69.0737C3.68408 69.2636 2.08359 69.7114 1.91288 69.9285C1.77417 70.0913 1.73149 70.5391 1.71015 71.9367C1.68881 72.9272 1.72082 73.8906 1.77417 74.0806C1.91288 74.5419 2.15828 74.5962 4.30294 74.7048C7.36521 74.854 6.74635 75.0576 3.17193 75.0711C1.82752 75.0847 1.5501 74.9219 1.35804 74.0399C1.17665 73.1443 1.27268 70.417 1.50742 69.9556C1.89154 69.2093 2.71312 68.938 4.67639 68.938L5.90343 68.9515L5.06051 69.0737ZM38.4254 69.44C38.7135 69.5079 39.0442 69.6843 39.1936 69.8607C39.439 70.1592 39.4604 70.2677 39.4604 71.4347C39.4604 72.5744 39.439 72.7373 39.2043 73.0765C38.9482 73.4564 38.9269 73.4564 37.5718 73.4971C36.7929 73.5243 36.078 73.4836 35.9179 73.4021C35.4165 73.1579 35.2457 72.6559 35.2457 71.4075C35.2457 70.3491 35.2671 70.2542 35.5552 69.8742C35.7259 69.6436 36.0033 69.44 36.1954 69.4129C36.7929 69.3179 37.9026 69.3315 38.4254 69.44ZM5.57266 71.0819C5.7007 71.2176 5.74338 71.5432 5.74338 72.5202C5.74338 74.1484 5.7007 74.2027 4.50567 74.2027C3.68408 74.2027 3.57738 74.1756 3.34265 73.8635C3.11858 73.5785 3.0759 73.4157 3.0759 72.6559C3.0759 71.5975 3.20394 71.1226 3.52404 70.9462C3.86547 70.7562 5.36993 70.8648 5.57266 71.0819ZM101.634 75.7903C101.602 78.3141 101.538 80.5123 101.495 80.6887C101.453 80.8651 101.303 81.0686 101.165 81.1364C101.026 81.2043 99.6494 81.2586 98.1236 81.2586H95.3495L95.4135 80.9465C95.7122 79.6167 95.6909 76.8215 95.3708 75.4239C95.3175 75.1661 95.2641 74.9354 95.2641 74.9219C95.2641 74.8133 96.7579 74.9083 96.8112 75.0169C96.8433 75.0983 96.9286 75.7224 96.982 76.4145C97.0353 77.0929 97.11 77.7849 97.1527 77.9342C97.3021 78.5448 97.4088 77.5135 97.3341 76.1566L97.2594 74.7862L98.6891 74.7048C99.4681 74.6641 100.119 74.6369 100.13 74.6505C100.14 74.6641 100.204 75.3832 100.279 76.2381C100.396 77.7306 100.439 77.9884 100.535 77.8528C100.556 77.8256 100.599 76.4552 100.631 74.8133L100.695 71.8282L100.46 72.7373C100.332 73.2393 100.194 73.6871 100.151 73.7414C100.098 73.7956 99.4681 73.8499 98.7318 73.8635L97.3981 73.8771V72.9951C97.3874 71.9774 97.2807 72.0724 97.078 73.28L96.9393 74.067H96.075C95.4562 74.067 95.1361 73.9992 94.9653 73.8499C94.6773 73.6057 94.4105 72.9679 94.4105 72.5609C94.4105 72.3438 94.3785 72.3031 94.2718 72.4116C94.1224 72.5744 93.6529 72.3438 93.3435 71.9503C93.2048 71.7739 93.2048 71.7332 93.3435 71.6246C93.4289 71.5568 93.717 71.4889 93.9837 71.4754C94.2505 71.4618 95.1574 71.4075 96.011 71.3532C96.8646 71.3125 98.4864 71.2583 99.6281 71.2447L101.698 71.2176L101.634 75.7903ZM104.398 73.185C104.696 73.565 105.08 74.5826 105.337 75.6682C105.539 76.5501 105.454 76.5773 105.166 75.7224C104.6 74.0535 104.056 74.067 103.565 75.7767C103.363 76.5094 103.331 76.9029 103.288 80.1459C103.245 84.0809 103.341 85.6685 103.747 87.6224C104.035 88.9793 104.302 89.7391 104.632 90.1191C104.92 90.4447 105.208 90.2548 105.507 89.5627C105.71 89.0878 105.721 89.0743 105.657 89.4678C105.486 90.4312 104.888 91.5709 104.536 91.5709C104.248 91.5709 103.736 90.6754 103.448 89.6849C103.139 88.6401 102.797 86.4962 102.616 84.5829C102.456 82.819 102.456 77.9884 102.616 76.5094C102.946 73.4429 103.619 72.1945 104.398 73.185ZM106.734 75.3832C106.596 75.8988 106.425 76.6994 106.361 77.1879C106.222 78.1241 106.041 78.5719 106.041 78.002C106.041 77.7171 105.785 76.0752 105.539 74.7726C105.486 74.4877 105.507 74.4741 106.233 74.4741H106.99L106.734 75.3832ZM108.473 74.7726C108.751 75.1525 109.306 76.6858 109.402 77.3236C109.455 77.7171 109.402 77.6492 109.114 76.9165C108.826 76.1973 108.708 76.0345 108.495 76.0345C107.855 76.0345 107.535 77.7442 107.535 81.3264C107.535 84.5422 107.684 86.659 108.025 88.138C108.484 90.1462 108.772 90.5804 109.295 90.0512L109.583 89.7663L109.508 90.0919C109.391 90.594 109.039 91.2589 108.847 91.3538C108.153 91.6931 107.353 89.1828 106.99 85.5328C106.82 83.8095 106.809 78.7754 106.98 77.5271C107.236 75.6003 107.631 74.4741 108.057 74.4741C108.164 74.4741 108.345 74.6098 108.473 74.7726ZM105.07 77.9342C105.667 80.3766 105.763 86.6047 105.24 87.9073C104.995 88.5044 104.76 88.3822 104.408 87.4731C104.003 86.4555 103.939 85.8041 104.173 84.9086C104.451 83.8502 104.355 81.4214 103.971 80.0238C103.821 79.4539 103.693 78.8162 103.693 78.599C103.693 78.0156 103.992 76.8351 104.195 76.5637C104.366 76.3602 104.387 76.3602 104.622 76.6994C104.75 76.8894 104.952 77.4593 105.07 77.9342ZM54.2062 77.1336C54.0888 78.3819 53.1712 79.9424 52.307 80.3223C51.8268 80.5394 49.4047 80.553 41.541 80.4037C38.8415 80.3494 34.7122 80.268 32.3649 80.2409C30.0175 80.2002 26.7525 80.1459 25.1093 80.1052C23.4661 80.0781 19.2408 79.9966 15.7198 79.9559C12.1987 79.9017 8.98704 79.8203 8.57091 79.7795C7.73866 79.6846 9.58456 79.6303 28.6837 79.2232C47.1427 78.8433 50.7171 78.7212 51.3573 78.5041C52.0936 78.2463 52.7978 77.7985 53.4593 77.1743C53.7687 76.8894 54.0782 76.6723 54.1315 76.6994C54.1955 76.713 54.2275 76.9165 54.2062 77.1336ZM108.804 78.3412C109.124 79.1825 109.348 80.6751 109.455 82.6697C109.636 85.8856 109.37 88.4501 108.868 88.4501C108.698 88.4501 108.185 87.1339 108.1 86.4826C108.068 86.1841 108.111 85.9127 108.239 85.6549C108.409 85.3292 108.441 85.0036 108.431 83.5653C108.431 81.8013 108.313 81.0822 107.94 80.4309C107.759 80.1188 107.748 79.9966 107.844 79.2911C108.047 77.907 108.484 77.4728 108.804 78.3412ZM82.5135 80.2409C83.6339 80.4309 84.6048 80.6072 84.6795 80.648C84.7542 80.6751 84.8076 80.9465 84.8076 81.2721V81.842L83.7726 81.747C83.1964 81.7063 81.8627 81.5706 80.8063 81.4621C79.75 81.3535 78.8324 81.2586 78.7577 81.2586C78.619 81.2586 78.3843 80.0509 78.4803 79.8474C78.5657 79.671 80.1448 79.8203 82.5135 80.2409ZM68.9094 82.0184C68.8347 82.4391 68.5679 83.321 68.3012 83.9995C67.3942 86.2926 65.6017 88.1516 63.6811 88.7893C62.5821 89.1557 60.8002 89.02 59.6479 88.4772C58.6662 88.0159 57.5459 87.1203 56.9057 86.2926C56.4362 85.6685 56.4896 85.5599 57.0337 86.0755C58.0687 87.0932 60.064 87.9073 61.4831 87.9073C63.4997 87.9073 65.2923 86.9439 66.7861 85.0579C67.565 84.0809 67.7784 83.7145 68.1945 82.6155C68.4719 81.9099 68.7493 81.0279 68.824 80.648L68.9627 79.9695L68.9947 80.6208C69.0161 80.9872 68.9734 81.6114 68.9094 82.0184ZM18.2272 82.0456C18.5366 82.3576 18.4406 82.8461 18.0458 82.9682C17.6404 83.1039 17.3949 82.3712 17.715 81.9641C17.8858 81.747 17.9498 81.7606 18.2272 82.0456ZM98.5718 82.6019C98.6251 82.7511 98.6785 83.321 98.6785 83.8774C98.6785 85.1528 99.0092 87.5681 99.4254 89.3999C99.9375 91.6117 99.9269 91.4624 99.5748 91.4081C99.2973 91.3674 99.244 91.2724 98.9666 90.2955C98.6038 88.9521 98.2944 87.0661 98.0916 84.8408C97.8676 82.4255 97.8782 82.3441 98.1983 82.3441C98.3477 82.3441 98.5078 82.4526 98.5718 82.6019ZM20.7453 84.0402C20.8413 84.5151 20.7133 85.0307 20.4679 85.1935C20.2972 85.3157 20.2011 85.275 19.9877 85.0036C19.8384 84.8136 19.721 84.5287 19.721 84.3794C19.721 84.2166 19.8384 83.9452 19.9877 83.7552C20.2011 83.4839 20.2972 83.4432 20.4679 83.5653C20.5853 83.6467 20.7133 83.8638 20.7453 84.0402ZM23.957 83.8638C24.3944 84.393 24.2237 85.0579 23.6475 85.0579C23.1034 85.0579 22.6232 84.0945 22.9326 83.6196C23.114 83.3482 23.6262 83.4703 23.957 83.8638ZM47.0467 85.3564C47.5802 86.9982 49.9702 90.689 51.1333 91.6524L51.4427 91.9102L51.0799 92.0052C50.8772 92.0594 45.0727 92.1408 38.18 92.1815L25.6428 92.263L26.9445 91.3945C27.6488 90.9196 28.5664 90.2276 28.9718 89.8748C29.8361 89.0878 31.4472 87.0389 32.0448 85.967L32.4716 85.1935L34.0187 85.18C34.8723 85.1664 37.1236 85.1121 39.0336 85.0714C40.9435 85.0172 43.4936 84.9629 44.6993 84.9493L46.908 84.9222L47.0467 85.3564ZM93.3435 87.6631C93.6956 89.4271 94.1651 90.8247 94.8053 92.073L94.9867 92.4122L90.644 92.3579C88.2646 92.3308 86.28 92.263 86.2373 92.2223C86.2053 92.168 86.2694 91.9644 86.3867 91.7473C86.8775 90.8518 87.6885 88.3822 87.6885 87.7581C87.6885 87.6224 87.7525 87.4731 87.8272 87.4053C87.9445 87.3103 89.7798 87.1882 92.2979 87.1203L93.2261 87.0932L93.3435 87.6631ZM78.1922 88.4908C78.6937 88.925 79.6006 88.735 80.1341 88.0837C80.5396 87.5817 80.6356 87.7988 80.2728 88.3958C79.654 89.4406 78.8858 89.6713 78.1709 89.0471C77.7974 88.7215 77.3386 87.9752 77.3386 87.6902C77.3386 87.636 77.4667 87.7445 77.6374 87.9345C77.7974 88.1244 78.0428 88.3687 78.1922 88.4908ZM84.146 88.4772C84.6689 89.1964 85.4584 89.0743 85.9706 88.2194C86.1093 87.9616 86.184 87.9073 86.1947 88.0566C86.1947 88.2873 85.7785 89.0607 85.4798 89.3321C85.277 89.5356 84.7329 89.5899 84.4341 89.4542C84.1887 89.3321 83.6339 88.2466 83.6339 87.8802C83.6445 87.5817 83.6445 87.5817 83.7619 87.8395C83.8259 87.9887 83.9967 88.2737 84.146 88.4772ZM70.1257 92.0052C70.0937 92.0594 69.6776 92.1137 69.1975 92.1137H68.3332L68.856 91.5167L69.3895 90.9196L69.7843 91.3945C69.9977 91.6659 70.1578 91.9373 70.1257 92.0052Z" fill="#DF1313"/>
<path d="M78.7475 21.3924C78.5341 24.1876 78.3847 25.6802 78.31 25.9244C78.1713 26.3993 77.8939 26.6436 77.1257 26.9963L76.4321 27.322L77.179 27.3627C78.1393 27.417 78.5875 27.3084 78.7262 26.9828C78.8009 26.82 78.8222 25.653 78.8009 23.9026C78.7902 22.3422 78.7688 21.216 78.7475 21.3924Z" fill="#DF1313"/>
<path d="M80.6465 27.3764C80.3691 28.0548 81.1267 28.5297 81.5428 27.9462C81.8522 27.512 81.7242 27.1864 81.212 27.1457C80.8493 27.105 80.7426 27.1592 80.6465 27.3764Z" fill="#DF1313"/>
<path d="M82.4816 27.2813C82.1722 27.6748 82.5136 28.3397 83.0258 28.3397C83.3245 28.3397 83.5379 28.0005 83.4419 27.6613C83.3245 27.1728 82.7483 26.9421 82.4816 27.2813Z" fill="#DF1313"/>
<path d="M81.6809 28.7197C81.5742 28.8554 81.4995 29.1404 81.4995 29.3439C81.4995 29.8324 81.9583 30.0766 82.3531 29.8052C82.7266 29.5474 82.7372 29.2218 82.3958 28.8147C82.0543 28.4076 81.9156 28.3941 81.6809 28.7197Z" fill="#DF1313"/>
<path d="M80.0277 28.964C79.7397 29.2218 79.7397 29.7917 80.0384 30.0223C80.2838 30.2259 80.796 29.8595 80.8387 29.4524C80.9133 28.8147 80.4759 28.5569 80.0277 28.964Z" fill="#DF1313"/>
<path d="M82.5669 30.5108C82.4495 30.66 82.3535 30.85 82.3535 30.9179C82.3535 31.1078 82.8443 31.732 82.9937 31.732C83.4739 31.732 83.6979 31.0128 83.3458 30.6193C83.0151 30.2666 82.791 30.2258 82.5669 30.5108Z" fill="#DF1313"/>
<path d="M80.7527 30.5651C80.55 30.8907 80.6674 31.3792 80.9875 31.5149C81.553 31.7727 82.1292 30.8636 81.617 30.5108C81.3182 30.3209 80.9021 30.348 80.7527 30.5651Z" fill="#DF1313"/>
<path d="M81.799 32.017C81.6816 32.0984 81.6069 32.3155 81.6069 32.5462C81.6069 32.8583 81.6603 32.9668 81.8737 33.0346C82.4925 33.2246 82.9193 32.7904 82.5886 32.2884C82.3538 31.9491 82.0337 31.8406 81.799 32.017Z" fill="#DF1313"/>
<path d="M80.0169 32.2884C79.8675 32.4783 79.7928 32.6955 79.8141 32.9261C79.8461 33.2518 79.8888 33.2925 80.2409 33.2789C80.9131 33.2518 81.1906 32.709 80.7744 32.2341C80.5077 31.9356 80.305 31.9492 80.0169 32.2884Z" fill="#DF1313"/>
<path d="M80.881 33.7945C80.8063 33.8895 80.7529 34.093 80.7529 34.2694C80.7529 34.6493 81.1797 34.8257 81.5638 34.5951C82.0227 34.3373 81.8306 33.6317 81.2864 33.6317C81.137 33.6317 80.9557 33.6995 80.881 33.7945Z" fill="#DF1313"/>
<path d="M82.5668 33.8215C82.3641 34.1336 82.4814 34.6221 82.8122 34.8256C83.2283 35.0834 83.5271 34.9206 83.5271 34.4592C83.5271 33.7944 82.8762 33.3602 82.5668 33.8215Z" fill="#DF1313"/>
<path d="M79.3979 34.0387C78.9497 34.2693 78.8003 35.0156 79.1418 35.2599C79.4512 35.4634 79.846 35.2192 80.006 34.7171C80.1341 34.3236 80.1341 34.2558 79.9527 34.0929C79.7286 33.8758 79.7179 33.8758 79.3979 34.0387Z" fill="#DF1313"/>
<path d="M81.7987 35.3821C81.3933 35.8027 81.8307 36.5626 82.3749 36.3726C82.5776 36.3047 82.7377 35.7891 82.6416 35.477C82.5563 35.1921 82.0548 35.1242 81.7987 35.3821Z" fill="#DF1313"/>
<path d="M80.0701 35.6127C79.7713 35.9791 79.8887 36.3997 80.3048 36.454C80.753 36.5083 80.9877 36.264 80.945 35.8163C80.9237 35.5313 80.849 35.4499 80.5822 35.4228C80.3688 35.3956 80.1768 35.4635 80.0701 35.6127Z" fill="#DF1313"/>
<path d="M80.9874 36.9696C80.7314 37.2003 80.678 37.6888 80.8807 37.9466C81.1902 38.3401 81.9264 37.9602 81.9264 37.3903C81.9264 37.1732 81.5423 36.7525 81.3395 36.7525C81.2755 36.7525 81.1155 36.8475 80.9874 36.9696Z" fill="#DF1313"/>
<path d="M82.6948 37.1052C82.3854 37.3766 82.3961 37.6208 82.7375 37.96C83.0789 38.2993 83.4844 38.3264 83.6124 38.0279C83.7618 37.6887 83.6444 37.3087 83.303 37.0916C82.9402 36.8474 82.9829 36.8474 82.6948 37.1052Z" fill="#DF1313"/>
<path d="M79.3129 37.4987C79.0035 37.8922 78.9714 38.3129 79.2382 38.5028C79.6863 38.8013 80.3265 37.8651 80.0064 37.3766C79.8144 37.0781 79.6116 37.1052 79.3129 37.4987Z" fill="#DF1313"/>
<path d="M81.8196 38.6521C81.5315 39.0185 81.5529 39.2627 81.9157 39.5884C82.2998 39.9412 82.3638 39.9412 82.6412 39.6019C82.908 39.2898 82.8653 38.8828 82.5345 38.5843C82.2251 38.3129 82.0757 38.3264 81.8196 38.6521Z" fill="#DF1313"/>
<path d="M80.0382 39.0048C79.6861 39.6969 80.337 40.1582 80.8918 39.6019C81.2226 39.2626 81.2439 39.1541 81.0092 38.8691C80.7424 38.5299 80.2516 38.5978 80.0382 39.0048Z" fill="#DF1313"/>
<path d="M80.9881 40.3076C80.5719 40.9589 81.0094 41.6781 81.6176 41.366C82.2151 41.0403 82.0977 40.1448 81.4575 40.1448C81.2548 40.1448 81.0521 40.2262 80.9881 40.3076Z" fill="#DF1313"/>
<path d="M82.6204 40.4297C82.4817 40.701 82.6738 41.2302 82.9939 41.4338C83.4207 41.7051 83.5167 41.6916 83.6554 41.2981C83.8368 40.796 83.5274 40.2804 83.0472 40.2804C82.8551 40.2804 82.6524 40.3483 82.6204 40.4297Z" fill="#DF1313"/>
<path d="M79.3763 40.7689C78.7681 41.4202 79.0989 42.1122 79.8031 41.6645C80.1979 41.4202 80.3259 40.9453 80.1125 40.6061C79.9205 40.3347 79.7497 40.3618 79.3763 40.7689Z" fill="#DF1313"/>
<path d="M82.0656 41.7866C81.5855 42.0037 81.6388 42.7364 82.151 43.0078C82.4391 43.157 82.5031 43.1434 82.6951 42.8856C82.8979 42.6414 82.9085 42.56 82.7912 42.2072C82.6418 41.7594 82.4071 41.6237 82.0656 41.7866Z" fill="#DF1313"/>
<path d="M80.1767 42.1665C79.9419 42.4921 79.9953 43.0485 80.2514 43.1027C80.8169 43.2384 81.297 42.7092 81.0729 42.18C80.9236 41.8273 80.4221 41.8273 80.1767 42.1665Z" fill="#DF1313"/>
<path d="M81.031 43.659C80.8069 43.9711 80.8816 44.4189 81.1911 44.636C81.6819 44.9616 82.1834 44.3103 81.8739 43.7269C81.6712 43.3334 81.2871 43.3062 81.031 43.659Z" fill="#DF1313"/>
<path d="M82.7375 43.8355C82.5988 44.0933 82.5881 44.1747 82.7162 44.419C82.9509 44.8532 83.3777 44.9889 83.6338 44.6903C83.9112 44.3783 83.9005 44.2697 83.5804 43.8762C83.2604 43.4556 82.9509 43.442 82.7375 43.8355Z" fill="#DF1313"/>
<path d="M79.3761 44.0254C79.1094 44.4461 79.0881 44.7988 79.3121 45.0295C79.5149 45.2466 79.8456 45.0974 80.1124 44.6632C80.3685 44.2425 80.3791 44.1611 80.1551 43.8897C79.9096 43.5776 79.6216 43.6319 79.3761 44.0254Z" fill="#DF1313"/>
<path d="M81.9801 45.2195C81.7561 45.518 81.7241 45.613 81.8201 45.8436C82.0228 46.3185 82.4069 46.4678 82.727 46.1964C83.0578 45.925 83.0685 45.6944 82.759 45.3416C82.3429 44.8802 82.2576 44.8667 81.9801 45.2195Z" fill="#DF1313"/>
<path d="M80.1874 45.4095C79.8246 45.9115 80.038 46.3864 80.6142 46.3864C81.1157 46.3864 81.3504 45.8029 81.009 45.3823C80.7849 45.0974 80.4008 45.1109 80.1874 45.4095Z" fill="#DF1313"/>
<path d="M81.0841 47.0106C80.8174 47.4448 80.9347 47.8248 81.3615 47.9604C81.895 48.1368 82.2792 47.567 82.0017 47.0106C81.7563 46.5493 81.3722 46.5493 81.0841 47.0106Z" fill="#DF1313"/>
<path d="M82.7694 47.0106C82.652 47.187 82.652 47.282 82.78 47.567C82.9934 48.0554 83.2282 48.2047 83.5589 48.0961C83.9217 47.9876 83.943 47.4991 83.6016 47.092C83.3135 46.7393 82.9721 46.7121 82.7694 47.0106Z" fill="#DF1313"/>
<path d="M79.4516 47.3363C78.9607 47.974 79.1741 48.4489 79.857 48.2318C80.2411 48.1097 80.3798 47.6619 80.1664 47.2549C79.953 46.8342 79.8463 46.8478 79.4516 47.3363Z" fill="#DF1313"/>
<path d="M82.0442 48.5438C81.9162 48.7067 81.8628 48.9238 81.8948 49.073C81.9588 49.4258 82.375 49.6972 82.6631 49.5751C82.9725 49.453 82.9725 48.7881 82.6524 48.5031C82.343 48.2318 82.2896 48.2318 82.0442 48.5438Z" fill="#DF1313"/>
<path d="M80.2301 48.7745C79.942 49.2359 79.9527 49.3173 80.2728 49.5886C80.5609 49.8329 80.849 49.765 81.1264 49.3715C81.2864 49.1409 81.2971 49.0459 81.2011 48.7609C81.0304 48.286 80.5289 48.2996 80.2301 48.7745Z" fill="#DF1313"/>
<path d="M81.3617 49.9279C80.9029 50.2671 80.9242 51.0134 81.3937 51.2033C81.7138 51.3255 82.1406 50.932 82.1406 50.5249C82.1406 50.1178 81.6498 49.7379 81.3617 49.9279Z" fill="#DF1313"/>
<path d="M79.5687 50.5792C79.2273 51.027 79.1846 51.2848 79.4194 51.5426C79.5474 51.6783 79.6434 51.6783 79.8995 51.5426C80.305 51.3255 80.4757 50.9592 80.337 50.6064C80.1449 50.1722 79.9102 50.1586 79.5687 50.5792Z" fill="#DF1313"/>
<path d="M82.7911 50.43C82.6203 50.837 83.0151 51.4069 83.4739 51.4069C83.9221 51.4069 84.0394 51.0813 83.762 50.5928C83.4953 50.145 82.9511 50.0636 82.7911 50.43Z" fill="#DF1313"/>
<path d="M82.1613 51.6918C81.6812 51.9225 81.9692 52.8994 82.5134 52.8994C82.7481 52.8994 83.1003 52.5873 83.1003 52.3838C83.1003 52.1667 82.7802 51.7053 82.5881 51.6511C82.4814 51.6104 82.2893 51.6375 82.1613 51.6918Z" fill="#DF1313"/>
<path d="M80.2515 52.0311C80.0594 52.411 80.1234 52.6824 80.4649 52.9538C80.7103 53.1573 81.2224 52.791 81.2651 52.3839C81.3505 51.6512 80.5822 51.3934 80.2515 52.0311Z" fill="#DF1313"/>
<path d="M81.2656 53.4558C81.0309 53.6186 81.0202 54.0257 81.2229 54.2428C81.4363 54.4735 82.0445 54.3785 82.1832 54.08C82.4393 53.5644 81.7457 53.0894 81.2656 53.4558Z" fill="#DF1313"/>
<path d="M79.7072 53.6594C79.1524 54.1479 79.195 54.7992 79.7926 54.7992C80.3367 54.7992 80.6675 53.8765 80.23 53.578C79.9633 53.4016 79.9953 53.4016 79.7072 53.6594Z" fill="#DF1313"/>
<path d="M82.9082 53.6051C82.7161 53.8493 82.7481 54.0393 83.0789 54.4328C83.4097 54.8263 83.6231 54.8941 83.8258 54.6363C84.0285 54.3785 83.9752 54.0257 83.6764 53.7272C83.3563 53.4015 83.1002 53.3608 82.9082 53.6051Z" fill="#DF1313"/>
<path d="M78.4379 31.5962C78.0218 32.0711 77.3709 32.3154 76.8588 32.1933C76.3786 32.0847 76.3786 32.234 76.8695 32.4918C77.4136 32.7767 78.0005 32.6275 78.4593 32.0711C78.662 31.8269 78.8327 31.5284 78.8327 31.4063C78.8327 31.1349 78.8434 31.1213 78.4379 31.5962Z" fill="#DF1313"/>
<path d="M90.4945 33.9843C90.3878 34.3371 90.5585 40.9316 90.6865 41.5829C90.8359 42.3021 91.2627 42.8313 92.6925 44.0118C94.1223 45.1923 94.5917 45.5179 94.6984 45.3822C94.8265 45.2194 94.7838 38.1093 94.6451 37.6751C94.4744 37.1323 91.092 33.7672 90.7186 33.7672C90.6332 33.7672 90.5372 33.8622 90.4945 33.9843ZM92.1377 35.7754C92.5965 36.2096 93.0446 36.6845 93.13 36.8202C93.322 37.1323 93.354 37.1459 92.095 36.1282C91.1133 35.3141 91.1027 35.3141 91.1027 36.6303C91.1027 37.1459 91.06 37.4173 90.996 37.363C90.8786 37.268 90.8466 35.2191 90.964 35.0834C91.1133 34.8934 91.3267 35.0156 92.1377 35.7754Z" fill="#DF1313"/>
<path d="M93.1304 54.962C93.1304 56.6988 93.1837 58.9919 93.2371 60.0639C93.3544 62.547 93.4611 62.8455 94.4108 63.4426C95.5098 64.1481 95.5311 64.121 95.5631 62.1942C95.5738 61.2987 95.5524 58.9648 95.5098 56.9973L95.4244 53.4287L95.051 53.0352C94.5922 52.5467 93.5358 51.814 93.3011 51.814C93.1517 51.814 93.1304 52.1532 93.1304 54.962ZM94.3147 53.0352L94.5708 53.3066L94.2614 53.1709C93.7172 52.9266 93.6639 53.0352 93.6639 54.4192C93.6639 55.2876 93.6319 55.6133 93.5572 55.4776C93.4398 55.2469 93.4078 52.9945 93.5252 52.8588C93.6639 52.6688 94.0693 52.7638 94.3147 53.0352Z" fill="#DF1313"/>
<path d="M42.3413 55.0977C40.3034 55.3148 38.0627 56.0611 36.9637 56.8888C36.4622 57.2687 35.822 58.0964 35.5766 58.707C35.2565 59.494 35.1498 59.4805 41.7011 59.5212L47.6443 59.5619L47.9644 58.3678C48.1458 57.7165 48.4445 56.726 48.6473 56.1968C48.8393 55.654 48.9674 55.1791 48.9353 55.1384C48.8393 55.0027 43.4297 54.9756 42.3413 55.0977ZM48.1138 55.7083C48.1991 55.8169 48.1244 56.2239 47.8257 57.3094C47.3989 58.8563 47.2495 58.9513 47.2495 57.6758C47.2495 57.2959 47.2068 56.9702 47.1641 56.9702C47.1108 56.9702 46.3319 57.1873 45.4356 57.4451C44.5287 57.7029 43.7818 57.8929 43.7604 57.8658C43.7391 57.8386 44.4113 57.4858 45.2435 57.0516C46.0865 56.631 46.844 56.2239 46.9294 56.1425C47.0468 56.034 46.4492 56.0204 44.8381 56.0747L42.5867 56.1561L42.0106 56.8888C41.221 57.8929 40.9009 57.9608 39.8872 57.3637C39.1617 56.9431 39.0977 56.9295 38.6282 57.0788C38.3508 57.1738 37.6999 57.513 37.1877 57.8522C36.1421 58.5307 36.0034 58.4085 36.9103 57.6215C38.0734 56.6039 39.8552 55.9797 42.6081 55.6269C43.9632 55.4505 47.9537 55.5048 48.1138 55.7083ZM44.422 58.6799C45.1262 58.7885 45.7237 58.9106 45.745 58.9513C45.7664 58.9784 43.9418 58.992 41.6905 58.9784C39.4391 58.9784 37.7639 58.9377 37.9667 58.9106C38.8736 58.7613 41.7118 58.4899 42.3947 58.4764C42.8108 58.4764 43.7284 58.5578 44.422 58.6799Z" fill="#DF1313"/>
<path d="M49.2877 56.5766C48.7862 57.9878 48.4875 59.0869 48.5622 59.3311C48.6262 59.5482 50.152 59.8603 51.1976 59.8603C52.35 59.8739 53.1182 59.399 53.9078 58.2049C54.3559 57.5265 54.484 57.0515 54.2919 56.7666C54.0678 56.4274 52.7341 56.0203 50.7175 55.6811C50.4294 55.6404 50.0773 55.559 49.9386 55.5183C49.7252 55.4504 49.6612 55.5725 49.2877 56.5766ZM51.8378 56.6173L52.5314 56.7937L51.8912 56.9566C51.0696 57.1737 50.3974 57.4179 49.8746 57.7029C49.6398 57.825 49.4371 57.8928 49.4158 57.8657C49.3624 57.7978 49.6718 56.848 49.8212 56.6038C49.9706 56.3731 50.9095 56.3867 51.8378 56.6173Z" fill="#DF1313"/>
<path d="M62.177 66.5227C61.9636 67.1061 62.5611 68.0831 62.9986 67.866C63.5 67.6217 62.9986 66.197 62.401 66.197C62.337 66.197 62.241 66.3463 62.177 66.5227Z" fill="#DF1313"/>
<path d="M58.6875 67.3097C58.4527 67.6082 58.5488 68.056 58.9329 68.4902C59.5837 69.2093 60.2239 68.9787 60.0852 68.056C59.9785 67.3368 59.0502 66.8483 58.6875 67.3097Z" fill="#DF1313"/>
<path d="M61.7818 68.3681C60.6828 68.6531 59.2957 70.0914 58.7408 71.5161C57.7379 74.1078 57.8126 77.2422 58.9436 79.6575C59.4451 80.7158 60.4374 81.8421 61.1736 82.1948C62.0485 82.6155 63.2329 82.5883 63.9798 82.1406C64.6093 81.7742 65.7723 80.3766 66.0711 79.6575C66.2098 79.3047 66.1031 79.3996 65.5269 80.1459C64.684 81.2179 63.9904 81.6928 63.1368 81.7742C62.1872 81.8692 61.515 81.5164 60.7361 80.5259C59.7011 79.1961 59.1996 77.5407 59.1996 75.424C59.2103 72.6152 60.1813 70.2542 61.7177 69.3586C62.2406 69.0601 62.422 69.0194 63.1368 69.0737C64.3212 69.1687 64.9614 69.6572 66.0177 71.2854L66.3592 71.8282L66.0711 71.1226C65.783 70.4577 65.783 70.4034 65.9537 70.1592C66.1884 69.8336 66.1778 69.4808 65.9217 68.938C65.5909 68.2596 65.2815 68.4088 65.2815 69.2501C65.2815 69.5622 65.2708 69.5622 64.3532 68.9651C63.3396 68.3138 62.6247 68.151 61.7818 68.3681Z" fill="#DF1313"/>
<path d="M56.511 70.9598C56.2443 71.1498 56.2656 71.7875 56.5644 72.1403C57.2046 72.9002 58.3036 72.5202 58.0795 71.6111C57.9301 71.0005 56.9698 70.607 56.511 70.9598Z" fill="#DF1313"/>
<path d="M67.2232 73.28C67.0632 73.4836 67.0525 74.257 67.2019 74.6234C67.3619 74.9762 67.7247 74.949 67.8314 74.5827C67.9274 74.2434 67.8207 73.6193 67.618 73.3072C67.4686 73.0765 67.3939 73.0629 67.2232 73.28Z" fill="#DF1313"/>
<path d="M56.0312 76.5772C55.6685 77.0385 55.6685 77.0385 55.8392 77.4592C56.0419 77.9612 56.6288 78.314 57.0129 78.1919C57.3543 78.0833 57.7064 77.527 57.7064 77.0928C57.7064 76.5908 57.2583 76.1023 56.7888 76.1023C56.49 76.1023 56.3193 76.2108 56.0312 76.5772Z" fill="#DF1313"/>
<path d="M66.9569 78.7076C66.7115 79.1961 66.6582 79.6982 66.8182 79.9695C67.117 80.4852 67.5651 79.766 67.5011 78.8976C67.4584 78.3684 67.1703 78.2734 66.9569 78.7076Z" fill="#DF1313"/>
<path d="M58.3994 80.8107C58.0793 80.9057 57.5991 81.5435 57.5991 81.8555C57.6098 82.7918 58.6021 83.0089 59.1463 82.1812C59.4664 81.7063 59.477 81.5163 59.2316 81.15C59.0182 80.8379 58.7195 80.7158 58.3994 80.8107Z" fill="#DF1313"/>
<path d="M64.8225 82.317C64.6411 82.5748 64.4277 83.199 64.4277 83.5111C64.4277 83.8096 64.8332 84.2438 65.0146 84.1624C65.3987 83.9724 65.6121 82.8869 65.388 82.3306C65.2493 82.0049 65.0466 82.0049 64.8225 82.317Z" fill="#DF1313"/>
<path d="M61.2373 83.511C60.9705 83.9452 60.9492 84.3387 61.1839 84.7594C61.6427 85.6007 62.603 84.5287 62.3043 83.511C62.1442 83.009 61.5467 83.009 61.2373 83.511Z" fill="#DF1313"/>
<path d="M82.642 70.1456C83.0474 71.014 83.1221 71.0683 85 71.5568C85.1921 71.6111 85.3414 71.5975 85.3414 71.5161C85.3414 71.2854 84.4025 70.2813 84.0931 70.1863C83.933 70.1456 83.5276 70.0235 83.1968 69.9149C82.4072 69.6707 82.4179 69.6571 82.642 70.1456Z" fill="#DF1313"/>
<path d="M86.5146 71.1633C86.5146 71.2583 86.6427 71.5296 86.8134 71.7603C87.0802 72.1403 87.2615 72.2081 89.2141 72.7237C90.3772 73.0358 91.3588 73.2393 91.3908 73.1986C91.4868 73.0901 91.2094 72.7237 90.8787 72.493C90.6012 72.3166 88.0938 71.4211 86.9735 71.109C86.6 71.0005 86.5146 71.014 86.5146 71.1633Z" fill="#DF1313"/>
<path d="M91.5293 72.7779C91.5293 72.8051 91.6786 73.1036 91.8494 73.4157C92.5002 74.5962 92.8737 76.6858 92.703 78.2733C92.5322 80.0237 92.0628 81.2721 91.1131 82.534L90.5156 83.321L90.9424 83.2531C91.5079 83.1446 92.1375 82.2762 92.6816 80.865L93.0764 79.8338V77.3914C93.0764 75.0304 93.0657 74.9218 92.7883 74.1755C92.4576 73.2664 92.0628 72.7101 91.7427 72.7101C91.6253 72.7101 91.5293 72.7372 91.5293 72.7779Z" fill="#DF1313"/>
<path d="M92.6184 73.2121C92.6611 73.4835 93.3119 74.0127 93.4293 73.8634C93.5147 73.7549 92.8638 72.9814 92.6931 72.9814C92.6291 72.9814 92.5971 73.09 92.6184 73.2121Z" fill="#DF1313"/>
<path d="M84.061 75.9531C83.7729 76.6451 84.1037 76.8758 85.7468 77.1201C86.355 77.2015 86.3977 77.1336 86.2056 76.4688C86.1203 76.1838 85.9922 76.116 85.3734 75.9803C84.9786 75.8853 84.5411 75.7767 84.4131 75.7496C84.253 75.6953 84.1463 75.7496 84.061 75.9531Z" fill="#DF1313"/>
<path d="M87.4324 76.6316C87.3897 76.713 87.379 76.903 87.4217 77.0387C87.4964 77.3643 87.9125 77.4865 90.3026 77.8664C92.5006 78.2192 92.5113 78.2192 92.4686 77.8257C92.4259 77.4593 92.0525 77.3236 89.9291 76.903C87.8805 76.4959 87.5177 76.4552 87.4324 76.6316Z" fill="#DF1313"/>
<path d="M93.5783 78.0291C93.5997 78.2869 93.7064 78.3683 94.1225 78.4633C94.6773 78.5854 94.8907 78.4769 94.784 78.1105C94.72 77.8934 94.2932 77.7306 93.8024 77.7306C93.589 77.7306 93.5463 77.7848 93.5783 78.0291Z" fill="#DF1313"/>
<path d="M86.0774 81.8013C85.6932 82.3305 85.5759 82.5612 85.6826 82.629C85.7573 82.6833 86.8349 82.8054 88.0833 82.9004L90.3347 83.0768L90.8361 82.5612C91.1136 82.2762 91.295 81.9913 91.2416 81.9234C91.1456 81.8013 88.7448 81.3264 87.4431 81.1771L86.6109 81.0821L86.0774 81.8013Z" fill="#DF1313"/>
<path d="M92.3618 82.2355C92.1697 82.4526 91.8496 83.036 91.8496 83.1989C91.8496 83.2667 92.095 83.2938 92.3938 83.2667C92.8206 83.2124 93.002 83.1039 93.3007 82.7375C93.5034 82.4933 93.6635 82.2355 93.6635 82.1812C93.6635 82.0048 92.5432 82.0591 92.3618 82.2355Z" fill="#DF1313"/>
<path d="M36.0777 69.9963C35.7789 70.1185 35.7256 70.2134 35.6616 70.7562C35.5762 71.4618 35.6722 72.5609 35.843 72.778C35.8963 72.8458 36.5685 72.9408 37.3154 72.9544C39.0119 73.0222 39.0333 73.0086 39.0333 71.5025C39.0333 70.0099 39.0013 69.9692 37.5822 69.9149C36.942 69.8878 36.2698 69.9285 36.0777 69.9963ZM37.7635 70.9869C37.5075 71.1497 37.0913 71.5161 36.8353 71.801L36.3658 72.3302V71.5025V70.6748H37.3047H38.233L37.7635 70.9869Z" fill="#DF1313"/>
<path d="M3.68406 71.516C3.52401 71.6653 3.50267 71.8552 3.52401 72.6422L3.55602 73.5921L4.39894 73.6328C5.00713 73.6599 5.27387 73.6192 5.32722 73.4971C5.45526 73.2528 5.44459 71.8824 5.32722 71.6381C5.18852 71.3532 3.94013 71.2718 3.68406 71.516ZM5.16718 71.9502C5.19919 72.0588 5.20986 72.303 5.18852 72.493L5.15651 72.8322L4.70837 72.2894L4.26023 71.7603H4.68703C4.95378 71.7603 5.13517 71.8281 5.16718 71.9502Z" fill="#DF1313"/>
<path d="M100.94 78.5448C100.844 78.8569 100.407 79.4403 99.9268 79.8881C99.8307 79.9967 99.4466 80.2138 99.0732 80.3902L98.4116 80.7022H99.532C100.812 80.7158 101.079 80.5801 101.186 79.8474C101.228 79.6032 101.207 79.1282 101.154 78.8026C101.058 78.2327 101.058 78.2191 100.94 78.5448ZM100.727 80.3359C100.599 80.5123 100.492 80.5665 100.492 80.4851C100.492 80.2816 100.823 79.861 100.898 79.9695C100.93 80.0102 100.855 80.173 100.727 80.3359Z" fill="#DF1313"/>
</svg>
