<svg width="48" height="47" viewBox="0 0 48 47" fill="none" xmlns="http://www.w3.org/2000/svg">
<path d="M17.75 17.5H29.5V29H17.75V17.5Z" stroke="white" stroke-width="1.5"/>
<path d="M11.875 40.5C15.1197 40.5 17.75 37.9257 17.75 34.75V29H11.875C8.63034 29 6 31.5743 6 34.75C6 37.9257 8.63034 40.5 11.875 40.5Z" stroke="white" stroke-width="1.5"/>
<path d="M41.25 34.75C41.25 31.5743 38.6198 29 35.375 29H29.5V34.75C29.5 37.9257 32.1302 40.5 35.375 40.5C38.6198 40.5 41.25 37.9257 41.25 34.75Z" stroke="white" stroke-width="1.5"/>
<path d="M35.375 6C32.1302 6 29.5 8.57437 29.5 11.75V17.5H35.375C38.6198 17.5 41.25 14.9256 41.25 11.75C41.25 8.57437 38.6198 6 35.375 6Z" stroke="white" stroke-width="1.5"/>
<path d="M6 11.75C6 14.9256 8.63034 17.5 11.875 17.5H17.75V11.75C17.75 8.57437 15.1197 6 11.875 6C8.63034 6 6 8.57437 6 11.75Z" stroke="white" stroke-width="1.5"/>
</svg>
