<svg width="87" height="83" viewBox="0 0 87 83" fill="none" xmlns="http://www.w3.org/2000/svg">
<path d="M87 62.25H64.7402C64.457 63.0335 64.0605 63.736 63.5508 64.3574C63.041 64.9788 62.4604 65.5192 61.8091 65.9785C61.1577 66.4378 60.4214 66.7891 59.6001 67.0322C58.7788 67.2754 57.9434 67.4105 57.0938 67.4375C56.2441 67.4375 55.4229 67.3159 54.6299 67.0728C53.8369 66.8296 53.1006 66.4784 52.4209 66.019C51.7412 65.5597 51.1465 65.0194 50.6367 64.3979C50.127 63.7765 49.7305 63.0605 49.4473 62.25H26.6777C26.3945 63.0335 25.998 63.736 25.4883 64.3574C24.9785 64.9788 24.3979 65.5192 23.7466 65.9785C23.0952 66.4378 22.3589 66.7891 21.5376 67.0322C20.7163 67.2754 19.8809 67.4105 19.0312 67.4375C18.1816 67.4375 17.3604 67.3159 16.5674 67.0728C15.7744 66.8296 15.0381 66.4784 14.3584 66.019C13.6787 65.5597 13.084 65.0194 12.5742 64.3979C12.0645 63.7765 11.668 63.0605 11.3848 62.25H0V15.5625H59.8125V20.75H75.1055L87 43.4858V62.25ZM5.4375 57.0625H11.3848C11.668 56.306 12.0645 55.6035 12.5742 54.9551C13.084 54.3066 13.6646 53.7663 14.3159 53.334C14.9673 52.9017 15.7036 52.5505 16.5249 52.2803C17.3462 52.0101 18.1816 51.875 19.0312 51.875C19.8809 51.875 20.7021 51.9966 21.4951 52.2397C22.2881 52.4829 23.0244 52.8341 23.7041 53.2935C24.3838 53.7528 24.9785 54.3066 25.4883 54.9551C25.998 55.6035 26.3945 56.306 26.6777 57.0625H49.4473C49.8438 55.9548 50.4668 54.9956 51.3164 54.1851C52.166 53.3745 53.1855 52.7666 54.375 52.3613V20.75H5.4375V57.0625ZM19.0312 62.25C19.7676 62.25 20.4048 61.9933 20.9429 61.48C21.481 60.9666 21.75 60.3587 21.75 59.6562C21.75 58.9538 21.481 58.3459 20.9429 57.8325C20.4048 57.3192 19.7676 57.0625 19.0312 57.0625C18.2949 57.0625 17.6577 57.3192 17.1196 57.8325C16.5815 58.3459 16.3125 58.9538 16.3125 59.6562C16.3125 60.3587 16.5815 60.9666 17.1196 61.48C17.6577 61.9933 18.2949 62.25 19.0312 62.25ZM57.0938 62.25C57.8301 62.25 58.4673 61.9933 59.0054 61.48C59.5435 60.9666 59.8125 60.3587 59.8125 59.6562C59.8125 58.9538 59.5435 58.3459 59.0054 57.8325C58.4673 57.3192 57.8301 57.0625 57.0938 57.0625C56.3574 57.0625 55.7202 57.3192 55.1821 57.8325C54.644 58.3459 54.375 58.9538 54.375 59.6562C54.375 60.3587 54.644 60.9666 55.1821 61.48C55.7202 61.9933 56.3574 62.25 57.0938 62.25ZM81.5625 44.7017L71.707 25.9375H59.8125V52.3613C60.9736 52.7396 61.979 53.334 62.8286 54.1445C63.6782 54.9551 64.3154 55.9277 64.7402 57.0625H81.5625V44.7017Z" fill="#FFFDFD"/>
</svg>
