<svg width="74" height="57" viewBox="0 0 74 57" fill="none" xmlns="http://www.w3.org/2000/svg">
<path d="M53.9578 0.244136C53.7747 0.399746 53.2536 1.40715 52.9155 2.27531C52.4508 3.46289 52.4367 3.56937 52.4015 5.96091L52.3663 8.15591H51.9648C51.7395 8.15591 51.3099 8.08221 51.0001 7.9839C50.5071 7.82828 50.331 7.82009 49.4437 7.86105C48.9015 7.89381 48.2677 7.96752 48.0493 8.04121C47.6691 8.14771 47.5986 8.14771 46.9648 7.9839C46.2817 7.80371 44.9296 7.74638 44.1057 7.86105C43.9155 7.88562 43.4226 7.94295 43.0141 7.9839C42.6057 8.03301 41.7747 8.13131 41.162 8.19681L40.0493 8.32791L39.7324 7.99209C39.1339 7.35325 38.2817 7.04202 37.7888 7.27954C37.5071 7.41877 37.3662 7.67267 37.2324 8.26241C37.1902 8.47531 37.1198 8.64731 37.0846 8.64731C37.0493 8.64731 36.8381 8.48351 36.6198 8.28691C36.0705 7.79552 35.8029 7.65629 35.3451 7.60715C34.993 7.5662 34.9226 7.59077 34.7324 7.77095C34.5986 7.902 34.4789 8.14771 34.3944 8.44251C34.2958 8.81111 34.2465 8.89301 34.155 8.85211C33.8803 8.72921 33.0423 8.48351 32.8944 8.48351C32.6479 8.48351 32.331 8.86021 32.2043 9.30251C32.0846 9.71201 31.8944 9.92501 31.7043 9.84311C31.4648 9.73661 31.6479 8.57361 32.0634 7.49249C32.1972 7.1485 32.3099 6.76356 32.3099 6.6407C32.3099 6.08377 31.8099 5.61692 31.2184 5.61692C30.7958 5.61692 30.6832 5.75616 30.1761 6.90279L29.7747 7.82009L29.7254 9.33531L29.6832 10.8505L28.2677 11.4729C26.4155 12.3001 24.6127 13.1437 24.5423 13.2256C24.5071 13.2666 24.4789 13.414 24.4789 13.5532C24.4719 13.8399 24.7536 14.233 25.3662 14.79C25.6479 15.0439 25.6831 15.1094 25.655 15.3387C25.5564 16.125 25.5493 16.1577 25.3522 16.256C25.1831 16.3543 23.8803 16.469 21.155 16.6328C17.3029 16.8621 14.3662 17.3126 11.817 18.0742C8.92963 18.9342 8.05639 19.3765 7.25357 20.3921C6.61272 21.2029 6.28878 21.9974 6.01413 23.4307C5.59864 25.5683 4.7747 31.2933 4.7747 32.0058C4.7747 32.4809 4.69019 32.6529 3.93667 33.6357C2.87329 35.0362 2.2747 36.3548 1.89441 38.1239C1.79582 38.599 1.68315 39.033 1.65498 39.0904C1.62681 39.1477 1.38033 39.3279 1.10568 39.4917C0.831029 39.6637 0.556389 39.8848 0.500049 39.9831C0.359199 40.237 0.246529 42.8251 0.288779 44.7662C0.316949 46.2978 0.401459 46.7318 0.788779 47.5017C1.14793 48.2143 1.98596 48.9514 2.69723 49.1807C2.85216 49.2299 3.66202 49.3282 4.49301 49.3937C5.32399 49.4674 6.07047 49.5411 6.15498 49.5575C6.26061 49.582 6.39441 49.8196 6.63385 50.3929C7.29582 51.9736 8.23244 53.4151 9.1409 54.2259C9.6691 54.7009 10.662 55.3562 11.1972 55.5773C11.4437 55.6838 11.6691 55.7902 11.6972 55.823C11.7677 55.8967 10.9367 55.9622 9.2113 56.0278C3.21836 56.2735 2.82399 56.3881 7.38033 56.5601C17.4648 56.9451 53.0846 56.9942 66.7465 56.642C69.817 56.5601 72.0634 56.4455 72.2536 56.3472C72.3663 56.298 72.831 55.479 72.9719 55.0859C73.2958 54.1768 73.4437 51.6214 73.3029 49.4592C73.1339 46.8711 72.7958 45.4378 72.1691 44.6515L71.8663 44.2748H70.9437H70.0141L69.7536 43.9062C69.4226 43.4558 69.1479 43.2838 68.6479 43.2182C68.2817 43.1691 68.2536 43.1527 68.1198 42.8415C67.9508 42.4729 67.6339 42.219 67.2958 42.2027C67.1691 42.1945 66.0986 42.219 64.9155 42.26L62.7677 42.3255L62.6057 41.9897C62.2958 41.3591 62.0986 41.2935 59.7817 41.1215C58.9155 41.056 58.1972 40.9905 58.1761 40.9741C58.162 40.9495 58.9508 40.9086 59.9296 40.8758L61.7184 40.8185L62.6057 41.0724C63.6409 41.3673 63.986 41.3836 64.3874 41.1625C64.8874 40.884 65.1198 40.5237 65.2043 39.934C65.3663 38.7628 64.6127 20.1382 64.2747 17.0423C64.1761 16.0922 64.0141 15.1503 63.8451 14.5606C63.7113 14.0774 63.6339 13.9546 62.6691 12.8407C61.1832 11.1044 60.0423 10.1133 58.4226 9.15511C57.5071 8.61451 56.8099 8.32791 55.7606 8.07401C55.3522 7.97571 55.0071 7.87743 54.986 7.85286C54.9648 7.83648 54.9437 6.99288 54.9296 5.99367L54.9085 4.17544L55.4015 3.05338C55.6691 2.43912 55.9155 1.80028 55.9437 1.63647C56.0071 1.24334 55.7888 0.719167 55.4367 0.399747C55.2113 0.203177 55.0986 0.170416 54.6409 0.145846C54.2395 0.129466 54.0705 0.154036 53.9578 0.244136ZM55.0353 0.948496C55.162 1.03859 55.2817 1.1942 55.3099 1.30067C55.3522 1.52181 55.0775 2.34083 54.6268 3.30728L54.3522 3.91336V9.19601C54.3522 12.1118 54.3381 14.4705 54.324 14.4542C54.2747 14.3968 54.1479 11.4975 54.0353 7.77095L53.9226 4.31468L54.1057 3.64308C54.3099 2.88958 54.2888 2.69301 54.0705 3.26633C53.8663 3.80688 53.8099 5.07637 53.7536 10.1625C53.7113 14.7982 53.7254 14.6262 53.324 14.6262C53.1902 14.6262 53.155 14.5688 53.1127 14.233C53.0846 14.0201 53.0564 11.6203 53.0564 8.89301C53.0493 4.91256 53.0705 3.84784 53.1479 3.48747C53.2677 2.94691 53.9155 1.40715 54.1761 1.04678C54.4015 0.735547 54.6902 0.702786 55.0353 0.948496ZM31.6691 6.40319L31.8803 6.60794L31.5212 7.42696C31.162 8.23781 31.162 8.26241 31.1127 9.17971C31.0705 10.1297 31.0282 10.3017 30.8874 10.1379C30.8381 10.0806 30.824 9.70381 30.8451 8.96671C30.8874 7.68086 30.7958 7.82009 30.6902 9.20421C30.5986 10.3099 30.5775 10.4491 30.4437 10.4491C30.2958 10.4491 30.2465 10.1543 30.2465 9.29431C30.2536 8.41801 30.3733 7.82828 30.7043 7.05021C30.9437 6.4769 31.155 6.19024 31.331 6.19024C31.4015 6.19024 31.5493 6.28852 31.6691 6.40319ZM38.824 7.902C39.5353 8.27871 39.4437 8.36061 38.3944 8.31971C37.9648 8.30331 37.8803 8.32791 37.817 8.45071C37.7184 8.65551 37.6339 8.54081 37.6902 8.29511C37.7536 7.97571 38.0071 7.66448 38.1972 7.66448C38.2888 7.66448 38.5775 7.77095 38.824 7.902ZM35.9648 8.29511C36.1761 8.42621 36.331 8.55721 36.317 8.60631C36.3029 8.65551 36.0071 8.68821 35.6409 8.68821C35.2184 8.68821 34.9648 8.72101 34.9085 8.78651C34.6479 9.08961 34.6339 8.72101 34.8874 8.28691C35.0564 8.00031 35.0916 7.97571 35.331 8.02481C35.4719 8.04941 35.7536 8.17231 35.9648 8.29511ZM50.7958 8.36061L51.0071 8.46711L50.7958 8.48351C50.6832 8.48351 50.4578 8.54901 50.3029 8.61451C50.1479 8.68011 49.655 8.77021 49.2113 8.81111C48.6127 8.86021 48.2395 8.94211 47.7677 9.13051C47.4226 9.26981 47.0634 9.38441 46.9719 9.38441C46.7606 9.38441 46.6832 9.14691 46.8522 9.00771C46.993 8.88481 47.7184 8.55721 48.2606 8.36881C48.7324 8.20501 50.493 8.19681 50.7958 8.36061ZM33.2536 8.89301C33.3522 8.93401 33.4367 8.99951 33.4367 9.03221C33.4367 9.07321 33.2324 9.17151 32.9789 9.26981C32.4789 9.44991 32.4155 9.39261 32.7113 9.04041C32.9155 8.78651 32.986 8.77021 33.2536 8.89301ZM45.7395 9.05681C45.993 9.23701 46.162 9.58101 46.3944 10.4C46.4789 10.7112 46.6057 11.0225 46.6691 11.0962C46.7324 11.1699 47.3663 11.6449 48.0846 12.1527C49.4719 13.1355 49.7606 13.3567 49.6972 13.4304C49.6761 13.455 49.2184 13.1765 48.6761 12.8161C48.1409 12.4476 47.4226 11.9725 47.0846 11.7432C46.4367 11.3091 46.0212 11.1863 45.7677 11.3419C45.486 11.5221 45.4578 11.6859 45.0916 15.3633C44.9578 16.7392 44.817 18.0251 44.7817 18.2299L44.7184 18.5984L44.7113 18.2053C44.6972 17.5173 45.1972 12.382 45.3381 11.7514C45.3803 11.5958 45.486 11.3746 45.5846 11.2682C45.6832 11.1617 45.7606 11.0552 45.7606 11.0225C45.7606 10.9488 44.3381 10.1707 43.8592 9.98231C43.3592 9.79391 41.9437 9.79391 40.162 9.98231C39.4648 10.0642 38.3592 10.1789 37.6972 10.2444C37.0423 10.3181 36.1832 10.4082 35.7958 10.4491C35.4085 10.4901 34.8522 10.5474 34.5634 10.572C34.2747 10.6048 33.9578 10.6375 33.8592 10.6539C33.7606 10.6703 33.4437 10.703 33.155 10.7358C32.7254 10.7768 32.0916 11.0061 29.817 11.9316C28.2747 12.5622 27.0001 13.0618 26.986 13.0454C26.9578 13.0209 27.5282 12.7424 31.9226 10.6457L33.7536 9.77751L38.2606 9.37621C43.8874 8.88481 43.3663 8.92581 44.5282 8.90941C45.3944 8.89301 45.5423 8.90941 45.7395 9.05681ZM52.3874 9.13051L52.5564 9.28611L52.5775 12.7997C52.5916 14.7244 52.5775 16.4198 52.5564 16.5672C52.4789 17.0505 52.4015 17.0832 51.3733 17.0832C50.8592 17.0832 50.4085 17.0505 50.3592 17.0177C50.1479 16.8621 50.1268 16.4444 50.1268 12.9472V9.40081L50.3451 9.18791C50.5493 8.98311 50.5986 8.97491 51.3944 8.97491C52.1057 8.97491 52.2465 8.99951 52.3874 9.13051ZM57.331 9.30251C57.993 9.67931 58.0494 9.81031 57.4648 9.60561C57.0353 9.45811 56.9578 9.45811 56.7747 9.55641L56.5705 9.67111L56.5494 11.0225C56.5353 11.7678 56.5494 12.9635 56.5705 13.6843L56.6198 15.0029L57.0846 15.4452C58.5564 16.8457 63.0001 21.1374 63.1198 21.2848C63.2817 21.4732 63.3733 21.5469 59.655 18.41C58.0986 17.0914 56.7817 16.0185 56.7395 16.0185C56.6409 16.0185 56.6761 19.7696 56.8522 28.3038C56.9085 31.0312 56.9719 34.3155 57.0001 35.6095L57.0494 37.9683H56.5423H56.0423V36.6988V35.4293H56.2395C56.3522 35.4293 56.5001 35.3802 56.5775 35.3147C56.7043 35.2 56.7113 35.0935 56.7043 33.4064C56.6972 32.4235 56.6409 29.2048 56.5775 26.2563C56.5071 23.3078 56.4367 19.6468 56.4085 18.1152L56.3592 15.3469L56.0141 14.9865L55.6761 14.6262L55.6057 13.0045C55.5705 12.12 55.5494 10.9242 55.5634 10.3591C55.5916 9.01591 55.6339 8.94211 56.3592 8.99131C56.7395 9.02401 56.9719 9.09781 57.331 9.30251ZM58.5775 10.7358C60.4296 11.8333 62.7254 13.8809 63.1198 14.7982C63.2747 15.1503 63.5423 16.1741 63.493 16.2233C63.4789 16.2396 63.2817 15.9366 63.0494 15.5435C62.1268 13.9791 60.317 12.1691 58.2817 10.7686C56.9085 9.81851 57.0141 9.81031 58.5775 10.7358ZM42.662 10.9406C42.2043 11.0061 41.6761 11.0716 39.7747 11.3009C38.6761 11.4402 38.0353 11.5057 35.7254 11.7596C33.317 12.0135 33.5705 11.9561 30.331 13.07C27.9648 13.889 27.2606 14.1839 27.1339 14.4132C27.0846 14.5033 26.986 14.79 26.9155 15.0357C26.8451 15.2814 26.7817 15.437 26.7606 15.3797C26.7254 15.2486 26.9296 14.5443 27.0705 14.3149C27.1268 14.2167 27.2958 14.061 27.4367 13.9791C28.1268 13.5696 32.6268 11.907 33.5282 11.7268C33.8451 11.6613 35.2958 11.4975 36.7465 11.3501C40.8029 10.9651 41.7958 10.8832 42.486 10.8832H43.1198L42.662 10.9406ZM47.7677 13.0209C49.0775 13.7989 49.7043 14.2412 49.7043 14.3805C49.7043 14.4296 49.6902 14.4624 49.6691 14.4624C49.6479 14.4624 48.9226 14.0365 48.0564 13.5205C47.1832 13.0045 46.3944 12.5786 46.2958 12.5786C46.0705 12.5786 46.0986 12.4312 45.7958 15.1176C45.5493 17.2962 45.4296 18.148 45.4155 17.8859C45.4085 17.6893 45.7536 13.7826 45.831 13.1929C45.8733 12.9226 45.9015 12.6769 45.9015 12.6441C45.9015 12.5295 46.2113 12.251 46.3451 12.251C46.4155 12.251 47.0564 12.595 47.7677 13.0209ZM43.662 13.7662C43.6339 14.2003 43.0282 17.3781 42.9085 17.7057L42.817 17.9596L41.986 18.0497C41.5212 18.107 40.7043 18.1889 40.162 18.2299C39.6198 18.279 38.8099 18.3527 38.3662 18.3937C37.6268 18.4592 37.4085 18.4428 35.831 18.1889C34.8803 18.0333 33.8029 17.8613 33.4367 17.804L32.7677 17.6975L32.7888 17.3781C32.824 16.9686 33.3381 14.5443 33.4155 14.4542C33.486 14.3723 43.1409 13.3894 43.5423 13.4222C43.662 13.4386 43.6832 13.4877 43.662 13.7662ZM44.5423 14.5606C44.5212 14.6262 44.5001 14.6016 44.5001 14.5115C44.493 14.4214 44.5141 14.3723 44.5353 14.405C44.5564 14.4296 44.5634 14.5033 44.5423 14.5606ZM32.8733 14.6425C32.8733 14.6999 32.7324 15.3879 32.5564 16.1659C32.3803 16.9522 32.2395 17.6074 32.2395 17.632C32.2395 17.6565 32.1339 17.6565 32.0141 17.6238C31.6339 17.5337 29.8944 17.3371 28.3733 17.2061C27.5846 17.1406 26.9015 17.0505 26.8522 17.0013C26.7113 16.8621 26.9226 16.1987 27.1198 16.1414C27.2043 16.1168 28.4789 15.7482 29.9508 15.3305C31.4226 14.9046 32.6832 14.5525 32.7536 14.5525C32.817 14.5443 32.8733 14.5934 32.8733 14.6425ZM44.2817 16.2396C43.9648 18.1971 43.6479 19.9007 43.5775 19.9826C43.493 20.089 40.9015 19.655 40.9015 19.5403C40.9015 19.483 42.2958 19.3765 43.0846 19.3765H43.5493L43.7465 18.3281C44.2043 15.9038 44.4508 14.6917 44.4789 14.7736C44.493 14.8227 44.4015 15.4861 44.2817 16.2396ZM55.0916 15.2486C55.3663 15.2732 55.6339 15.3223 55.6832 15.3551C55.824 15.4616 55.8874 16.8703 56.0071 22.8983C56.0705 25.9369 56.1479 29.5651 56.1832 30.9657C56.2254 32.358 56.2536 33.7913 56.2536 34.1517C56.2536 34.7741 56.2465 34.7905 56.0986 34.7414C55.3381 34.4875 53.817 34.4383 52.9648 34.6349L52.4578 34.7495L52.4226 34.168C52.3663 33.3982 52.2536 28.3612 52.1972 24.0777L52.1479 20.6296L52.4437 20.2692C52.7465 19.9007 53.0846 19.2045 53.0846 18.9588C53.0846 18.7868 52.7888 18.279 52.4719 17.8941L52.2324 17.5992L52.5282 17.5501C52.9789 17.4846 53.0141 17.3781 53.0141 16.1659V15.1176L53.8099 15.1585C54.2395 15.1831 54.824 15.224 55.0916 15.2486ZM49.7254 16.772C49.7817 17.0095 49.7465 17.0587 49.4719 17.1242C48.8874 17.2634 48.0493 17.6484 46.817 18.3609C45.3592 19.2045 45.0353 19.4748 44.8381 20.0071C44.7254 20.3102 44.6832 20.3593 44.493 20.3593C44.3451 20.3593 44.2817 20.3184 44.2817 20.2283C44.2817 19.999 44.7184 19.1308 44.9437 18.9097C45.2465 18.6148 48.317 16.8703 48.7888 16.7229C49.3803 16.5427 49.6761 16.5509 49.7254 16.772ZM28.2254 18.107C32.4155 18.4756 35.9508 19.0407 39.8099 19.9498C42.0916 20.4822 42.2395 20.5313 41.4296 20.4822C41.0846 20.4576 40.7184 20.4248 40.6198 20.4003C40.3874 20.3593 39.1198 20.2201 37.9789 20.1136C35.7958 19.9089 30.317 19.7942 30.4508 19.9498C30.486 19.9908 31.1339 20.1546 31.8874 20.3184C34.2817 20.8344 37.7465 21.768 37.4648 21.8172C37.3803 21.8336 37.0141 21.7844 36.655 21.7189C35.986 21.5879 33.993 21.2602 32.9437 21.1046C31.5212 20.8917 29.1127 20.6787 27.4155 20.605C26.0001 20.5477 23.8662 20.4576 23.4226 20.4412C23.4015 20.4412 23.3662 20.0972 23.3522 19.6795C23.331 19.0243 23.3029 18.8441 23.1057 18.4019L22.8874 17.8777L24.8662 17.9268C25.9578 17.9596 27.4719 18.0333 28.2254 18.107ZM51.9578 18.0579C52.9155 18.6476 52.5423 20.1955 51.4437 20.1955C50.4648 20.1955 49.9437 19.0243 50.5986 18.2954C50.9719 17.8777 51.5212 17.7876 51.9578 18.0579ZM22.0141 18.7786L22.2606 19.0816L22.2184 20.3593C22.1127 23.5781 21.3451 29.0983 20.4015 33.4637C19.9085 35.7488 19.7324 36.2074 19.2817 36.4777C18.8451 36.7234 18.4648 36.7643 13.6479 37.0674C9.2606 37.3459 7.14794 37.4605 6.16202 37.4933L5.5423 37.5178L5.5916 36.8217C5.61977 36.4367 5.66202 35.9371 5.69019 35.716L5.73948 35.3065L5.79582 35.6505C5.82399 35.8388 5.9085 36.1009 5.97892 36.2402C6.20427 36.6743 6.45779 36.6743 12.3803 36.2484C16.8522 35.9289 17.5705 35.8552 17.8522 35.6996C18.1691 35.5276 18.5564 35.0116 18.6479 34.6349C18.8874 33.6357 20.1691 24.0613 20.4437 21.1783C20.5423 20.0972 20.5071 19.8024 20.2395 19.5485C20.1198 19.4338 19.2465 19.4011 18.662 19.4912C18.5141 19.5157 18.0353 19.5731 17.5916 19.6222C15.9085 19.8106 14.0916 20.1054 11.8099 20.5559C9.3169 21.0473 8.52822 21.3176 8.07047 21.8172C7.78878 22.1202 7.83103 21.9155 8.12681 21.4896C8.69019 20.7033 9.3733 20.3184 11.0705 19.827C12.5564 19.3929 14.317 19.0407 16.3944 18.7704C18.5071 18.4919 18.324 18.5083 20.155 18.4919L21.7677 18.4756L22.0141 18.7786ZM60.6761 20.6378C61.3663 21.1374 62.8451 22.456 62.9085 22.6362C62.9789 22.841 63.0986 26.2727 63.0634 26.977C63.0423 27.3865 63.0001 27.6241 62.9226 27.7141C62.8099 27.837 62.7817 27.8288 62.4719 27.6568C61.4226 27.0671 60.2606 26.1334 60.1057 25.7485C59.9296 25.3144 59.8451 24.2906 59.824 22.3577C59.8029 20.0235 59.8099 20.0153 60.6761 20.6378ZM17.4226 21.2111C17.2677 23.8402 15.7888 35.1181 15.5705 35.3392C15.4085 35.5112 15.831 30.0238 16.1902 27.2391C16.4648 25.1178 17.317 20.4412 17.4296 20.4412C17.4508 20.4412 17.4508 20.7852 17.4226 21.2111ZM48.5001 21.3012C49.5775 21.7762 50.493 22.1612 50.5282 22.1612C50.5705 22.1612 50.6268 21.8254 50.655 21.4159C50.6832 20.8999 50.7254 20.6951 50.7747 20.7525C50.8522 20.8425 50.824 22.3577 50.7395 22.456C50.7113 22.4888 49.9226 22.153 48.986 21.7107C47.2254 20.8753 46.3874 20.4576 46.486 20.4494C46.5141 20.4412 47.4226 20.8262 48.5001 21.3012ZM51.486 28.3448C51.5001 34.2909 51.493 34.5776 51.3663 34.7905C51.2324 35.028 50.8381 35.3474 50.6902 35.3474C50.6409 35.3474 50.7536 35.2246 50.9437 35.0772C51.162 34.9134 51.3029 34.725 51.3451 34.5694C51.3803 34.4301 51.3874 31.3097 51.3733 27.5258C51.3522 23.3406 51.3663 20.9982 51.4015 21.424C51.4367 21.809 51.4719 24.9213 51.486 28.3448ZM44.6198 20.949C44.6761 21.0145 44.7043 21.4814 44.7043 22.5052V23.963H44.2888C44.0141 23.963 43.8451 23.9221 43.7888 23.8402C43.655 23.6518 43.7184 21.0309 43.8592 20.9326C44.0071 20.818 44.5212 20.8344 44.6198 20.949ZM13.2606 23.2996C13.0282 25.5437 12.2324 32.0713 11.9789 33.865L11.7817 35.2246L11.7606 34.2008C11.7254 32.6283 12.0564 28.8198 12.4578 26.0515C12.7536 23.9958 13.3874 20.8999 13.4226 21.293C13.4367 21.4159 13.3662 22.3168 13.2606 23.2996ZM9.9508 22.2185C9.6902 23.9794 8.85216 30.0484 8.57751 32.1942C8.38033 33.7258 8.19723 34.9953 8.1761 35.0198C8.09864 35.0935 8.2254 33.0624 8.40146 31.3506C8.76765 27.8616 9.1691 25.339 9.8522 22.3004C9.9296 21.9482 10 21.8909 9.9508 22.2185ZM44.6127 25.3308C44.5916 25.4127 44.5775 25.3472 44.5775 25.1916C44.5775 25.0359 44.5916 24.9704 44.6127 25.0441C44.6268 25.126 44.6268 25.2571 44.6127 25.3308ZM36.5212 26.3054C36.8733 26.3382 37.1479 26.3955 37.1268 26.4283C37.1057 26.4692 36.7536 26.502 36.3381 26.502C33.6268 26.5102 31.162 27.3538 28.9789 29.0328C28.2184 29.6225 27.9085 29.9337 28.2465 29.7863C28.3451 29.7453 28.6409 29.5815 28.9085 29.4259C30.4085 28.5495 32.9719 27.6404 35.0916 27.2309C35.7606 27.1081 38.9719 27.1081 39.5634 27.2391C40.3029 27.3947 41.6057 27.9271 42.4508 28.4185C43.2113 28.8608 44.4226 29.7208 44.4226 29.8272C44.4226 29.8518 44.2395 29.7535 44.0212 29.6143C43.3874 29.213 42.5282 28.828 41.6972 28.5741C41.0212 28.3776 40.817 28.353 39.8451 28.353C38.8803 28.353 38.6691 28.3776 38.0564 28.5741C37.2113 28.8444 36.3874 29.2867 35.6479 29.8682C35.0353 30.3432 33.9155 31.5636 33.6057 32.0877L33.4085 32.4153L32.7324 32.3662C30.2465 32.1942 28.4296 32.2433 26.9226 32.5218C24.8592 32.9067 23.5212 33.7749 22.9719 35.0608C22.7184 35.6669 22.7536 36.1746 23.0846 36.7152L23.324 37.092L22.0353 37.0428C21.331 37.0101 20.7254 36.9691 20.6902 36.9445C20.5212 36.8217 21.7536 34.6267 22.824 33.1361C24.486 30.8182 26.2184 29.2211 28.4015 27.9762C29.8733 27.1408 31.1479 26.6658 32.7254 26.3791C33.3803 26.2645 35.4789 26.2235 36.5212 26.3054ZM43.5846 30.0975C44.3099 30.4169 45.2677 31.2441 45.6409 31.8584C45.7606 32.0632 45.7184 32.0386 45.4367 31.7437C44.9648 31.2359 44.5071 30.8838 44.0775 30.679C43.7677 30.5398 43.5564 30.5152 42.7113 30.5152C41.824 30.5152 41.6691 30.5398 41.3099 30.7118C40.7324 30.9902 39.9015 31.6127 39.4296 32.1205C39.0564 32.5218 38.8592 32.7921 38.2677 33.734C38.162 33.906 38.0564 34.0288 38.0353 34.0124C37.9648 33.9305 38.5423 32.53 38.8662 31.9976C39.4367 31.0558 40.2184 30.376 41.1832 30.0074C41.7254 29.7945 43.0141 29.8436 43.5846 30.0975ZM43.9648 31.2687C44.7958 31.5144 45.8099 32.399 46.4296 33.4227C47.7958 35.6669 48.5916 39.6145 48.7113 44.7662C48.7536 46.8711 48.7043 49.5411 48.6127 49.7868C48.486 50.139 48.4367 49.8359 48.4226 48.591C48.4226 47.8621 48.4015 47.3953 48.3874 47.5509C48.317 48.3208 48.0564 49.6803 47.831 50.4338C47.5916 51.2365 46.831 53.0875 46.7747 53.0138C46.7606 52.9974 46.831 52.7271 46.9296 52.4159C47.1972 51.605 47.5071 50.3274 47.6479 49.4756C47.7395 48.9268 47.7677 48.3126 47.7606 47.0595C47.7606 45.5606 47.7395 45.2658 47.5705 44.3485C46.9296 40.8349 45.7536 38.7054 43.824 37.5752C43.5916 37.4441 43.0705 37.2148 42.6761 37.0674C42.2817 36.9281 41.9578 36.7807 41.9578 36.748C41.9578 36.6415 42.6198 35.9535 42.8592 35.8061C43.162 35.6259 43.3099 35.6423 43.7395 35.888C46.1057 37.2885 47.8522 40.4581 48.331 44.2256L48.4226 44.9709L48.4296 44.1847C48.4437 42.5794 48.2113 40.0077 47.9015 38.386C47.2254 34.8642 45.9085 32.7675 43.9296 32.0632C43.3451 31.8584 42.5775 31.8748 42.0071 32.1041C40.6761 32.6529 39.331 34.3155 38.2043 36.8217C37.993 37.2967 37.7606 37.8536 37.6972 38.0666C37.6127 38.3205 37.5282 38.4597 37.4508 38.4597C37.3874 38.4597 36.4648 38.3123 35.4015 38.1321C34.3381 37.9519 33.2254 37.7554 32.9226 37.7062C31.8874 37.5342 32.5212 37.4687 34.817 37.526L37.0775 37.5834L37.3592 36.9773C37.5212 36.6415 37.8944 35.9289 38.2043 35.3884C40.1479 31.9731 41.9719 30.6626 43.9648 31.2687ZM62.4508 31.4489C62.7395 31.6455 63.0705 31.9239 63.1832 32.0632C63.3663 32.2843 63.3944 32.3826 63.4437 33.1115C63.5282 34.381 63.5846 38.2222 63.5212 38.5416C63.4296 39.0167 63.2043 39.0412 62.5423 38.6563C62.2465 38.4843 61.9437 38.2468 61.8733 38.1321C61.6761 37.8045 61.6057 36.879 61.5916 34.0288C61.5634 30.72 61.5353 30.8182 62.4508 31.4489ZM50.2254 32.6037C50.2465 32.9559 50.2958 33.2835 50.324 33.3163C50.3522 33.349 50.4789 33.4064 50.6057 33.4309L50.831 33.4801V33.046C50.831 32.5136 50.9367 32.2515 51.0141 32.5955C51.0775 32.9067 50.993 33.5538 50.8663 33.7012C50.7747 33.8159 50.7254 33.8159 50.4648 33.7094C50.0423 33.5374 49.9578 33.3081 50.0212 32.4235C50.0846 31.6045 50.162 31.6782 50.2254 32.6037ZM32.6268 32.9723C33.8099 33.0542 35.0634 33.2671 35.8451 33.5128C36.3451 33.6766 36.6691 34.0452 36.7254 34.512C36.7958 35.1345 36.1409 36.1419 35.3662 36.6005C34.8099 36.9281 34.331 37.0101 33.5353 36.9036C31.9508 36.6988 31.1972 36.6661 27.8733 36.6579C24.0846 36.6415 23.6339 36.6169 23.4719 36.363C22.9437 35.5604 23.7536 34.2909 25.2184 33.6275C25.824 33.349 26.7536 33.0787 27.4085 32.9723C28.0353 32.8822 31.2395 32.8822 32.6268 32.9723ZM4.95779 34.34C4.93667 34.5612 4.85216 35.4867 4.76765 36.4122C4.68315 37.3377 4.60568 38.1075 4.5916 38.1239C4.55639 38.1649 3.91554 38.2795 3.35216 38.3451C3.02822 38.3778 2.87329 38.3696 2.87329 38.3123C2.87329 38.1894 3.0423 38.0912 3.45779 37.9765C3.64793 37.9274 3.88033 37.8209 3.97892 37.7472C4.45075 37.3868 4.76061 35.6587 4.42258 35.2655C4.34512 35.1754 4.25357 35.1017 4.21132 35.1017C4.05639 35.1017 4.15498 34.8642 4.50005 34.4219C4.69723 34.168 4.88737 33.9551 4.92963 33.9551C4.97892 33.9551 4.98596 34.0943 4.95779 34.34ZM54.0282 35.3638C54.0494 35.6013 54.0986 36.1828 54.1409 36.6579C54.2113 37.4605 54.2465 37.5834 54.655 38.5662C55.0775 39.59 55.0916 39.6473 55.0916 40.2698C55.0916 40.9659 55.0212 41.1297 54.7606 41.0478C54.4296 40.9495 54.3874 40.8676 54.3451 40.1633C54.317 39.6227 54.2536 39.3525 54.0494 38.8283C53.9155 38.4679 53.7606 38.0093 53.7254 37.8045C53.6339 37.3622 53.5353 35.2573 53.5986 35.069C53.6268 34.9953 53.7184 34.9379 53.817 34.9379C53.9719 34.9379 53.993 34.9789 54.0282 35.3638ZM55.0282 35.0362C55.0564 35.0935 55.1198 35.6587 55.1691 36.2975C55.2465 37.3295 55.2817 37.526 55.5071 38.1321C55.9296 39.2296 56.0634 40.2861 55.9085 41.1215C55.8663 41.3345 55.831 41.3673 55.6268 41.3509C55.2465 41.3345 55.1832 41.1953 55.2747 40.6301C55.3944 39.8684 55.331 39.3279 55.0212 38.5416L54.7465 37.8455L54.7184 36.5923C54.7043 35.9044 54.7113 35.2492 54.7324 35.1345C54.7817 34.9297 54.9437 34.8724 55.0282 35.0362ZM50.317 35.3147C50.2958 35.3392 50.2324 35.3474 50.1832 35.3229C50.1268 35.2983 50.1479 35.2737 50.2254 35.2737C50.3029 35.2655 50.3451 35.2901 50.317 35.3147ZM4.24653 35.7569C4.26765 35.7979 4.25357 36.0682 4.21132 36.3466C4.08455 37.1902 4.07047 37.2148 3.92963 36.8544C3.86624 36.6743 3.7254 36.4449 3.61977 36.3385C3.39441 36.0927 3.38737 35.9699 3.5916 35.8061C3.76765 35.6587 4.1761 35.6341 4.24653 35.7569ZM50.655 37.092C51.8592 37.5506 52.7817 37.9355 52.7184 37.9519C52.6127 37.9765 48.824 37.2148 48.486 37.1001C48.3522 37.051 48.2747 36.879 48.1902 36.4285C48.1409 36.1665 48.1479 36.1501 48.3029 36.2074C48.3944 36.232 49.4578 36.6333 50.655 37.092ZM3.5423 37.526C3.14089 37.7472 3.01413 37.7717 3.01413 37.6161C3.01413 37.4114 3.18315 37.3131 3.5423 37.3213L3.89441 37.3295L3.5423 37.526ZM60.2747 38.6972C62.9085 39.3525 63.5212 39.4753 63.7465 39.4098C63.9437 39.3525 64.3451 38.8938 64.4648 38.5744C64.5423 38.3614 64.5494 38.4024 64.5564 39.0658C64.5634 39.7783 64.5634 39.7865 64.324 40.065C64.1409 40.278 64.0282 40.3435 63.831 40.3435C63.5705 40.3435 62.1339 39.8439 59.4789 38.8201C57.2113 37.9437 57.2324 37.9437 60.2747 38.6972ZM30.3029 38.5416C32.9578 38.6809 37.1479 39.205 37.2184 39.4098C37.2747 39.5818 37.0916 40.4336 36.986 40.4827C36.9085 40.5155 36.4226 40.4418 34.8029 40.1387C33.986 39.9831 32.2184 39.8439 30.655 39.8111C29.6479 39.7865 28.5564 39.7538 28.2254 39.7374C27.2465 39.6883 27.8099 39.8193 29.2113 39.9749C29.9296 40.0486 30.9296 40.1797 31.4296 40.2698C32.6479 40.4745 35.0212 40.9905 35.3733 41.1297L35.655 41.2444L35.3029 41.2034C35.1127 41.1789 34.7465 41.1297 34.493 41.0888C33.9015 40.9823 32.9578 40.8513 32.0282 40.753C31.6198 40.7038 31.1761 40.6547 31.0423 40.6301C30.9085 40.6137 30.5282 40.5728 30.1972 40.5482C29.8662 40.5155 29.5071 40.4745 29.3874 40.4581C28.655 40.3599 25.3874 40.3025 20.4085 40.3025C10.1479 40.3025 7.61977 40.4581 2.71132 41.4082C2.02117 41.5474 1.41554 41.6539 1.3592 41.6539C1.2747 41.6539 1.25357 41.5474 1.26061 41.1789C1.2747 40.4008 1.30991 40.3271 1.78174 40.1551C2.7747 39.8029 5.66202 39.418 9.1761 39.1641C13.0493 38.8856 15.7254 38.7709 24.5986 38.5171C26.5846 38.4597 28.7888 38.4679 30.3029 38.5416ZM42.0634 39.5326C43.5423 40.065 44.817 41.8259 45.3029 43.9963C45.4437 44.6352 45.4508 47.0595 45.3029 47.7556C44.8733 49.8605 43.6057 51.6378 42.1127 52.2357C41.4226 52.5141 40.4226 52.4896 39.7395 52.1865C38.5001 51.6378 37.493 50.3683 36.8944 48.591C36.5916 47.7147 36.5141 46.9939 36.5493 45.5033C36.5775 44.3894 36.6057 44.1519 36.7747 43.5786C37.324 41.7112 38.1902 40.4581 39.4085 39.7702C40.2958 39.2706 41.1198 39.1968 42.0634 39.5326ZM50.1057 42.3091C50.0705 43.8816 50.0846 44.3731 50.1479 44.3976C50.2254 44.4304 53.8381 45.1757 53.9296 45.1757C53.9508 45.1757 53.9578 44.2338 53.9437 43.079C53.9155 41.0069 53.9226 40.9905 54.0564 41.0888C54.1832 41.1789 54.1902 41.2034 54.0916 41.2853C54.0071 41.3591 54.0001 41.4164 54.0564 41.5474C54.1198 41.6785 54.5141 41.8259 56.1268 42.3009C58.8733 43.12 60.6972 43.6851 61.331 43.9144C61.7747 44.0782 61.9226 44.1765 62.155 44.4713C63.317 45.9374 63.2958 48.7876 62.1127 50.1636C61.5986 50.7614 61.3592 50.8024 59.317 50.6304C58.4296 50.5567 57.6057 50.4748 57.486 50.4584C57.3733 50.442 56.993 50.4011 56.655 50.3765C56.0071 50.3192 55.8803 50.2045 56.3099 50.0735C56.5775 49.9916 57.0775 49.2954 57.3522 48.632C57.8029 47.5263 57.9648 45.749 57.7184 44.6433C57.5212 43.8079 57.2958 43.1773 57.0986 42.9562C56.9367 42.7596 56.4085 42.5057 56.3381 42.5876C56.324 42.604 56.4437 42.8169 56.5986 43.0544C57.3592 44.2174 57.5846 46.2077 57.1268 47.7802C56.8451 48.7794 56.4648 49.32 56.4648 48.7385C56.4648 48.5009 56.4578 48.5009 55.3803 48.3371C54.9648 48.2716 54.6057 48.1979 54.5846 48.1815C54.5705 48.1569 54.655 47.7802 54.7747 47.3379C55.162 45.9374 55.1198 44.7498 54.6479 43.5868C54.4226 43.0381 54.1761 42.6449 54.1057 42.7268C54.0846 42.7596 54.1127 43.6196 54.1761 44.6515C54.2888 46.6172 54.3099 47.7802 54.2395 47.9931C54.1198 48.3453 54.0705 48.0095 54.0705 46.9038C54.0705 45.8064 54.0564 45.6753 53.9508 45.6344C53.817 45.5852 53.0775 45.4542 51.2677 45.1429C50.4508 45.0037 50.1761 44.9791 50.1268 45.0529C50.0916 45.1102 49.9648 45.7654 49.8592 46.5107L49.655 47.8703L49.9437 47.9194C50.1057 47.9522 50.5634 47.9931 50.9648 48.0259C51.7888 48.0914 51.7747 48.075 51.831 48.8695C51.8522 49.2053 51.8522 49.2135 51.4648 49.4428C50.9508 49.754 50.8522 49.7377 51.2888 49.4182C51.486 49.279 51.662 49.1234 51.6972 49.0743C51.7465 48.9924 51.6972 48.4518 51.6339 48.3781C51.6198 48.3535 51.1127 48.3371 50.5071 48.3208C49.9085 48.3126 49.3944 48.2798 49.3733 48.2552C49.3451 48.2307 49.3803 47.3461 49.4508 46.2978C49.5564 44.6679 49.5634 44.1437 49.5001 42.5794C49.3874 39.9831 49.3522 40.2616 49.7888 40.2616H50.1479L50.1057 42.3091ZM26.0564 41.0151C26.5282 41.1953 26.7817 41.4328 26.9719 41.8832C27.1127 42.219 27.1339 42.391 27.1339 43.1691C27.1339 44.1929 27.0705 44.3894 26.6127 44.8727C26.1127 45.3968 25.9508 45.4214 22.7747 45.4132C18.317 45.3968 17.5986 45.2167 21.7113 45.1429C24.0493 45.102 25.2606 45.0037 25.8733 44.8071C26.3451 44.6515 26.6479 44.2666 26.7184 43.7342C26.7888 43.1937 26.7184 42.3091 26.5775 42.0061C26.4155 41.6375 26.2254 41.5147 25.6902 41.4164C25.1691 41.3263 22.5916 41.1871 20.2747 41.1215C19.4085 41.097 18.6761 41.0642 18.662 41.0396C18.6409 41.0151 18.7465 40.9905 18.9015 40.9905C19.0493 40.9823 19.6339 40.9495 20.1972 40.9168C20.7606 40.884 22.2324 40.8595 23.4719 40.8758C25.2606 40.8922 25.7958 40.9168 26.0564 41.0151ZM36.3522 41.4082C36.6339 41.5147 36.8029 41.613 36.7817 41.6785C36.7677 41.7276 36.655 42.2682 36.5353 42.8661C36.4085 43.4639 36.2958 43.939 36.2817 43.9308C36.2747 43.9144 36.2254 43.5131 36.1832 43.0299C36.0986 42.0798 35.9578 41.4164 35.817 41.3181C35.662 41.1953 35.8592 41.2362 36.3522 41.4082ZM3.61977 41.8341C2.71132 41.9488 1.65498 42.219 1.5423 42.3501C1.45075 42.4484 1.42258 42.7186 1.4085 43.5622C1.39441 44.1601 1.41554 44.7416 1.45075 44.8563C1.5423 45.1348 1.70427 45.1675 3.11977 45.233C5.14089 45.3231 4.73244 45.446 2.37329 45.4542C1.48596 45.4624 1.30286 45.3641 1.1761 44.8317C1.05639 44.2912 1.11977 42.6449 1.2747 42.3665C1.52822 41.916 2.07047 41.7522 3.36624 41.7522L4.1761 41.7604L3.61977 41.8341ZM25.6409 42.0552C25.831 42.0962 26.0493 42.2027 26.1479 42.3091C26.3099 42.4893 26.324 42.5548 26.324 43.2592C26.324 43.9472 26.3099 44.0455 26.155 44.2502C25.986 44.4795 25.9719 44.4795 25.0775 44.5041C24.5634 44.5205 24.0916 44.4959 23.986 44.4468C23.655 44.2994 23.5423 43.9963 23.5423 43.2428C23.5423 42.604 23.5564 42.5466 23.7465 42.3173C23.8592 42.1781 24.0423 42.0552 24.1691 42.0388C24.5634 41.9815 25.2958 41.9897 25.6409 42.0552ZM3.95779 43.0462C4.0423 43.1281 4.07047 43.3247 4.07047 43.9144C4.07047 44.8972 4.0423 44.93 3.25357 44.93C2.71132 44.93 2.64089 44.9136 2.48596 44.7252C2.33808 44.5532 2.30991 44.455 2.30991 43.9963C2.30991 43.3575 2.39441 43.0708 2.60568 42.9643C2.83103 42.8497 3.82399 42.9152 3.95779 43.0462ZM67.3592 45.8883C67.3381 47.4116 67.2958 48.7385 67.2677 48.8449C67.2395 48.9514 67.1409 49.0743 67.0494 49.1152C66.9578 49.1562 66.0494 49.1889 65.0423 49.1889H63.2113L63.2536 49.0005C63.4508 48.1979 63.4367 46.5107 63.2254 45.6671C63.1902 45.5115 63.155 45.3723 63.155 45.3641C63.155 45.2986 64.1409 45.3559 64.1761 45.4214C64.1972 45.4706 64.2536 45.8473 64.2888 46.265C64.324 46.6745 64.3733 47.0922 64.4015 47.1823C64.5001 47.5509 64.5705 46.9284 64.5212 46.1094L64.4719 45.2822L65.4155 45.233C65.9296 45.2085 66.3592 45.1921 66.3663 45.2003C66.3733 45.2085 66.4155 45.6425 66.4648 46.1585C66.5423 47.0595 66.5705 47.2151 66.6339 47.1332C66.6479 47.1168 66.6761 46.2896 66.6972 45.2986L66.7395 43.4967L66.5846 44.0455C66.5001 44.3485 66.4085 44.6188 66.3803 44.6515C66.3451 44.6843 65.9296 44.7171 65.4437 44.7252L64.5634 44.7334V44.2011C64.5564 43.5868 64.486 43.6441 64.3522 44.3731L64.2606 44.8481H63.6902C63.2817 44.8481 63.0705 44.8071 62.9578 44.7171C62.7677 44.5696 62.5916 44.1847 62.5916 43.939C62.5916 43.8079 62.5705 43.7834 62.5001 43.8489C62.4015 43.9472 62.0916 43.8079 61.8874 43.5704C61.7958 43.4639 61.7958 43.4394 61.8874 43.3739C61.9437 43.3329 62.1339 43.292 62.3099 43.2838C62.486 43.2756 63.0846 43.2428 63.6479 43.2101C64.2113 43.1855 65.2817 43.1527 66.0353 43.1445L67.4015 43.1281L67.3592 45.8883ZM69.1832 44.3157C69.3803 44.5451 69.6339 45.1593 69.8029 45.8145C69.9367 46.3469 69.8803 46.3633 69.6902 45.8473C69.317 44.8399 68.9578 44.8481 68.6339 45.8801C68.5001 46.3223 68.4789 46.5599 68.4508 48.5173C68.4226 50.8925 68.486 51.8507 68.7536 53.0301C68.9437 53.8492 69.1198 54.3078 69.3381 54.5371C69.5282 54.7337 69.7184 54.619 69.9155 54.2013C70.0494 53.9147 70.0564 53.9065 70.0141 54.144C69.9015 54.7255 69.5071 55.4135 69.2747 55.4135C69.0846 55.4135 68.7465 54.8729 68.5564 54.275C68.3522 53.6444 68.1268 52.3503 68.0071 51.1955C67.9015 50.1308 67.9015 47.2151 68.0071 46.3223C68.2254 44.4713 68.6691 43.7178 69.1832 44.3157ZM70.7254 45.6425C70.6339 45.9538 70.5212 46.437 70.4789 46.7318C70.3874 47.297 70.2677 47.5673 70.2677 47.2233C70.2677 47.0513 70.0986 46.0602 69.9367 45.274C69.9015 45.102 69.9155 45.0938 70.3944 45.0938H70.8944L70.7254 45.6425ZM71.8733 45.274C72.0564 45.5033 72.4226 46.4288 72.486 46.8138C72.5212 47.0513 72.486 47.0103 72.2958 46.568C72.1057 46.134 72.0282 46.0357 71.8874 46.0357C71.4648 46.0357 71.2536 47.0676 71.2536 49.2299C71.2536 51.171 71.3522 52.4486 71.5775 53.3414C71.8803 54.5535 72.0705 54.8156 72.4155 54.4962L72.6057 54.3242L72.5564 54.5208C72.4789 54.8238 72.2465 55.2251 72.1198 55.2824C71.662 55.4872 71.1339 53.972 70.8944 51.7688C70.7817 50.7287 70.7747 47.6901 70.8874 46.9366C71.0564 45.7736 71.317 45.0938 71.5986 45.0938C71.6691 45.0938 71.7888 45.1757 71.8733 45.274ZM69.6268 47.1823C70.0212 48.6566 70.0846 52.4159 69.7395 53.2021C69.5775 53.5625 69.4226 53.4888 69.1902 52.94C68.9226 52.3258 68.8803 51.9326 69.0353 51.3921C69.2184 50.7532 69.155 49.2872 68.9015 48.4436C68.8029 48.0996 68.7184 47.7147 68.7184 47.5836C68.7184 47.2315 68.9155 46.5189 69.0494 46.3551C69.162 46.2322 69.1761 46.2322 69.331 46.437C69.4155 46.5517 69.5494 46.8957 69.6268 47.1823ZM36.0564 46.6991C35.9789 47.4526 35.3733 48.3945 34.8029 48.6238C34.486 48.7548 32.8874 48.763 27.6972 48.6729C25.9155 48.6402 23.1902 48.591 21.6409 48.5746C20.0916 48.5501 17.9367 48.5173 16.8522 48.4927C15.7677 48.4764 12.9789 48.4272 10.655 48.4027C8.33103 48.3699 6.21132 48.3208 5.93667 48.2962C5.38737 48.2388 6.60568 48.2061 19.2113 47.9604C31.3944 47.7311 33.7536 47.6573 34.1761 47.5263C34.662 47.3707 35.1268 47.1004 35.5634 46.7237C35.7677 46.5517 35.9719 46.4206 36.0071 46.437C36.0493 46.4452 36.0705 46.568 36.0564 46.6991ZM72.0916 47.428C72.3029 47.9358 72.4508 48.8367 72.5212 50.0407C72.6409 51.9818 72.4648 53.5297 72.1339 53.5297C72.0212 53.5297 71.6832 52.7353 71.6268 52.3422C71.6057 52.162 71.6339 51.9982 71.7184 51.8425C71.831 51.646 71.8522 51.4494 71.8451 50.5813C71.8451 49.5165 71.7677 49.0824 71.5212 48.6893C71.4015 48.5009 71.3944 48.4272 71.4578 48.0013C71.5916 47.1659 71.8803 46.9038 72.0916 47.428ZM54.7395 48.5746C55.4789 48.6893 56.1198 48.7958 56.1691 48.8204C56.2184 48.8367 56.2536 49.0005 56.2536 49.1971V49.5411L55.5705 49.4838C55.1902 49.4592 54.3099 49.3773 53.6127 49.3118C52.9155 49.2462 52.3099 49.1889 52.2606 49.1889C52.1691 49.1889 52.0141 48.46 52.0775 48.3371C52.1339 48.2307 53.1761 48.3208 54.7395 48.5746ZM45.7606 49.6476C45.7113 49.9015 45.5353 50.4338 45.3592 50.8433C44.7606 52.2275 43.5775 53.3496 42.3099 53.7345C41.5846 53.9556 40.4085 53.8737 39.6479 53.5461C39.0001 53.2676 38.2606 52.7271 37.8381 52.2275C37.5282 51.8507 37.5634 51.7852 37.9226 52.0964C38.6057 52.7107 39.9226 53.2021 40.8592 53.2021C42.1902 53.2021 43.3733 52.6206 44.3592 51.4822C44.8733 50.8925 45.0141 50.6713 45.2888 50.0079C45.4719 49.582 45.655 49.0497 45.7043 48.8204L45.7958 48.4108L45.817 48.804C45.831 49.0251 45.8029 49.4019 45.7606 49.6476ZM12.3099 49.6639C12.5141 49.8523 12.4508 50.1472 12.1902 50.2209C11.9226 50.3028 11.7606 49.8605 11.9719 49.6148C12.0846 49.4838 12.1268 49.492 12.3099 49.6639ZM65.3381 49.9997C65.3733 50.0898 65.4085 50.4338 65.4085 50.7696C65.4085 51.5395 65.6268 52.9974 65.9015 54.1031C66.2395 55.4381 66.2325 55.348 66.0001 55.3152C65.817 55.2906 65.7817 55.2333 65.5986 54.6436C65.3592 53.8328 65.155 52.6943 65.0212 51.3511C64.8733 49.8933 64.8803 49.8441 65.0916 49.8441C65.1902 49.8441 65.2958 49.9097 65.3381 49.9997ZM13.9719 50.8679C14.0353 51.1546 13.9508 51.4658 13.7888 51.5641C13.6761 51.6378 13.6127 51.6132 13.4719 51.4494C13.3733 51.3348 13.2958 51.1628 13.2958 51.0727C13.2958 50.9744 13.3733 50.8106 13.4719 50.6959C13.6127 50.5321 13.6761 50.5075 13.7888 50.5813C13.8662 50.6304 13.9508 50.7614 13.9719 50.8679ZM16.0916 50.7614C16.3803 51.0809 16.2677 51.4822 15.8874 51.4822C15.5282 51.4822 15.2113 50.9007 15.4155 50.614C15.5353 50.4502 15.8733 50.5239 16.0916 50.7614ZM31.331 51.6624C31.6832 52.6534 33.2606 54.8811 34.0282 55.4626L34.2324 55.6182L33.993 55.6756C33.8592 55.7083 30.0282 55.7575 25.4789 55.782L17.2043 55.8312L18.0634 55.307C18.5282 55.0204 19.1339 54.6027 19.4015 54.3897C19.9719 53.9147 21.0353 52.678 21.4296 52.0309L21.7113 51.5641L22.7324 51.5559C23.2958 51.5477 24.7817 51.5149 26.0423 51.4904C27.3029 51.4576 28.986 51.4248 29.7817 51.4167L31.2395 51.4003L31.331 51.6624ZM61.8874 53.0547C62.1198 54.1194 62.4296 54.963 62.8522 55.7165L62.9719 55.9213L60.1057 55.8885C58.5353 55.8721 57.2254 55.8312 57.1972 55.8066C57.1761 55.7739 57.2184 55.651 57.2958 55.52C57.6198 54.9794 58.155 53.4888 58.155 53.112C58.155 53.0301 58.1972 52.94 58.2465 52.8991C58.324 52.8418 59.5353 52.768 61.1972 52.7271L61.8099 52.7107L61.8874 53.0547ZM51.8874 53.5543C52.2184 53.8164 52.817 53.7017 53.1691 53.3086C53.4367 53.0056 53.5001 53.1366 53.2606 53.497C52.8522 54.1276 52.3451 54.2669 51.8733 53.8901C51.6268 53.6935 51.324 53.2431 51.324 53.0711C51.324 53.0383 51.4085 53.1038 51.5212 53.2185C51.6268 53.3332 51.7888 53.4806 51.8874 53.5543ZM55.817 53.5461C56.162 53.9802 56.6832 53.9065 57.0212 53.3905C57.1127 53.2349 57.162 53.2021 57.1691 53.2922C57.1691 53.4315 56.8944 53.8983 56.6972 54.0621C56.5634 54.185 56.2043 54.2177 56.0071 54.1358C55.8451 54.0621 55.4789 53.4069 55.4789 53.1857C55.486 53.0056 55.486 53.0056 55.5634 53.1612C55.6057 53.2513 55.7184 53.4233 55.817 53.5461ZM46.5634 55.6756C46.5423 55.7083 46.2677 55.7411 45.9508 55.7411H45.3803L45.7254 55.3807L46.0775 55.0204L46.3381 55.307C46.4789 55.4708 46.5846 55.6346 46.5634 55.6756Z" fill="#0E0D0D"/>
</svg>
