<svg width="75" height="62" viewBox="0 0 75 62" fill="none" xmlns="http://www.w3.org/2000/svg">
<path d="M54.9578 2.24413C54.7747 2.39974 54.2536 3.40714 53.9155 4.2753C53.4508 5.46288 53.4367 5.56936 53.4015 7.9609L53.3663 10.1559H52.9648C52.7395 10.1559 52.3099 10.0822 52.0001 9.98389C51.5071 9.82827 51.331 9.82008 50.4437 9.86104C49.9015 9.8938 49.2677 9.96751 49.0493 10.0412C48.6691 10.1477 48.5986 10.1477 47.9648 9.98389C47.2817 9.8037 45.9296 9.74637 45.1057 9.86104C44.9155 9.88561 44.4226 9.94294 44.0141 9.98389C43.6057 10.033 42.7747 10.1313 42.162 10.1968L41.0493 10.3279L40.7324 9.99208C40.1339 9.35324 39.2817 9.04201 38.7888 9.27953C38.5071 9.41876 38.3662 9.67266 38.2324 10.2624C38.1902 10.4753 38.1198 10.6473 38.0846 10.6473C38.0493 10.6473 37.8381 10.4835 37.6198 10.2869C37.0705 9.79551 36.8029 9.65628 36.3451 9.60714C35.993 9.56619 35.9226 9.59076 35.7324 9.77094C35.5986 9.90199 35.4789 10.1477 35.3944 10.4425C35.2958 10.8111 35.2465 10.893 35.155 10.8521C34.8803 10.7292 34.0423 10.4835 33.8944 10.4835C33.6479 10.4835 33.331 10.8602 33.2043 11.3025C33.0846 11.712 32.8944 11.925 32.7043 11.8431C32.4648 11.7366 32.6479 10.5736 33.0634 9.49248C33.1972 9.14849 33.3099 8.76355 33.3099 8.64069C33.3099 8.08376 32.8099 7.61691 32.2184 7.61691C31.7958 7.61691 31.6832 7.75615 31.1761 8.90278L30.7747 9.82008L30.7254 11.3353L30.6832 12.8505L29.2677 13.4729C27.4155 14.3001 25.6127 15.1437 25.5423 15.2256C25.5071 15.2666 25.4789 15.414 25.4789 15.5532C25.4719 15.8399 25.7536 16.233 26.3662 16.79C26.6479 17.0439 26.6831 17.1094 26.655 17.3387C26.5564 18.125 26.5493 18.1577 26.3522 18.256C26.1831 18.3543 24.8803 18.469 22.155 18.6328C18.3029 18.8621 15.3662 19.3126 12.817 20.0742C9.92963 20.9342 9.05639 21.3765 8.25357 22.3921C7.61272 23.2029 7.28878 23.9974 7.01413 25.4307C6.59864 27.5683 5.7747 33.2933 5.7747 34.0058C5.7747 34.4809 5.69019 34.6529 4.93667 35.6357C3.87329 37.0362 3.2747 38.3548 2.89441 40.1239C2.79582 40.599 2.68315 41.033 2.65498 41.0904C2.62681 41.1477 2.38033 41.3279 2.10568 41.4917C1.83103 41.6637 1.55639 41.8848 1.50005 41.9831C1.3592 42.237 1.24653 44.8251 1.28878 46.7662C1.31695 48.2978 1.40146 48.7318 1.78878 49.5017C2.14793 50.2143 2.98596 50.9514 3.69723 51.1807C3.85216 51.2299 4.66202 51.3282 5.49301 51.3937C6.32399 51.4674 7.07047 51.5411 7.15498 51.5575C7.26061 51.582 7.39441 51.8196 7.63385 52.3929C8.29582 53.9736 9.23244 55.4151 10.1409 56.2259C10.6691 56.7009 11.662 57.3562 12.1972 57.5773C12.4437 57.6838 12.6691 57.7902 12.6972 57.823C12.7677 57.8967 11.9367 57.9622 10.2113 58.0278C4.21836 58.2735 3.82399 58.3881 8.38033 58.5601C18.4648 58.9451 54.0846 58.9942 67.7465 58.642C70.817 58.5601 73.0634 58.4455 73.2536 58.3472C73.3663 58.298 73.831 57.479 73.9719 57.0859C74.2958 56.1768 74.4437 53.6214 74.3029 51.4592C74.1339 48.8711 73.7958 47.4378 73.1691 46.6515L72.8663 46.2748H71.9437H71.0141L70.7536 45.9062C70.4226 45.4558 70.1479 45.2838 69.6479 45.2182C69.2817 45.1691 69.2536 45.1527 69.1198 44.8415C68.9508 44.4729 68.6339 44.219 68.2958 44.2027C68.1691 44.1945 67.0986 44.219 65.9155 44.26L63.7677 44.3255L63.6057 43.9897C63.2958 43.3591 63.0986 43.2935 60.7817 43.1215C59.9155 43.056 59.1972 42.9905 59.1761 42.9741C59.162 42.9495 59.9508 42.9086 60.9296 42.8758L62.7184 42.8185L63.6057 43.0724C64.6409 43.3673 64.986 43.3836 65.3874 43.1625C65.8874 42.884 66.1198 42.5237 66.2043 41.934C66.3663 40.7628 65.6127 22.1382 65.2747 19.0423C65.1761 18.0922 65.0141 17.1503 64.8451 16.5606C64.7113 16.0774 64.6339 15.9546 63.6691 14.8407C62.1832 13.1044 61.0423 12.1133 59.4226 11.1551C58.5071 10.6145 57.8099 10.3279 56.7606 10.074C56.3522 9.9757 56.0071 9.87742 55.986 9.85285C55.9648 9.83647 55.9437 8.99287 55.9296 7.99366L55.9085 6.17543L56.4015 5.05337C56.6691 4.43911 56.9155 3.80027 56.9437 3.63646C57.0071 3.24333 56.7888 2.71916 56.4367 2.39974C56.2113 2.20317 56.0986 2.17041 55.6409 2.14584C55.2395 2.12946 55.0705 2.15403 54.9578 2.24413ZM56.0353 2.94849C56.162 3.03858 56.2817 3.19419 56.3099 3.30066C56.3522 3.5218 56.0775 4.34082 55.6268 5.30727L55.3522 5.91335V11.196C55.3522 14.1118 55.3381 16.4705 55.324 16.4542C55.2747 16.3968 55.1479 13.4975 55.0353 9.77094L54.9226 6.31467L55.1057 5.64307C55.3099 4.88957 55.2888 4.693 55.0705 5.26632C54.8663 5.80687 54.8099 7.07636 54.7536 12.1625C54.7113 16.7982 54.7254 16.6262 54.324 16.6262C54.1902 16.6262 54.155 16.5688 54.1127 16.233C54.0846 16.0201 54.0564 13.6203 54.0564 10.893C54.0493 6.91255 54.0705 5.84783 54.1479 5.48746C54.2677 4.9469 54.9155 3.40714 55.1761 3.04677C55.4015 2.73554 55.6902 2.70278 56.0353 2.94849ZM32.6691 8.40318L32.8803 8.60793L32.5212 9.42695C32.162 10.2378 32.162 10.2624 32.1127 11.1797C32.0705 12.1297 32.0282 12.3017 31.8874 12.1379C31.8381 12.0806 31.824 11.7038 31.8451 10.9667C31.8874 9.68085 31.7958 9.82008 31.6902 11.2042C31.5986 12.3099 31.5775 12.4491 31.4437 12.4491C31.2958 12.4491 31.2465 12.1543 31.2465 11.2943C31.2536 10.418 31.3733 9.82827 31.7043 9.0502C31.9437 8.47689 32.155 8.19023 32.331 8.19023C32.4015 8.19023 32.5493 8.28851 32.6691 8.40318ZM39.824 9.90199C40.5353 10.2787 40.4437 10.3606 39.3944 10.3197C38.9648 10.3033 38.8803 10.3279 38.817 10.4507C38.7184 10.6555 38.6339 10.5408 38.6902 10.2951C38.7536 9.9757 39.0071 9.66447 39.1972 9.66447C39.2888 9.66447 39.5775 9.77094 39.824 9.90199ZM36.9648 10.2951C37.1761 10.4262 37.331 10.5572 37.317 10.6063C37.3029 10.6555 37.0071 10.6882 36.6409 10.6882C36.2184 10.6882 35.9648 10.721 35.9085 10.7865C35.6479 11.0896 35.6339 10.721 35.8874 10.2869C36.0564 10.0003 36.0916 9.9757 36.331 10.0248C36.4719 10.0494 36.7536 10.1723 36.9648 10.2951ZM51.7958 10.3606L52.0071 10.4671L51.7958 10.4835C51.6832 10.4835 51.4578 10.549 51.3029 10.6145C51.1479 10.6801 50.655 10.7702 50.2113 10.8111C49.6127 10.8602 49.2395 10.9421 48.7677 11.1305C48.4226 11.2698 48.0634 11.3844 47.9719 11.3844C47.7606 11.3844 47.6832 11.1469 47.8522 11.0077C47.993 10.8848 48.7184 10.5572 49.2606 10.3688C49.7324 10.205 51.493 10.1968 51.7958 10.3606ZM34.2536 10.893C34.3522 10.934 34.4367 10.9995 34.4367 11.0322C34.4367 11.0732 34.2324 11.1715 33.9789 11.2698C33.4789 11.4499 33.4155 11.3926 33.7113 11.0404C33.9155 10.7865 33.986 10.7702 34.2536 10.893ZM46.7395 11.0568C46.993 11.237 47.162 11.581 47.3944 12.4C47.4789 12.7112 47.6057 13.0225 47.6691 13.0962C47.7324 13.1699 48.3663 13.6449 49.0846 14.1527C50.4719 15.1355 50.7606 15.3567 50.6972 15.4304C50.6761 15.455 50.2184 15.1765 49.6761 14.8161C49.1409 14.4476 48.4226 13.9725 48.0846 13.7432C47.4367 13.3091 47.0212 13.1863 46.7677 13.3419C46.486 13.5221 46.4578 13.6859 46.0916 17.3633C45.9578 18.7392 45.817 20.0251 45.7817 20.2299L45.7184 20.5984L45.7113 20.2053C45.6972 19.5173 46.1972 14.382 46.3381 13.7514C46.3803 13.5958 46.486 13.3746 46.5846 13.2682C46.6832 13.1617 46.7606 13.0552 46.7606 13.0225C46.7606 12.9488 45.3381 12.1707 44.8592 11.9823C44.3592 11.7939 42.9437 11.7939 41.162 11.9823C40.4648 12.0642 39.3592 12.1789 38.6972 12.2444C38.0423 12.3181 37.1832 12.4082 36.7958 12.4491C36.4085 12.4901 35.8522 12.5474 35.5634 12.572C35.2747 12.6048 34.9578 12.6375 34.8592 12.6539C34.7606 12.6703 34.4437 12.703 34.155 12.7358C33.7254 12.7768 33.0916 13.0061 30.817 13.9316C29.2747 14.5622 28.0001 15.0618 27.986 15.0454C27.9578 15.0209 28.5282 14.7424 32.9226 12.6457L34.7536 11.7775L39.2606 11.3762C44.8874 10.8848 44.3663 10.9258 45.5282 10.9094C46.3944 10.893 46.5423 10.9094 46.7395 11.0568ZM53.3874 11.1305L53.5564 11.2861L53.5775 14.7997C53.5916 16.7244 53.5775 18.4198 53.5564 18.5672C53.4789 19.0505 53.4015 19.0832 52.3733 19.0832C51.8592 19.0832 51.4085 19.0505 51.3592 19.0177C51.1479 18.8621 51.1268 18.4444 51.1268 14.9472V11.4008L51.3451 11.1879C51.5493 10.9831 51.5986 10.9749 52.3944 10.9749C53.1057 10.9749 53.2465 10.9995 53.3874 11.1305ZM58.331 11.3025C58.993 11.6793 59.0494 11.8103 58.4648 11.6056C58.0353 11.4581 57.9578 11.4581 57.7747 11.5564L57.5705 11.6711L57.5494 13.0225C57.5353 13.7678 57.5494 14.9635 57.5705 15.6843L57.6198 17.0029L58.0846 17.4452C59.5564 18.8457 64.0001 23.1374 64.1198 23.2848C64.2817 23.4732 64.3733 23.5469 60.655 20.41C59.0986 19.0914 57.7817 18.0185 57.7395 18.0185C57.6409 18.0185 57.6761 21.7696 57.8522 30.3038C57.9085 33.0312 57.9719 36.3155 58.0001 37.6095L58.0494 39.9683H57.5423H57.0423V38.6988V37.4293H57.2395C57.3522 37.4293 57.5001 37.3802 57.5775 37.3147C57.7043 37.2 57.7113 37.0935 57.7043 35.4064C57.6972 34.4235 57.6409 31.2048 57.5775 28.2563C57.5071 25.3078 57.4367 21.6468 57.4085 20.1152L57.3592 17.3469L57.0141 16.9865L56.6761 16.6262L56.6057 15.0045C56.5705 14.12 56.5494 12.9242 56.5634 12.3591C56.5916 11.0159 56.6339 10.9421 57.3592 10.9913C57.7395 11.024 57.9719 11.0978 58.331 11.3025ZM59.5775 12.7358C61.4296 13.8333 63.7254 15.8809 64.1198 16.7982C64.2747 17.1503 64.5423 18.1741 64.493 18.2233C64.4789 18.2396 64.2817 17.9366 64.0494 17.5435C63.1268 15.9791 61.317 14.1691 59.2817 12.7686C57.9085 11.8185 58.0141 11.8103 59.5775 12.7358ZM43.662 12.9406C43.2043 13.0061 42.6761 13.0716 40.7747 13.3009C39.6761 13.4402 39.0353 13.5057 36.7254 13.7596C34.317 14.0135 34.5705 13.9561 31.331 15.07C28.9648 15.889 28.2606 16.1839 28.1339 16.4132C28.0846 16.5033 27.986 16.79 27.9155 17.0357C27.8451 17.2814 27.7817 17.437 27.7606 17.3797C27.7254 17.2486 27.9296 16.5443 28.0705 16.3149C28.1268 16.2167 28.2958 16.061 28.4367 15.9791C29.1268 15.5696 33.6268 13.907 34.5282 13.7268C34.8451 13.6613 36.2958 13.4975 37.7465 13.3501C41.8029 12.9651 42.7958 12.8832 43.486 12.8832H44.1198L43.662 12.9406ZM48.7677 15.0209C50.0775 15.7989 50.7043 16.2412 50.7043 16.3805C50.7043 16.4296 50.6902 16.4624 50.6691 16.4624C50.6479 16.4624 49.9226 16.0365 49.0564 15.5205C48.1832 15.0045 47.3944 14.5786 47.2958 14.5786C47.0705 14.5786 47.0986 14.4312 46.7958 17.1176C46.5493 19.2962 46.4296 20.148 46.4155 19.8859C46.4085 19.6893 46.7536 15.7826 46.831 15.1929C46.8733 14.9226 46.9015 14.6769 46.9015 14.6441C46.9015 14.5295 47.2113 14.251 47.3451 14.251C47.4155 14.251 48.0564 14.595 48.7677 15.0209ZM44.662 15.7662C44.6339 16.2003 44.0282 19.3781 43.9085 19.7057L43.817 19.9596L42.986 20.0497C42.5212 20.107 41.7043 20.1889 41.162 20.2299C40.6198 20.279 39.8099 20.3527 39.3662 20.3937C38.6268 20.4592 38.4085 20.4428 36.831 20.1889C35.8803 20.0333 34.8029 19.8613 34.4367 19.804L33.7677 19.6975L33.7888 19.3781C33.824 18.9686 34.3381 16.5443 34.4155 16.4542C34.486 16.3723 44.1409 15.3894 44.5423 15.4222C44.662 15.4386 44.6832 15.4877 44.662 15.7662ZM45.5423 16.5606C45.5212 16.6262 45.5001 16.6016 45.5001 16.5115C45.493 16.4214 45.5141 16.3723 45.5353 16.405C45.5564 16.4296 45.5634 16.5033 45.5423 16.5606ZM33.8733 16.6425C33.8733 16.6999 33.7324 17.3879 33.5564 18.1659C33.3803 18.9522 33.2395 19.6074 33.2395 19.632C33.2395 19.6565 33.1339 19.6565 33.0141 19.6238C32.6339 19.5337 30.8944 19.3371 29.3733 19.2061C28.5846 19.1406 27.9015 19.0505 27.8522 19.0013C27.7113 18.8621 27.9226 18.1987 28.1198 18.1414C28.2043 18.1168 29.4789 17.7482 30.9508 17.3305C32.4226 16.9046 33.6832 16.5525 33.7536 16.5525C33.817 16.5443 33.8733 16.5934 33.8733 16.6425ZM45.2817 18.2396C44.9648 20.1971 44.6479 21.9007 44.5775 21.9826C44.493 22.089 41.9015 21.655 41.9015 21.5403C41.9015 21.483 43.2958 21.3765 44.0846 21.3765H44.5493L44.7465 20.3281C45.2043 17.9038 45.4508 16.6917 45.4789 16.7736C45.493 16.8227 45.4015 17.4861 45.2817 18.2396ZM56.0916 17.2486C56.3663 17.2732 56.6339 17.3223 56.6832 17.3551C56.824 17.4616 56.8874 18.8703 57.0071 24.8983C57.0705 27.9369 57.1479 31.5651 57.1832 32.9657C57.2254 34.358 57.2536 35.7913 57.2536 36.1517C57.2536 36.7741 57.2465 36.7905 57.0986 36.7414C56.3381 36.4875 54.817 36.4383 53.9648 36.6349L53.4578 36.7495L53.4226 36.168C53.3663 35.3982 53.2536 30.3612 53.1972 26.0777L53.1479 22.6296L53.4437 22.2692C53.7465 21.9007 54.0846 21.2045 54.0846 20.9588C54.0846 20.7868 53.7888 20.279 53.4719 19.8941L53.2324 19.5992L53.5282 19.5501C53.9789 19.4846 54.0141 19.3781 54.0141 18.1659V17.1176L54.8099 17.1585C55.2395 17.1831 55.824 17.224 56.0916 17.2486ZM50.7254 18.772C50.7817 19.0095 50.7465 19.0587 50.4719 19.1242C49.8874 19.2634 49.0493 19.6484 47.817 20.3609C46.3592 21.2045 46.0353 21.4748 45.8381 22.0071C45.7254 22.3102 45.6832 22.3593 45.493 22.3593C45.3451 22.3593 45.2817 22.3184 45.2817 22.2283C45.2817 21.999 45.7184 21.1308 45.9437 20.9097C46.2465 20.6148 49.317 18.8703 49.7888 18.7229C50.3803 18.5427 50.6761 18.5509 50.7254 18.772ZM29.2254 20.107C33.4155 20.4756 36.9508 21.0407 40.8099 21.9498C43.0916 22.4822 43.2395 22.5313 42.4296 22.4822C42.0846 22.4576 41.7184 22.4248 41.6198 22.4003C41.3874 22.3593 40.1198 22.2201 38.9789 22.1136C36.7958 21.9089 31.317 21.7942 31.4508 21.9498C31.486 21.9908 32.1339 22.1546 32.8874 22.3184C35.2817 22.8344 38.7465 23.768 38.4648 23.8172C38.3803 23.8336 38.0141 23.7844 37.655 23.7189C36.986 23.5879 34.993 23.2602 33.9437 23.1046C32.5212 22.8917 30.1127 22.6787 28.4155 22.605C27.0001 22.5477 24.8662 22.4576 24.4226 22.4412C24.4015 22.4412 24.3662 22.0972 24.3522 21.6795C24.331 21.0243 24.3029 20.8441 24.1057 20.4019L23.8874 19.8777L25.8662 19.9268C26.9578 19.9596 28.4719 20.0333 29.2254 20.107ZM52.9578 20.0579C53.9155 20.6476 53.5423 22.1955 52.4437 22.1955C51.4648 22.1955 50.9437 21.0243 51.5986 20.2954C51.9719 19.8777 52.5212 19.7876 52.9578 20.0579ZM23.0141 20.7786L23.2606 21.0816L23.2184 22.3593C23.1127 25.5781 22.3451 31.0983 21.4015 35.4637C20.9085 37.7488 20.7324 38.2074 20.2817 38.4777C19.8451 38.7234 19.4648 38.7643 14.6479 39.0674C10.2606 39.3459 8.14794 39.4605 7.16202 39.4933L6.5423 39.5178L6.5916 38.8217C6.61977 38.4367 6.66202 37.9371 6.69019 37.716L6.73948 37.3065L6.79582 37.6505C6.82399 37.8388 6.9085 38.1009 6.97892 38.2402C7.20427 38.6743 7.45779 38.6743 13.3803 38.2484C17.8522 37.9289 18.5705 37.8552 18.8522 37.6996C19.1691 37.5276 19.5564 37.0116 19.6479 36.6349C19.8874 35.6357 21.1691 26.0613 21.4437 23.1783C21.5423 22.0972 21.5071 21.8024 21.2395 21.5485C21.1198 21.4338 20.2465 21.4011 19.662 21.4912C19.5141 21.5157 19.0353 21.5731 18.5916 21.6222C16.9085 21.8106 15.0916 22.1054 12.8099 22.5559C10.3169 23.0473 9.52822 23.3176 9.07047 23.8172C8.78878 24.1202 8.83103 23.9155 9.12681 23.4896C9.69019 22.7033 10.3733 22.3184 12.0705 21.827C13.5564 21.3929 15.317 21.0407 17.3944 20.7704C19.5071 20.4919 19.324 20.5083 21.155 20.4919L22.7677 20.4756L23.0141 20.7786ZM61.6761 22.6378C62.3663 23.1374 63.8451 24.456 63.9085 24.6362C63.9789 24.841 64.0986 28.2727 64.0634 28.977C64.0423 29.3865 64.0001 29.6241 63.9226 29.7141C63.8099 29.837 63.7817 29.8288 63.4719 29.6568C62.4226 29.0671 61.2606 28.1334 61.1057 27.7485C60.9296 27.3144 60.8451 26.2906 60.824 24.3577C60.8029 22.0235 60.8099 22.0153 61.6761 22.6378ZM18.4226 23.2111C18.2677 25.8402 16.7888 37.1181 16.5705 37.3392C16.4085 37.5112 16.831 32.0238 17.1902 29.2391C17.4648 27.1178 18.317 22.4412 18.4296 22.4412C18.4508 22.4412 18.4508 22.7852 18.4226 23.2111ZM49.5001 23.3012C50.5775 23.7762 51.493 24.1612 51.5282 24.1612C51.5705 24.1612 51.6268 23.8254 51.655 23.4159C51.6832 22.8999 51.7254 22.6951 51.7747 22.7525C51.8522 22.8425 51.824 24.3577 51.7395 24.456C51.7113 24.4888 50.9226 24.153 49.986 23.7107C48.2254 22.8753 47.3874 22.4576 47.486 22.4494C47.5141 22.4412 48.4226 22.8262 49.5001 23.3012ZM52.486 30.3448C52.5001 36.2909 52.493 36.5776 52.3663 36.7905C52.2324 37.028 51.8381 37.3474 51.6902 37.3474C51.6409 37.3474 51.7536 37.2246 51.9437 37.0772C52.162 36.9134 52.3029 36.725 52.3451 36.5694C52.3803 36.4301 52.3874 33.3097 52.3733 29.5258C52.3522 25.3406 52.3663 22.9982 52.4015 23.424C52.4367 23.809 52.4719 26.9213 52.486 30.3448ZM45.6198 22.949C45.6761 23.0145 45.7043 23.4814 45.7043 24.5052V25.963H45.2888C45.0141 25.963 44.8451 25.9221 44.7888 25.8402C44.655 25.6518 44.7184 23.0309 44.8592 22.9326C45.0071 22.818 45.5212 22.8344 45.6198 22.949ZM14.2606 25.2996C14.0282 27.5437 13.2324 34.0713 12.9789 35.865L12.7817 37.2246L12.7606 36.2008C12.7254 34.6283 13.0564 30.8198 13.4578 28.0515C13.7536 25.9958 14.3874 22.8999 14.4226 23.293C14.4367 23.4159 14.3662 24.3168 14.2606 25.2996ZM10.9508 24.2185C10.6902 25.9794 9.85216 32.0484 9.57751 34.1942C9.38033 35.7258 9.19723 36.9953 9.1761 37.0198C9.09864 37.0935 9.2254 35.0624 9.40146 33.3506C9.76765 29.8616 10.1691 27.339 10.8522 24.3004C10.9296 23.9482 11 23.8909 10.9508 24.2185ZM45.6127 27.3308C45.5916 27.4127 45.5775 27.3472 45.5775 27.1916C45.5775 27.0359 45.5916 26.9704 45.6127 27.0441C45.6268 27.126 45.6268 27.2571 45.6127 27.3308ZM37.5212 28.3054C37.8733 28.3382 38.1479 28.3955 38.1268 28.4283C38.1057 28.4692 37.7536 28.502 37.3381 28.502C34.6268 28.5102 32.162 29.3538 29.9789 31.0328C29.2184 31.6225 28.9085 31.9337 29.2465 31.7863C29.3451 31.7453 29.6409 31.5815 29.9085 31.4259C31.4085 30.5495 33.9719 29.6404 36.0916 29.2309C36.7606 29.1081 39.9719 29.1081 40.5634 29.2391C41.3029 29.3947 42.6057 29.9271 43.4508 30.4185C44.2113 30.8608 45.4226 31.7208 45.4226 31.8272C45.4226 31.8518 45.2395 31.7535 45.0212 31.6143C44.3874 31.213 43.5282 30.828 42.6972 30.5741C42.0212 30.3776 41.817 30.353 40.8451 30.353C39.8803 30.353 39.6691 30.3776 39.0564 30.5741C38.2113 30.8444 37.3874 31.2867 36.6479 31.8682C36.0353 32.3432 34.9155 33.5636 34.6057 34.0877L34.4085 34.4153L33.7324 34.3662C31.2465 34.1942 29.4296 34.2433 27.9226 34.5218C25.8592 34.9067 24.5212 35.7749 23.9719 37.0608C23.7184 37.6669 23.7536 38.1746 24.0846 38.7152L24.324 39.092L23.0353 39.0428C22.331 39.0101 21.7254 38.9691 21.6902 38.9445C21.5212 38.8217 22.7536 36.6267 23.824 35.1361C25.486 32.8182 27.2184 31.2211 29.4015 29.9762C30.8733 29.1408 32.1479 28.6658 33.7254 28.3791C34.3803 28.2645 36.4789 28.2235 37.5212 28.3054ZM44.5846 32.0975C45.3099 32.4169 46.2677 33.2441 46.6409 33.8584C46.7606 34.0632 46.7184 34.0386 46.4367 33.7437C45.9648 33.2359 45.5071 32.8838 45.0775 32.679C44.7677 32.5398 44.5564 32.5152 43.7113 32.5152C42.824 32.5152 42.6691 32.5398 42.3099 32.7118C41.7324 32.9902 40.9015 33.6127 40.4296 34.1205C40.0564 34.5218 39.8592 34.7921 39.2677 35.734C39.162 35.906 39.0564 36.0288 39.0353 36.0124C38.9648 35.9305 39.5423 34.53 39.8662 33.9976C40.4367 33.0558 41.2184 32.376 42.1832 32.0074C42.7254 31.7945 44.0141 31.8436 44.5846 32.0975ZM44.9648 33.2687C45.7958 33.5144 46.8099 34.399 47.4296 35.4227C48.7958 37.6669 49.5916 41.6145 49.7113 46.7662C49.7536 48.8711 49.7043 51.5411 49.6127 51.7868C49.486 52.139 49.4367 51.8359 49.4226 50.591C49.4226 49.8621 49.4015 49.3953 49.3874 49.5509C49.317 50.3208 49.0564 51.6803 48.831 52.4338C48.5916 53.2365 47.831 55.0875 47.7747 55.0138C47.7606 54.9974 47.831 54.7271 47.9296 54.4159C48.1972 53.605 48.5071 52.3274 48.6479 51.4756C48.7395 50.9268 48.7677 50.3126 48.7606 49.0595C48.7606 47.5606 48.7395 47.2658 48.5705 46.3485C47.9296 42.8349 46.7536 40.7054 44.824 39.5752C44.5916 39.4441 44.0705 39.2148 43.6761 39.0674C43.2817 38.9281 42.9578 38.7807 42.9578 38.748C42.9578 38.6415 43.6198 37.9535 43.8592 37.8061C44.162 37.6259 44.3099 37.6423 44.7395 37.888C47.1057 39.2885 48.8522 42.4581 49.331 46.2256L49.4226 46.9709L49.4296 46.1847C49.4437 44.5794 49.2113 42.0077 48.9015 40.386C48.2254 36.8642 46.9085 34.7675 44.9296 34.0632C44.3451 33.8584 43.5775 33.8748 43.0071 34.1041C41.6761 34.6529 40.331 36.3155 39.2043 38.8217C38.993 39.2967 38.7606 39.8536 38.6972 40.0666C38.6127 40.3205 38.5282 40.4597 38.4508 40.4597C38.3874 40.4597 37.4648 40.3123 36.4015 40.1321C35.3381 39.9519 34.2254 39.7554 33.9226 39.7062C32.8874 39.5342 33.5212 39.4687 35.817 39.526L38.0775 39.5834L38.3592 38.9773C38.5212 38.6415 38.8944 37.9289 39.2043 37.3884C41.1479 33.9731 42.9719 32.6626 44.9648 33.2687ZM63.4508 33.4489C63.7395 33.6455 64.0705 33.9239 64.1832 34.0632C64.3663 34.2843 64.3944 34.3826 64.4437 35.1115C64.5282 36.381 64.5846 40.2222 64.5212 40.5416C64.4296 41.0167 64.2043 41.0412 63.5423 40.6563C63.2465 40.4843 62.9437 40.2468 62.8733 40.1321C62.6761 39.8045 62.6057 38.879 62.5916 36.0288C62.5634 32.72 62.5353 32.8182 63.4508 33.4489ZM51.2254 34.6037C51.2465 34.9559 51.2958 35.2835 51.324 35.3163C51.3522 35.349 51.4789 35.4064 51.6057 35.4309L51.831 35.4801V35.046C51.831 34.5136 51.9367 34.2515 52.0141 34.5955C52.0775 34.9067 51.993 35.5538 51.8663 35.7012C51.7747 35.8159 51.7254 35.8159 51.4648 35.7094C51.0423 35.5374 50.9578 35.3081 51.0212 34.4235C51.0846 33.6045 51.162 33.6782 51.2254 34.6037ZM33.6268 34.9723C34.8099 35.0542 36.0634 35.2671 36.8451 35.5128C37.3451 35.6766 37.6691 36.0452 37.7254 36.512C37.7958 37.1345 37.1409 38.1419 36.3662 38.6005C35.8099 38.9281 35.331 39.0101 34.5353 38.9036C32.9508 38.6988 32.1972 38.6661 28.8733 38.6579C25.0846 38.6415 24.6339 38.6169 24.4719 38.363C23.9437 37.5604 24.7536 36.2909 26.2184 35.6275C26.824 35.349 27.7536 35.0787 28.4085 34.9723C29.0353 34.8822 32.2395 34.8822 33.6268 34.9723ZM5.95779 36.34C5.93667 36.5612 5.85216 37.4867 5.76765 38.4122C5.68315 39.3377 5.60568 40.1075 5.5916 40.1239C5.55639 40.1649 4.91554 40.2795 4.35216 40.3451C4.02822 40.3778 3.87329 40.3696 3.87329 40.3123C3.87329 40.1894 4.0423 40.0912 4.45779 39.9765C4.64793 39.9274 4.88033 39.8209 4.97892 39.7472C5.45075 39.3868 5.76061 37.6587 5.42258 37.2655C5.34512 37.1754 5.25357 37.1017 5.21132 37.1017C5.05639 37.1017 5.15498 36.8642 5.50005 36.4219C5.69723 36.168 5.88737 35.9551 5.92963 35.9551C5.97892 35.9551 5.98596 36.0943 5.95779 36.34ZM55.0282 37.3638C55.0494 37.6013 55.0986 38.1828 55.1409 38.6579C55.2113 39.4605 55.2465 39.5834 55.655 40.5662C56.0775 41.59 56.0916 41.6473 56.0916 42.2698C56.0916 42.9659 56.0212 43.1297 55.7606 43.0478C55.4296 42.9495 55.3874 42.8676 55.3451 42.1633C55.317 41.6227 55.2536 41.3525 55.0494 40.8283C54.9155 40.4679 54.7606 40.0093 54.7254 39.8045C54.6339 39.3622 54.5353 37.2573 54.5986 37.069C54.6268 36.9953 54.7184 36.9379 54.817 36.9379C54.9719 36.9379 54.993 36.9789 55.0282 37.3638ZM56.0282 37.0362C56.0564 37.0935 56.1198 37.6587 56.1691 38.2975C56.2465 39.3295 56.2817 39.526 56.5071 40.1321C56.9296 41.2296 57.0634 42.2861 56.9085 43.1215C56.8663 43.3345 56.831 43.3673 56.6268 43.3509C56.2465 43.3345 56.1832 43.1953 56.2747 42.6301C56.3944 41.8684 56.331 41.3279 56.0212 40.5416L55.7465 39.8455L55.7184 38.5923C55.7043 37.9044 55.7113 37.2492 55.7324 37.1345C55.7817 36.9297 55.9437 36.8724 56.0282 37.0362ZM51.317 37.3147C51.2958 37.3392 51.2324 37.3474 51.1832 37.3229C51.1268 37.2983 51.1479 37.2737 51.2254 37.2737C51.3029 37.2655 51.3451 37.2901 51.317 37.3147ZM5.24653 37.7569C5.26765 37.7979 5.25357 38.0682 5.21132 38.3466C5.08455 39.1902 5.07047 39.2148 4.92963 38.8544C4.86624 38.6743 4.7254 38.4449 4.61977 38.3385C4.39441 38.0927 4.38737 37.9699 4.5916 37.8061C4.76765 37.6587 5.1761 37.6341 5.24653 37.7569ZM51.655 39.092C52.8592 39.5506 53.7817 39.9355 53.7184 39.9519C53.6127 39.9765 49.824 39.2148 49.486 39.1001C49.3522 39.051 49.2747 38.879 49.1902 38.4285C49.1409 38.1665 49.1479 38.1501 49.3029 38.2074C49.3944 38.232 50.4578 38.6333 51.655 39.092ZM4.5423 39.526C4.14089 39.7472 4.01413 39.7717 4.01413 39.6161C4.01413 39.4114 4.18315 39.3131 4.5423 39.3213L4.89441 39.3295L4.5423 39.526ZM61.2747 40.6972C63.9085 41.3525 64.5212 41.4753 64.7465 41.4098C64.9437 41.3525 65.3451 40.8938 65.4648 40.5744C65.5423 40.3614 65.5494 40.4024 65.5564 41.0658C65.5634 41.7783 65.5634 41.7865 65.324 42.065C65.1409 42.278 65.0282 42.3435 64.831 42.3435C64.5705 42.3435 63.1339 41.8439 60.4789 40.8201C58.2113 39.9437 58.2324 39.9437 61.2747 40.6972ZM31.3029 40.5416C33.9578 40.6809 38.1479 41.205 38.2184 41.4098C38.2747 41.5818 38.0916 42.4336 37.986 42.4827C37.9085 42.5155 37.4226 42.4418 35.8029 42.1387C34.986 41.9831 33.2184 41.8439 31.655 41.8111C30.6479 41.7865 29.5564 41.7538 29.2254 41.7374C28.2465 41.6883 28.8099 41.8193 30.2113 41.9749C30.9296 42.0486 31.9296 42.1797 32.4296 42.2698C33.6479 42.4745 36.0212 42.9905 36.3733 43.1297L36.655 43.2444L36.3029 43.2034C36.1127 43.1789 35.7465 43.1297 35.493 43.0888C34.9015 42.9823 33.9578 42.8513 33.0282 42.753C32.6198 42.7038 32.1761 42.6547 32.0423 42.6301C31.9085 42.6137 31.5282 42.5728 31.1972 42.5482C30.8662 42.5155 30.5071 42.4745 30.3874 42.4581C29.655 42.3599 26.3874 42.3025 21.4085 42.3025C11.1479 42.3025 8.61977 42.4581 3.71132 43.4082C3.02117 43.5474 2.41554 43.6539 2.3592 43.6539C2.2747 43.6539 2.25357 43.5474 2.26061 43.1789C2.2747 42.4008 2.30991 42.3271 2.78174 42.1551C3.7747 41.8029 6.66202 41.418 10.1761 41.1641C14.0493 40.8856 16.7254 40.7709 25.5986 40.5171C27.5846 40.4597 29.7888 40.4679 31.3029 40.5416ZM43.0634 41.5326C44.5423 42.065 45.817 43.8259 46.3029 45.9963C46.4437 46.6352 46.4508 49.0595 46.3029 49.7556C45.8733 51.8605 44.6057 53.6378 43.1127 54.2357C42.4226 54.5141 41.4226 54.4896 40.7395 54.1865C39.5001 53.6378 38.493 52.3683 37.8944 50.591C37.5916 49.7147 37.5141 48.9939 37.5493 47.5033C37.5775 46.3894 37.6057 46.1519 37.7747 45.5786C38.324 43.7112 39.1902 42.4581 40.4085 41.7702C41.2958 41.2706 42.1198 41.1968 43.0634 41.5326ZM51.1057 44.3091C51.0705 45.8816 51.0846 46.3731 51.1479 46.3976C51.2254 46.4304 54.8381 47.1757 54.9296 47.1757C54.9508 47.1757 54.9578 46.2338 54.9437 45.079C54.9155 43.0069 54.9226 42.9905 55.0564 43.0888C55.1832 43.1789 55.1902 43.2034 55.0916 43.2853C55.0071 43.3591 55.0001 43.4164 55.0564 43.5474C55.1198 43.6785 55.5141 43.8259 57.1268 44.3009C59.8733 45.12 61.6972 45.6851 62.331 45.9144C62.7747 46.0782 62.9226 46.1765 63.155 46.4713C64.317 47.9374 64.2958 50.7876 63.1127 52.1636C62.5986 52.7614 62.3592 52.8024 60.317 52.6304C59.4296 52.5567 58.6057 52.4748 58.486 52.4584C58.3733 52.442 57.993 52.4011 57.655 52.3765C57.0071 52.3192 56.8803 52.2045 57.3099 52.0735C57.5775 51.9916 58.0775 51.2954 58.3522 50.632C58.8029 49.5263 58.9648 47.749 58.7184 46.6433C58.5212 45.8079 58.2958 45.1773 58.0986 44.9562C57.9367 44.7596 57.4085 44.5057 57.3381 44.5876C57.324 44.604 57.4437 44.8169 57.5986 45.0544C58.3592 46.2174 58.5846 48.2077 58.1268 49.7802C57.8451 50.7794 57.4648 51.32 57.4648 50.7385C57.4648 50.5009 57.4578 50.5009 56.3803 50.3371C55.9648 50.2716 55.6057 50.1979 55.5846 50.1815C55.5705 50.1569 55.655 49.7802 55.7747 49.3379C56.162 47.9374 56.1198 46.7498 55.6479 45.5868C55.4226 45.0381 55.1761 44.6449 55.1057 44.7268C55.0846 44.7596 55.1127 45.6196 55.1761 46.6515C55.2888 48.6172 55.3099 49.7802 55.2395 49.9931C55.1198 50.3453 55.0705 50.0095 55.0705 48.9038C55.0705 47.8064 55.0564 47.6753 54.9508 47.6344C54.817 47.5852 54.0775 47.4542 52.2677 47.1429C51.4508 47.0037 51.1761 46.9791 51.1268 47.0529C51.0916 47.1102 50.9648 47.7654 50.8592 48.5107L50.655 49.8703L50.9437 49.9194C51.1057 49.9522 51.5634 49.9931 51.9648 50.0259C52.7888 50.0914 52.7747 50.075 52.831 50.8695C52.8522 51.2053 52.8522 51.2135 52.4648 51.4428C51.9508 51.754 51.8522 51.7377 52.2888 51.4182C52.486 51.279 52.662 51.1234 52.6972 51.0743C52.7465 50.9924 52.6972 50.4518 52.6339 50.3781C52.6198 50.3535 52.1127 50.3371 51.5071 50.3208C50.9085 50.3126 50.3944 50.2798 50.3733 50.2552C50.3451 50.2307 50.3803 49.3461 50.4508 48.2978C50.5564 46.6679 50.5634 46.1437 50.5001 44.5794C50.3874 41.9831 50.3522 42.2616 50.7888 42.2616H51.1479L51.1057 44.3091ZM27.0564 43.0151C27.5282 43.1953 27.7817 43.4328 27.9719 43.8832C28.1127 44.219 28.1339 44.391 28.1339 45.1691C28.1339 46.1929 28.0705 46.3894 27.6127 46.8727C27.1127 47.3968 26.9508 47.4214 23.7747 47.4132C19.317 47.3968 18.5986 47.2167 22.7113 47.1429C25.0493 47.102 26.2606 47.0037 26.8733 46.8071C27.3451 46.6515 27.6479 46.2666 27.7184 45.7342C27.7888 45.1937 27.7184 44.3091 27.5775 44.0061C27.4155 43.6375 27.2254 43.5147 26.6902 43.4164C26.1691 43.3263 23.5916 43.1871 21.2747 43.1215C20.4085 43.097 19.6761 43.0642 19.662 43.0396C19.6409 43.0151 19.7465 42.9905 19.9015 42.9905C20.0493 42.9823 20.6339 42.9495 21.1972 42.9168C21.7606 42.884 23.2324 42.8595 24.4719 42.8758C26.2606 42.8922 26.7958 42.9168 27.0564 43.0151ZM37.3522 43.4082C37.6339 43.5147 37.8029 43.613 37.7817 43.6785C37.7677 43.7276 37.655 44.2682 37.5353 44.8661C37.4085 45.4639 37.2958 45.939 37.2817 45.9308C37.2747 45.9144 37.2254 45.5131 37.1832 45.0299C37.0986 44.0798 36.9578 43.4164 36.817 43.3181C36.662 43.1953 36.8592 43.2362 37.3522 43.4082ZM4.61977 43.8341C3.71132 43.9488 2.65498 44.219 2.5423 44.3501C2.45075 44.4484 2.42258 44.7186 2.4085 45.5622C2.39441 46.1601 2.41554 46.7416 2.45075 46.8563C2.5423 47.1348 2.70427 47.1675 4.11977 47.233C6.14089 47.3231 5.73244 47.446 3.37329 47.4542C2.48596 47.4624 2.30286 47.3641 2.1761 46.8317C2.05639 46.2912 2.11977 44.6449 2.2747 44.3665C2.52822 43.916 3.07047 43.7522 4.36624 43.7522L5.1761 43.7604L4.61977 43.8341ZM26.6409 44.0552C26.831 44.0962 27.0493 44.2027 27.1479 44.3091C27.3099 44.4893 27.324 44.5548 27.324 45.2592C27.324 45.9472 27.3099 46.0455 27.155 46.2502C26.986 46.4795 26.9719 46.4795 26.0775 46.5041C25.5634 46.5205 25.0916 46.4959 24.986 46.4468C24.655 46.2994 24.5423 45.9963 24.5423 45.2428C24.5423 44.604 24.5564 44.5466 24.7465 44.3173C24.8592 44.1781 25.0423 44.0552 25.1691 44.0388C25.5634 43.9815 26.2958 43.9897 26.6409 44.0552ZM4.95779 45.0462C5.0423 45.1281 5.07047 45.3247 5.07047 45.9144C5.07047 46.8972 5.0423 46.93 4.25357 46.93C3.71132 46.93 3.64089 46.9136 3.48596 46.7252C3.33808 46.5532 3.30991 46.455 3.30991 45.9963C3.30991 45.3575 3.39441 45.0708 3.60568 44.9643C3.83103 44.8497 4.82399 44.9152 4.95779 45.0462ZM68.3592 47.8883C68.3381 49.4116 68.2958 50.7385 68.2677 50.8449C68.2395 50.9514 68.1409 51.0743 68.0494 51.1152C67.9578 51.1562 67.0494 51.1889 66.0423 51.1889H64.2113L64.2536 51.0005C64.4508 50.1979 64.4367 48.5107 64.2254 47.6671C64.1902 47.5115 64.155 47.3723 64.155 47.3641C64.155 47.2986 65.1409 47.3559 65.1761 47.4214C65.1972 47.4706 65.2536 47.8473 65.2888 48.265C65.324 48.6745 65.3733 49.0922 65.4015 49.1823C65.5001 49.5509 65.5705 48.9284 65.5212 48.1094L65.4719 47.2822L66.4155 47.233C66.9296 47.2085 67.3592 47.1921 67.3663 47.2003C67.3733 47.2085 67.4155 47.6425 67.4648 48.1585C67.5423 49.0595 67.5705 49.2151 67.6339 49.1332C67.6479 49.1168 67.6761 48.2896 67.6972 47.2986L67.7395 45.4967L67.5846 46.0455C67.5001 46.3485 67.4085 46.6188 67.3803 46.6515C67.3451 46.6843 66.9296 46.7171 66.4437 46.7252L65.5634 46.7334V46.2011C65.5564 45.5868 65.486 45.6441 65.3522 46.3731L65.2606 46.8481H64.6902C64.2817 46.8481 64.0705 46.8071 63.9578 46.7171C63.7677 46.5696 63.5916 46.1847 63.5916 45.939C63.5916 45.8079 63.5705 45.7834 63.5001 45.8489C63.4015 45.9472 63.0916 45.8079 62.8874 45.5704C62.7958 45.4639 62.7958 45.4394 62.8874 45.3739C62.9437 45.3329 63.1339 45.292 63.3099 45.2838C63.486 45.2756 64.0846 45.2428 64.6479 45.2101C65.2113 45.1855 66.2817 45.1527 67.0353 45.1445L68.4015 45.1281L68.3592 47.8883ZM70.1832 46.3157C70.3803 46.5451 70.6339 47.1593 70.8029 47.8145C70.9367 48.3469 70.8803 48.3633 70.6902 47.8473C70.317 46.8399 69.9578 46.8481 69.6339 47.8801C69.5001 48.3223 69.4789 48.5599 69.4508 50.5173C69.4226 52.8925 69.486 53.8507 69.7536 55.0301C69.9437 55.8492 70.1198 56.3078 70.3381 56.5371C70.5282 56.7337 70.7184 56.619 70.9155 56.2013C71.0494 55.9147 71.0564 55.9065 71.0141 56.144C70.9015 56.7255 70.5071 57.4135 70.2747 57.4135C70.0846 57.4135 69.7465 56.8729 69.5564 56.275C69.3522 55.6444 69.1268 54.3503 69.0071 53.1955C68.9015 52.1308 68.9015 49.2151 69.0071 48.3223C69.2254 46.4713 69.6691 45.7178 70.1832 46.3157ZM71.7254 47.6425C71.6339 47.9538 71.5212 48.437 71.4789 48.7318C71.3874 49.297 71.2677 49.5673 71.2677 49.2233C71.2677 49.0513 71.0986 48.0602 70.9367 47.274C70.9015 47.102 70.9155 47.0938 71.3944 47.0938H71.8944L71.7254 47.6425ZM72.8733 47.274C73.0564 47.5033 73.4226 48.4288 73.486 48.8138C73.5212 49.0513 73.486 49.0103 73.2958 48.568C73.1057 48.134 73.0282 48.0357 72.8874 48.0357C72.4648 48.0357 72.2536 49.0676 72.2536 51.2299C72.2536 53.171 72.3522 54.4486 72.5775 55.3414C72.8803 56.5535 73.0705 56.8156 73.4155 56.4962L73.6057 56.3242L73.5564 56.5208C73.4789 56.8238 73.2465 57.2251 73.1198 57.2824C72.662 57.4872 72.1339 55.972 71.8944 53.7688C71.7817 52.7287 71.7747 49.6901 71.8874 48.9366C72.0564 47.7736 72.317 47.0938 72.5986 47.0938C72.6691 47.0938 72.7888 47.1757 72.8733 47.274ZM70.6268 49.1823C71.0212 50.6566 71.0846 54.4159 70.7395 55.2021C70.5775 55.5625 70.4226 55.4888 70.1902 54.94C69.9226 54.3258 69.8803 53.9326 70.0353 53.3921C70.2184 52.7532 70.155 51.2872 69.9015 50.4436C69.8029 50.0996 69.7184 49.7147 69.7184 49.5836C69.7184 49.2315 69.9155 48.5189 70.0494 48.3551C70.162 48.2322 70.1761 48.2322 70.331 48.437C70.4155 48.5517 70.5494 48.8957 70.6268 49.1823ZM37.0564 48.6991C36.9789 49.4526 36.3733 50.3945 35.8029 50.6238C35.486 50.7548 33.8874 50.763 28.6972 50.6729C26.9155 50.6402 24.1902 50.591 22.6409 50.5746C21.0916 50.5501 18.9367 50.5173 17.8522 50.4927C16.7677 50.4764 13.9789 50.4272 11.655 50.4027C9.33103 50.3699 7.21132 50.3208 6.93667 50.2962C6.38737 50.2388 7.60568 50.2061 20.2113 49.9604C32.3944 49.7311 34.7536 49.6573 35.1761 49.5263C35.662 49.3707 36.1268 49.1004 36.5634 48.7237C36.7677 48.5517 36.9719 48.4206 37.0071 48.437C37.0493 48.4452 37.0705 48.568 37.0564 48.6991ZM73.0916 49.428C73.3029 49.9358 73.4508 50.8367 73.5212 52.0407C73.6409 53.9818 73.4648 55.5297 73.1339 55.5297C73.0212 55.5297 72.6832 54.7353 72.6268 54.3422C72.6057 54.162 72.6339 53.9982 72.7184 53.8425C72.831 53.646 72.8522 53.4494 72.8451 52.5813C72.8451 51.5165 72.7677 51.0824 72.5212 50.6893C72.4015 50.5009 72.3944 50.4272 72.4578 50.0013C72.5916 49.1659 72.8803 48.9038 73.0916 49.428ZM55.7395 50.5746C56.4789 50.6893 57.1198 50.7958 57.1691 50.8204C57.2184 50.8367 57.2536 51.0005 57.2536 51.1971V51.5411L56.5705 51.4838C56.1902 51.4592 55.3099 51.3773 54.6127 51.3118C53.9155 51.2462 53.3099 51.1889 53.2606 51.1889C53.1691 51.1889 53.0141 50.46 53.0775 50.3371C53.1339 50.2307 54.1761 50.3208 55.7395 50.5746ZM46.7606 51.6476C46.7113 51.9015 46.5353 52.4338 46.3592 52.8433C45.7606 54.2275 44.5775 55.3496 43.3099 55.7345C42.5846 55.9556 41.4085 55.8737 40.6479 55.5461C40.0001 55.2676 39.2606 54.7271 38.8381 54.2275C38.5282 53.8507 38.5634 53.7852 38.9226 54.0964C39.6057 54.7107 40.9226 55.2021 41.8592 55.2021C43.1902 55.2021 44.3733 54.6206 45.3592 53.4822C45.8733 52.8925 46.0141 52.6713 46.2888 52.0079C46.4719 51.582 46.655 51.0497 46.7043 50.8204L46.7958 50.4108L46.817 50.804C46.831 51.0251 46.8029 51.4019 46.7606 51.6476ZM13.3099 51.6639C13.5141 51.8523 13.4508 52.1472 13.1902 52.2209C12.9226 52.3028 12.7606 51.8605 12.9719 51.6148C13.0846 51.4838 13.1268 51.492 13.3099 51.6639ZM66.3381 51.9997C66.3733 52.0898 66.4085 52.4338 66.4085 52.7696C66.4085 53.5395 66.6268 54.9974 66.9015 56.1031C67.2395 57.4381 67.2325 57.348 67.0001 57.3152C66.817 57.2906 66.7817 57.2333 66.5986 56.6436C66.3592 55.8328 66.155 54.6943 66.0212 53.3511C65.8733 51.8933 65.8803 51.8441 66.0916 51.8441C66.1902 51.8441 66.2958 51.9097 66.3381 51.9997ZM14.9719 52.8679C15.0353 53.1546 14.9508 53.4658 14.7888 53.5641C14.6761 53.6378 14.6127 53.6132 14.4719 53.4494C14.3733 53.3348 14.2958 53.1628 14.2958 53.0727C14.2958 52.9744 14.3733 52.8106 14.4719 52.6959C14.6127 52.5321 14.6761 52.5075 14.7888 52.5813C14.8662 52.6304 14.9508 52.7614 14.9719 52.8679ZM17.0916 52.7614C17.3803 53.0809 17.2677 53.4822 16.8874 53.4822C16.5282 53.4822 16.2113 52.9007 16.4155 52.614C16.5353 52.4502 16.8733 52.5239 17.0916 52.7614ZM32.331 53.6624C32.6832 54.6534 34.2606 56.8811 35.0282 57.4626L35.2324 57.6182L34.993 57.6756C34.8592 57.7083 31.0282 57.7575 26.4789 57.782L18.2043 57.8312L19.0634 57.307C19.5282 57.0204 20.1339 56.6027 20.4015 56.3897C20.9719 55.9147 22.0353 54.678 22.4296 54.0309L22.7113 53.5641L23.7324 53.5559C24.2958 53.5477 25.7817 53.5149 27.0423 53.4904C28.3029 53.4576 29.986 53.4248 30.7817 53.4167L32.2395 53.4003L32.331 53.6624ZM62.8874 55.0547C63.1198 56.1194 63.4296 56.963 63.8522 57.7165L63.9719 57.9213L61.1057 57.8885C59.5353 57.8721 58.2254 57.8312 58.1972 57.8066C58.1761 57.7739 58.2184 57.651 58.2958 57.52C58.6198 56.9794 59.155 55.4888 59.155 55.112C59.155 55.0301 59.1972 54.94 59.2465 54.8991C59.324 54.8418 60.5353 54.768 62.1972 54.7271L62.8099 54.7107L62.8874 55.0547ZM52.8874 55.5543C53.2184 55.8164 53.817 55.7017 54.1691 55.3086C54.4367 55.0056 54.5001 55.1366 54.2606 55.497C53.8522 56.1276 53.3451 56.2669 52.8733 55.8901C52.6268 55.6935 52.324 55.2431 52.324 55.0711C52.324 55.0383 52.4085 55.1038 52.5212 55.2185C52.6268 55.3332 52.7888 55.4806 52.8874 55.5543ZM56.817 55.5461C57.162 55.9802 57.6832 55.9065 58.0212 55.3905C58.1127 55.2349 58.162 55.2021 58.1691 55.2922C58.1691 55.4315 57.8944 55.8983 57.6972 56.0621C57.5634 56.185 57.2043 56.2177 57.0071 56.1358C56.8451 56.0621 56.4789 55.4069 56.4789 55.1857C56.486 55.0056 56.486 55.0056 56.5634 55.1612C56.6057 55.2513 56.7184 55.4233 56.817 55.5461ZM47.5634 57.6756C47.5423 57.7083 47.2677 57.7411 46.9508 57.7411H46.3803L46.7254 57.3807L47.0775 57.0204L47.3381 57.307C47.4789 57.4708 47.5846 57.6346 47.5634 57.6756Z" fill="#FFFDFD"/>
<path d="M53.2538 15.0536C53.1129 16.7408 53.0143 17.6417 52.965 17.7892C52.8735 18.0758 52.6904 18.2232 52.1833 18.4362L51.7256 18.6328L52.2185 18.6573C52.8523 18.6901 53.1481 18.6246 53.2397 18.428C53.289 18.3297 53.3031 17.6254 53.289 16.5688C53.2819 15.6269 53.2678 14.9472 53.2538 15.0536Z" fill="#FFFDFD"/>
<path d="M54.5071 18.6655C54.324 19.0751 54.824 19.3617 55.0987 19.0095C55.3029 18.7474 55.2184 18.5509 54.8804 18.5263C54.6409 18.5017 54.5705 18.5345 54.5071 18.6655Z" fill="#FFFDFD"/>
<path d="M55.7184 18.6082C55.5142 18.8457 55.7395 19.247 56.0775 19.247C56.2747 19.247 56.4156 19.0423 56.3522 18.8375C56.2747 18.5427 55.8944 18.4034 55.7184 18.6082Z" fill="#FFFDFD"/>
<path d="M55.19 19.4764C55.1196 19.5583 55.0703 19.7303 55.0703 19.8531C55.0703 20.148 55.3731 20.2954 55.6337 20.1316C55.8802 19.976 55.8872 19.7794 55.6619 19.5337C55.4365 19.288 55.345 19.2798 55.19 19.4764Z" fill="#FFFDFD"/>
<path d="M54.0988 19.6238C53.9086 19.7794 53.9086 20.1234 54.1058 20.2626C54.2678 20.3855 54.6058 20.1643 54.634 19.9186C54.6833 19.5337 54.3945 19.3781 54.0988 19.6238Z" fill="#FFFDFD"/>
<path d="M55.7746 20.5575C55.6972 20.6476 55.6338 20.7622 55.6338 20.8032C55.6338 20.9178 55.9577 21.2946 56.0563 21.2946C56.3732 21.2946 56.5211 20.8605 56.2887 20.623C56.0704 20.41 55.9225 20.3855 55.7746 20.5575Z" fill="#FFFDFD"/>
<path d="M54.5775 20.5902C54.4437 20.7868 54.5212 21.0817 54.7324 21.1636C55.1057 21.3192 55.4859 20.7704 55.1479 20.5575C54.9507 20.4428 54.6761 20.4592 54.5775 20.5902Z" fill="#FFFDFD"/>
<path d="M55.2679 21.4666C55.1904 21.5157 55.1411 21.6468 55.1411 21.786C55.1411 21.9744 55.1763 22.0399 55.3172 22.0808C55.7256 22.1955 56.0073 21.9334 55.789 21.6304C55.6341 21.4256 55.4228 21.3601 55.2679 21.4666Z" fill="#FFFDFD"/>
<path d="M54.0917 21.6304C53.9931 21.7451 53.9438 21.8761 53.9579 22.0153C53.9791 22.2119 54.0072 22.2365 54.2396 22.2283C54.6833 22.2119 54.8664 21.8843 54.5917 21.5976C54.4157 21.4174 54.2819 21.4256 54.0917 21.6304Z" fill="#FFFDFD"/>
<path d="M54.6621 22.5395C54.6128 22.5968 54.5776 22.7197 54.5776 22.8262C54.5776 23.0555 54.8593 23.162 55.1128 23.0227C55.4157 22.8671 55.2889 22.4412 54.9297 22.4412C54.8312 22.4412 54.7114 22.4822 54.6621 22.5395Z" fill="#FFFDFD"/>
<path d="M55.7745 22.5559C55.6407 22.7443 55.7181 23.0391 55.9365 23.162C56.2111 23.3176 56.4083 23.2193 56.4083 22.9408C56.4083 22.5395 55.9787 22.2774 55.7745 22.5559Z" fill="#FFFDFD"/>
<path d="M53.6832 22.6869C53.3874 22.8262 53.2888 23.2766 53.5142 23.424C53.7184 23.5469 53.979 23.3995 54.0846 23.0964C54.1691 22.8589 54.1691 22.818 54.0494 22.7197C53.9015 22.5886 53.8944 22.5886 53.6832 22.6869Z" fill="#FFFDFD"/>
<path d="M55.2678 23.4978C55.0001 23.7516 55.2889 24.2103 55.648 24.0956C55.7818 24.0547 55.8875 23.7435 55.8241 23.5551C55.7678 23.3831 55.4368 23.3421 55.2678 23.4978Z" fill="#FFFDFD"/>
<path d="M54.1267 23.637C53.9295 23.8581 54.0069 24.112 54.2816 24.1448C54.5774 24.1775 54.7323 24.0301 54.7041 23.7598C54.69 23.5878 54.6407 23.5387 54.4647 23.5223C54.3238 23.5059 54.1971 23.5469 54.1267 23.637Z" fill="#FFFDFD"/>
<path d="M54.7323 24.456C54.5633 24.5953 54.5281 24.8901 54.6619 25.0457C54.8661 25.2832 55.352 25.0539 55.352 24.7099C55.352 24.5789 55.0985 24.325 54.9647 24.325C54.9224 24.325 54.8168 24.3823 54.7323 24.456Z" fill="#FFFDFD"/>
<path d="M55.8592 24.5379C55.655 24.7017 55.662 24.8492 55.8874 25.0539C56.1127 25.2587 56.3803 25.2751 56.4648 25.0949C56.5634 24.8901 56.486 24.6608 56.2606 24.5297C56.0212 24.3823 56.0493 24.3823 55.8592 24.5379Z" fill="#FFFDFD"/>
<path d="M53.627 24.7755C53.4227 25.013 53.4016 25.2669 53.5777 25.3815C53.8734 25.5617 54.296 24.9966 54.0847 24.7017C53.958 24.5216 53.8242 24.5379 53.627 24.7755Z" fill="#FFFDFD"/>
<path d="M55.2816 25.4716C55.0915 25.6927 55.1055 25.8402 55.345 26.0367C55.5985 26.2497 55.6407 26.2497 55.8238 26.0449C55.9999 25.8565 55.9717 25.6108 55.7534 25.4307C55.5492 25.2668 55.4506 25.275 55.2816 25.4716Z" fill="#FFFDFD"/>
<path d="M54.1059 25.6846C53.8735 26.1023 54.303 26.3807 54.6692 26.0449C54.8875 25.8402 54.9016 25.7746 54.7467 25.6027C54.5706 25.3979 54.2467 25.4388 54.1059 25.6846Z" fill="#FFFDFD"/>
<path d="M54.7327 26.4708C54.458 26.8639 54.7467 27.298 55.1481 27.1096C55.5425 26.9131 55.465 26.3725 55.0425 26.3725C54.9087 26.3725 54.7749 26.4217 54.7327 26.4708Z" fill="#FFFDFD"/>
<path d="M55.8099 26.5445C55.7184 26.7083 55.8452 27.0278 56.0564 27.1506C56.3381 27.3144 56.4015 27.3062 56.493 27.0687C56.6128 26.7657 56.4085 26.4544 56.0916 26.4544C55.9649 26.4544 55.8311 26.4954 55.8099 26.5445Z" fill="#FFFDFD"/>
<path d="M53.669 26.7493C53.2676 27.1424 53.4859 27.5601 53.9507 27.2898C54.2112 27.1424 54.2958 26.8558 54.1549 26.651C54.0281 26.4872 53.9155 26.5036 53.669 26.7493Z" fill="#FFFDFD"/>
<path d="M55.4437 27.3635C55.1268 27.4946 55.162 27.9369 55.5001 28.1007C55.6902 28.1908 55.7325 28.1826 55.8592 28.027C55.993 27.8795 56.0001 27.8304 55.9226 27.6174C55.824 27.3472 55.6691 27.2653 55.4437 27.3635Z" fill="#FFFDFD"/>
<path d="M54.197 27.5929C54.0421 27.7894 54.0773 28.1252 54.2463 28.158C54.6196 28.2399 54.9365 27.9205 54.7886 27.6011C54.69 27.3881 54.359 27.3881 54.197 27.5929Z" fill="#FFFDFD"/>
<path d="M54.7609 28.4938C54.613 28.6822 54.6623 28.9525 54.8665 29.0835C55.1904 29.2801 55.5214 28.8869 55.3172 28.5348C55.1834 28.2972 54.9299 28.2809 54.7609 28.4938Z" fill="#FFFDFD"/>
<path d="M55.8873 28.6003C55.7957 28.7559 55.7887 28.805 55.8732 28.9525C56.0281 29.2145 56.3098 29.2964 56.4788 29.1163C56.6619 28.9279 56.6549 28.8624 56.4436 28.6248C56.2323 28.371 56.0281 28.3628 55.8873 28.6003Z" fill="#FFFDFD"/>
<path d="M53.6689 28.7149C53.4929 28.9688 53.4788 29.1818 53.6267 29.321C53.7605 29.452 53.9788 29.3619 54.1548 29.0999C54.3238 28.846 54.3309 28.7968 54.183 28.633C54.021 28.4446 53.8309 28.4774 53.6689 28.7149Z" fill="#FFFDFD"/>
<path d="M55.3874 29.4357C55.2395 29.6158 55.2184 29.6732 55.2817 29.8124C55.4155 30.0991 55.6691 30.1892 55.8803 30.0254C56.0986 29.8616 56.1057 29.7223 55.9015 29.5094C55.6268 29.2309 55.5705 29.2227 55.3874 29.4357Z" fill="#FFFDFD"/>
<path d="M54.2043 29.5503C53.9649 29.8534 54.1057 30.14 54.486 30.14C54.817 30.14 54.9719 29.7879 54.7466 29.534C54.5987 29.362 54.3452 29.3702 54.2043 29.5503Z" fill="#FFFDFD"/>
<path d="M54.796 30.5168C54.62 30.7789 54.6974 31.0082 54.9791 31.0901C55.3312 31.1966 55.5848 30.8526 55.4017 30.5168C55.2397 30.2383 54.9862 30.2383 54.796 30.5168Z" fill="#FFFDFD"/>
<path d="M55.9083 30.5168C55.8309 30.6233 55.8309 30.6806 55.9154 30.8526C56.0562 31.1474 56.2111 31.2375 56.4294 31.172C56.6689 31.1065 56.683 30.8116 56.4576 30.5659C56.2675 30.353 56.0421 30.3366 55.9083 30.5168Z" fill="#FFFDFD"/>
<path d="M53.7185 30.7134C53.3946 31.0983 53.5354 31.385 53.9861 31.2539C54.2397 31.1802 54.3312 30.9099 54.1904 30.6642C54.0495 30.4103 53.9791 30.4185 53.7185 30.7134Z" fill="#FFFDFD"/>
<path d="M55.4298 31.4423C55.3453 31.5406 55.3101 31.6716 55.3312 31.7617C55.3734 31.9746 55.6481 32.1384 55.8382 32.0647C56.0425 31.991 56.0425 31.5897 55.8312 31.4177C55.627 31.2539 55.5917 31.2539 55.4298 31.4423Z" fill="#FFFDFD"/>
<path d="M54.2324 31.5815C54.0423 31.86 54.0493 31.9091 54.2606 32.0729C54.4507 32.2203 54.6409 32.1794 54.824 31.9419C54.9296 31.8026 54.9367 31.7453 54.8733 31.5733C54.7606 31.2867 54.4296 31.2948 54.2324 31.5815Z" fill="#FFFDFD"/>
<path d="M54.9791 32.2777C54.6763 32.4824 54.6904 32.9329 55.0003 33.0476C55.2115 33.1213 55.4932 32.8838 55.4932 32.6381C55.4932 32.3924 55.1693 32.163 54.9791 32.2777Z" fill="#FFFDFD"/>
<path d="M53.796 32.6708C53.5706 32.9411 53.5424 33.0967 53.6974 33.2523C53.7819 33.3342 53.8453 33.3342 54.0143 33.2523C54.2819 33.1213 54.3946 32.9001 54.303 32.6872C54.1763 32.4251 54.0213 32.4169 53.796 32.6708Z" fill="#FFFDFD"/>
<path d="M55.9228 32.5807C55.8101 32.8264 56.0707 33.1704 56.3735 33.1704C56.6693 33.1704 56.7467 32.9738 56.5636 32.679C56.3876 32.4087 56.0284 32.3596 55.9228 32.5807Z" fill="#FFFDFD"/>
<path d="M55.5071 33.3424C55.1902 33.4817 55.3804 34.0714 55.7395 34.0714C55.8944 34.0714 56.1268 33.883 56.1268 33.7601C56.1268 33.6291 55.9156 33.3506 55.7888 33.3178C55.7184 33.2933 55.5916 33.3097 55.5071 33.3424Z" fill="#FFFDFD"/>
<path d="M54.2464 33.5472C54.1196 33.7765 54.1619 33.9403 54.3872 34.1041C54.5492 34.227 54.8872 34.0058 54.9154 33.7601C54.9717 33.3178 54.4647 33.1622 54.2464 33.5472Z" fill="#FFFDFD"/>
<path d="M54.9157 34.4072C54.7608 34.5054 54.7538 34.7511 54.8876 34.8822C55.0284 35.0214 55.4298 34.9641 55.5214 34.7839C55.6904 34.4727 55.2326 34.186 54.9157 34.4072Z" fill="#FFFDFD"/>
<path d="M53.8873 34.53C53.5211 34.8249 53.5493 35.218 53.9437 35.218C54.3028 35.218 54.5211 34.6611 54.2324 34.4809C54.0563 34.3744 54.0775 34.3744 53.8873 34.53Z" fill="#FFFDFD"/>
<path d="M55.9998 34.4972C55.8731 34.6447 55.8942 34.7593 56.1125 34.9968C56.3308 35.2344 56.4717 35.2753 56.6055 35.1197C56.7393 34.9641 56.7041 34.7511 56.5069 34.571C56.2956 34.3744 56.1266 34.3498 55.9998 34.4972Z" fill="#FFFDFD"/>
<path d="M53.0496 21.2127C52.7749 21.4994 52.3453 21.6468 52.0073 21.5731C51.6904 21.5076 51.6904 21.5976 52.0144 21.7533C52.3735 21.9253 52.7608 21.8352 53.0636 21.4994C53.1975 21.3519 53.3101 21.1718 53.3101 21.098C53.3101 20.9342 53.3172 20.926 53.0496 21.2127Z" fill="#FFFDFD"/>
<path d="M61.007 22.6542C60.9366 22.8671 61.0493 26.8476 61.1338 27.2407C61.2324 27.6748 61.514 27.9942 62.4577 28.7067C63.4014 29.4193 63.7112 29.6159 63.7817 29.534C63.8662 29.4357 63.838 25.144 63.7464 24.8819C63.6338 24.5543 61.4014 22.5231 61.1549 22.5231C61.0986 22.5231 61.0352 22.5805 61.007 22.6542ZM62.0915 23.7353C62.3943 23.9974 62.6901 24.284 62.7464 24.3659C62.8732 24.5543 62.8943 24.5625 62.0633 23.9482C61.4155 23.4568 61.4084 23.4568 61.4084 24.2513C61.4084 24.5625 61.3802 24.7263 61.338 24.6935C61.2605 24.6362 61.2394 23.3995 61.3169 23.3176C61.4155 23.2029 61.5563 23.2766 62.0915 23.7353Z" fill="#FFFDFD"/>
<path d="M62.7466 35.3163C62.7466 36.3646 62.7818 37.7488 62.817 38.3958C62.8945 39.8946 62.9649 40.0748 63.5917 40.4352C64.317 40.861 64.3311 40.8447 64.3522 39.6817C64.3593 39.1411 64.3452 37.7324 64.317 36.5448L64.2607 34.3908L64.0142 34.1533C63.7114 33.8584 63.0142 33.4161 62.8593 33.4161C62.7607 33.4161 62.7466 33.6209 62.7466 35.3163ZM63.5283 34.1533L63.6973 34.3171L63.4931 34.2352C63.1339 34.0877 63.0987 34.1533 63.0987 34.9887C63.0987 35.5128 63.0776 35.7094 63.0283 35.6275C62.9508 35.4883 62.9297 34.1287 63.0071 34.0468C63.0987 33.9321 63.3663 33.9894 63.5283 34.1533Z" fill="#FFFDFD"/>
<path d="M29.2254 35.3982C27.8803 35.5292 26.4014 35.9797 25.6761 36.4793C25.3451 36.7086 24.9226 37.2082 24.7606 37.5768C24.5493 38.0518 24.4789 38.0436 28.8028 38.0682L32.7254 38.0927L32.9366 37.372C33.0564 36.9789 33.2535 36.381 33.3873 36.0616C33.5141 35.734 33.5986 35.4473 33.5775 35.4227C33.5141 35.3408 29.9437 35.3244 29.2254 35.3982ZM33.0352 35.7667C33.0916 35.8322 33.0423 36.0779 32.8451 36.7332C32.5634 37.6669 32.4648 37.7242 32.4648 36.9543C32.4648 36.725 32.4366 36.5284 32.4085 36.5284C32.3733 36.5284 31.8592 36.6595 31.2676 36.8151C30.669 36.9707 30.1761 37.0853 30.162 37.069C30.1479 37.0526 30.5916 36.8396 31.1409 36.5776C31.6972 36.3237 32.1972 36.0779 32.2535 36.0288C32.331 35.9633 31.9366 35.9551 30.8733 35.9879L29.3873 36.037L29.0071 36.4793C28.4859 37.0853 28.2747 37.1263 27.6056 36.7659C27.1268 36.512 27.0845 36.5038 26.7747 36.5939C26.5916 36.6513 26.162 36.856 25.824 37.0608C25.1338 37.4703 25.0423 37.3966 25.6409 36.9215C26.4085 36.3073 27.5845 35.9305 29.4014 35.7176C30.2958 35.6111 32.9296 35.6439 33.0352 35.7667ZM30.5986 37.5604C31.0634 37.6259 31.4578 37.6996 31.4718 37.7242C31.4859 37.7406 30.2817 37.7488 28.7958 37.7406C27.3099 37.7406 26.2042 37.716 26.338 37.6996C26.9366 37.6095 28.8099 37.4457 29.2606 37.4375C29.5352 37.4375 30.1409 37.4867 30.5986 37.5604Z" fill="#FFFDFD"/>
<path d="M33.8101 36.2909C33.4791 37.1427 33.2819 37.8061 33.3312 37.9535C33.3735 38.0846 34.3805 38.2729 35.0707 38.2729C35.8312 38.2811 36.3383 37.9945 36.8594 37.2737C37.1552 36.8642 37.2397 36.5776 37.1129 36.4056C36.965 36.2008 36.0848 35.9551 34.7538 35.7503C34.5636 35.7258 34.3312 35.6766 34.2397 35.6521C34.0988 35.6111 34.0566 35.6848 33.8101 36.2909ZM35.4932 36.3155L35.951 36.4219L35.5284 36.5202C34.9862 36.6513 34.5425 36.7987 34.1974 36.9707C34.0425 37.0444 33.9087 37.0853 33.8946 37.069C33.8594 37.028 34.0636 36.4547 34.1622 36.3073C34.2608 36.168 34.8805 36.1762 35.4932 36.3155Z" fill="#FFFDFD"/>
<path d="M42.3171 42.2943C42.1762 42.6465 42.5706 43.2362 42.8593 43.1052C43.1903 42.9578 42.8593 42.0978 42.4649 42.0978C42.4227 42.0978 42.3593 42.1879 42.3171 42.2943Z" fill="#FFFDFD"/>
<path d="M40.0139 42.7694C39.859 42.9495 39.9224 43.2198 40.1759 43.4819C40.6055 43.916 41.028 43.7768 40.9365 43.2198C40.8661 42.7857 40.2534 42.4909 40.0139 42.7694Z" fill="#FFFDFD"/>
<path d="M42.0565 43.4082C41.3311 43.5802 40.4156 44.4484 40.0494 45.3083C39.3875 46.8727 39.4368 48.7646 40.1832 50.2225C40.5142 50.8613 41.1692 51.5411 41.6551 51.754C42.2325 52.0079 43.0142 51.9916 43.5072 51.7213C43.9227 51.5001 44.6903 50.6566 44.8875 50.2225C44.979 50.0095 44.9086 50.0669 44.5283 50.5173C43.972 51.1643 43.5142 51.451 42.9508 51.5001C42.3241 51.5575 41.8804 51.3445 41.3663 50.7466C40.6832 49.944 40.3523 48.9448 40.3523 47.6671C40.3593 45.9717 41.0001 44.5466 42.0142 44.0061C42.3593 43.8259 42.479 43.8013 42.9508 43.8341C43.7325 43.8914 44.1551 44.1863 44.8523 45.1691L45.0776 45.4967L44.8875 45.0708C44.6973 44.6695 44.6973 44.6367 44.81 44.4893C44.9649 44.2927 44.9579 44.0798 44.7889 43.7522C44.5706 43.3427 44.3663 43.4328 44.3663 43.9406C44.3663 44.1289 44.3593 44.1289 43.7537 43.7686C43.0846 43.3754 42.6128 43.2772 42.0565 43.4082Z" fill="#FFFDFD"/>
<path d="M38.5776 44.9725C38.4015 45.0872 38.4156 45.4721 38.6128 45.6851C39.0353 46.1437 39.7607 45.9144 39.6128 45.3657C39.5142 44.9971 38.8804 44.7596 38.5776 44.9725Z" fill="#FFFDFD"/>
<path d="M45.6478 46.3731C45.5422 46.4959 45.5351 46.9628 45.6337 47.1839C45.7393 47.3968 45.9788 47.3805 46.0492 47.1593C46.1126 46.9546 46.0422 46.5778 45.9084 46.3894C45.8098 46.2502 45.7605 46.242 45.6478 46.3731Z" fill="#FFFDFD"/>
<path d="M38.2608 48.3633C38.0214 48.6418 38.0214 48.6418 38.1341 48.8957C38.2679 49.1987 38.6552 49.4116 38.9087 49.3379C39.1341 49.2724 39.3665 48.9366 39.3665 48.6745C39.3665 48.3715 39.0707 48.0766 38.7608 48.0766C38.5637 48.0766 38.451 48.1422 38.2608 48.3633Z" fill="#FFFDFD"/>
<path d="M45.472 49.6491C45.3101 49.944 45.2749 50.247 45.3805 50.4108C45.5777 50.7221 45.8735 50.288 45.8312 49.7638C45.803 49.4444 45.6129 49.3871 45.472 49.6491Z" fill="#FFFDFD"/>
<path d="M39.8241 50.9186C39.6128 50.976 39.2959 51.3609 39.2959 51.5493C39.3029 52.1144 39.9579 52.2455 40.317 51.7459C40.5283 51.4592 40.5353 51.3445 40.3734 51.1234C40.2325 50.935 40.0353 50.8613 39.8241 50.9186Z" fill="#FFFDFD"/>
<path d="M44.0633 51.8278C43.9436 51.9834 43.8027 52.3601 43.8027 52.5485C43.8027 52.7287 44.0703 52.9908 44.1901 52.9416C44.4436 52.827 44.5844 52.1718 44.4365 51.836C44.345 51.6394 44.2112 51.6394 44.0633 51.8278Z" fill="#FFFDFD"/>
<path d="M41.6971 52.5485C41.521 52.8106 41.507 53.0481 41.6619 53.302C41.9647 53.8098 42.5985 53.1628 42.4013 52.5485C42.2957 52.2455 41.9013 52.2455 41.6971 52.5485Z" fill="#FFFDFD"/>
<path d="M55.8242 44.4811C56.0918 45.0053 56.1411 45.0381 57.3806 45.3329C57.5073 45.3657 57.6059 45.3575 57.6059 45.3083C57.6059 45.1691 56.9862 44.563 56.782 44.5057C56.6763 44.4811 56.4087 44.4074 56.1904 44.3419C55.6693 44.1945 55.6763 44.1863 55.8242 44.4811Z" fill="#FFFDFD"/>
<path d="M58.3804 45.0954C58.3804 45.1527 58.4649 45.3165 58.5776 45.4557C58.7536 45.6851 58.8733 45.726 60.1621 46.0372C60.9297 46.2256 61.5776 46.3485 61.5987 46.3239C61.6621 46.2584 61.479 46.0372 61.2607 45.898C61.0776 45.7915 59.4226 45.251 58.6832 45.0626C58.4367 44.9971 58.3804 45.0053 58.3804 45.0954Z" fill="#FFFDFD"/>
<path d="M61.69 46.07C61.69 46.0864 61.7886 46.2666 61.9013 46.455C62.3309 47.1675 62.5773 48.4288 62.4647 49.3871C62.352 50.4436 62.0421 51.1971 61.4154 51.9588L61.021 52.4338L61.3027 52.3929C61.6759 52.3274 62.0914 51.8032 62.4506 50.9514L62.7111 50.329V48.8547C62.7111 47.4296 62.7041 47.3641 62.521 46.9136C62.3027 46.3649 62.0421 46.0291 61.8309 46.0291C61.7534 46.0291 61.69 46.0455 61.69 46.07Z" fill="#FFFDFD"/>
<path d="M62.4086 46.3321C62.4368 46.4959 62.8664 46.8153 62.9439 46.7252C63.0002 46.6597 62.5706 46.1929 62.4579 46.1929C62.4157 46.1929 62.3946 46.2584 62.4086 46.3321Z" fill="#FFFDFD"/>
<path d="M56.7607 47.9865C56.5706 48.4042 56.7889 48.5435 57.8734 48.6909C58.2748 48.74 58.303 48.6991 58.1762 48.2978C58.1199 48.1258 58.0354 48.0848 57.6269 48.0029C57.3664 47.9456 57.0776 47.8801 56.9931 47.8637C56.8875 47.8309 56.8171 47.8637 56.7607 47.9865Z" fill="#FFFDFD"/>
<path d="M58.9859 48.3961C58.9577 48.4452 58.9507 48.5599 58.9789 48.6418C59.0282 48.8383 59.3028 48.912 60.8803 49.1414C62.331 49.3543 62.338 49.3543 62.3099 49.1168C62.2817 48.8957 62.0352 48.8138 60.6338 48.5599C59.2817 48.3141 59.0423 48.2896 58.9859 48.3961Z" fill="#FFFDFD"/>
<path d="M63.0424 49.2396C63.0565 49.3953 63.1269 49.4444 63.4016 49.5017C63.7678 49.5754 63.9086 49.5099 63.8382 49.2888C63.7959 49.1577 63.5142 49.0595 63.1903 49.0595C63.0494 49.0595 63.0213 49.0922 63.0424 49.2396Z" fill="#FFFDFD"/>
<path d="M58.0915 51.5165C57.838 51.8359 57.7605 51.9752 57.8309 52.0161C57.8802 52.0489 58.5915 52.1226 59.4154 52.1799L60.9014 52.2864L61.2323 51.9752C61.4154 51.8032 61.5352 51.6312 61.5 51.5902C61.4366 51.5165 59.8521 51.2299 58.9929 51.1398L58.4436 51.0824L58.0915 51.5165Z" fill="#FFFDFD"/>
<path d="M62.2394 51.7786C62.1126 51.9097 61.9014 52.2618 61.9014 52.3601C61.9014 52.4011 62.0633 52.4175 62.2605 52.4011C62.5422 52.3683 62.6619 52.3028 62.8591 52.0817C62.9929 51.9342 63.0986 51.7786 63.0986 51.7459C63.0986 51.6394 62.3591 51.6721 62.2394 51.7786Z" fill="#FFFDFD"/>
<path d="M25.0915 44.391C24.8943 44.4647 24.8591 44.5221 24.8168 44.8497C24.7605 45.2756 24.8239 45.939 24.9365 46.07C24.9717 46.111 25.4154 46.1683 25.9084 46.1765C27.0281 46.2174 27.0422 46.2093 27.0422 45.3001C27.0422 44.3992 27.021 44.3746 26.0844 44.3419C25.6619 44.3255 25.2182 44.3501 25.0915 44.391ZM26.2041 44.9889C26.0351 45.0872 25.7605 45.3083 25.5915 45.4803L25.2816 45.7997V45.3001V44.8005H25.9013H26.514L26.2041 44.9889Z" fill="#FFFDFD"/>
<path d="M3.71127 45.3083C3.60564 45.3984 3.59155 45.5131 3.60564 45.9881L3.62677 46.5614L4.1831 46.586C4.58451 46.6024 4.76057 46.5778 4.79578 46.5041C4.88029 46.3567 4.87324 45.5295 4.79578 45.382C4.70423 45.21 3.88029 45.1609 3.71127 45.3083ZM4.69015 45.5704C4.71127 45.6359 4.71832 45.7834 4.70423 45.898L4.6831 46.1028L4.38733 45.7752L4.09155 45.4557H4.37324C4.5493 45.4557 4.66902 45.4967 4.69015 45.5704Z" fill="#FFFDFD"/>
<path d="M67.9014 49.5509C67.8381 49.7392 67.5493 50.0914 67.2324 50.3617C67.169 50.4272 66.9155 50.5583 66.669 50.6647L66.2324 50.8531H66.9719C67.8169 50.8613 67.993 50.7794 68.0634 50.3371C68.0916 50.1897 68.0775 49.903 68.0423 49.7065C67.9789 49.3625 67.9789 49.3543 67.9014 49.5509ZM67.7606 50.632C67.6761 50.7384 67.6057 50.7712 67.6057 50.7221C67.6057 50.5992 67.824 50.3453 67.8733 50.4108C67.8944 50.4354 67.8451 50.5337 67.7606 50.632Z" fill="#FFFDFD"/>
</svg>
