<svg width="50" height="43" viewBox="0 0 50 43" fill="none" xmlns="http://www.w3.org/2000/svg">
<path d="M22.9168 35.8334V39.4167H6.25016C3.9585 39.4167 2.0835 37.8042 2.0835 35.8334V7.16671C2.0835 5.19587 3.9585 3.58337 6.25016 3.58337H43.7502C46.0418 3.58337 47.9168 5.19587 47.9168 7.16671V21.6792L47.5002 21.3209C46.4585 20.425 45.2085 19.8875 43.7502 19.8875V10.75H6.25016V35.8334H22.9168ZM44.5835 23.8292L47.2918 26.1584C47.7085 26.5167 47.7085 27.2334 47.2918 27.5917L45.2085 29.3834L40.8335 25.6209L42.9168 23.8292C43.1252 23.65 43.3335 23.4709 43.7502 23.4709C44.1668 23.4709 44.3752 23.65 44.5835 23.8292ZM43.9585 30.2792L31.4585 41.2084H27.0835V37.4459L39.7918 26.5167L43.9585 30.2792Z" fill="#FFF9F9"/>
</svg>
