<svg width="19" height="23" viewBox="0 0 19 23" fill="none" xmlns="http://www.w3.org/2000/svg">
<g clip-path="url(#clip0_3_10)">
<path d="M9.48264 0C4.43046 0 0.320312 3.78134 0.320312 8.42934C0.320312 10.5645 1.78268 13.5813 4.66697 17.396C6.77516 20.1845 8.84864 22.3423 8.936 22.4328L9.48264 23L10.0295 22.4328C10.1166 22.3423 12.1901 20.1845 14.2985 17.396C17.1826 13.5813 18.6452 10.5645 18.6452 8.42934C18.6452 3.78134 14.5348 0 9.48264 0ZM13.1066 16.6172C11.6816 18.5032 10.2414 20.1264 9.48264 20.9545C8.72581 20.1287 7.29091 18.5117 5.86688 16.6281C3.1945 13.0937 1.78191 10.2586 1.78191 8.42934C1.78191 4.52289 5.2365 1.34467 9.48264 1.34467C13.729 1.34467 17.1834 4.52289 17.1834 8.42934C17.1834 10.2566 15.7737 13.0879 13.1066 16.6172Z" fill="#C8A35F"/>
<g clip-path="url(#clip1_3_10)">
<path d="M9.48259 3.38623C6.50084 3.38623 4.07507 5.812 4.07507 8.79375C4.07507 11.7755 6.50084 14.2015 9.48259 14.2015C12.4645 14.2015 14.8904 11.7755 14.8904 8.79375C14.8904 5.812 12.4645 3.38623 9.48259 3.38623ZM9.48259 12.7399C7.30688 12.7399 5.53667 10.9697 5.53667 8.79375C5.53667 6.61804 7.30688 4.84783 9.48259 4.84783C11.6585 4.84783 13.4287 6.61804 13.4287 8.79375C13.4287 10.9697 11.6585 12.7399 9.48259 12.7399Z" fill="#C8A35F"/>
</g>
</g>
<defs>
<clipPath id="clip0_3_10">
<rect width="19" height="23" fill="white"/>
</clipPath>
<clipPath id="clip1_3_10">
<rect width="11" height="12" fill="white" transform="translate(4 3)"/>
</clipPath>
</defs>
</svg>
