<svg width="54" height="52" viewBox="0 0 54 52" fill="none" xmlns="http://www.w3.org/2000/svg">
<path d="M49.4552 24.7217C48.6902 12.155 36.8327 2.47004 23.1752 4.63671C13.7702 6.13171 6.23268 13.4767 4.77018 22.5334C3.91518 27.7767 5.04018 32.7384 7.49268 36.8334L5.49018 44.005C5.04018 45.63 6.59268 47.1034 8.25768 46.6484L15.5927 44.6984C18.9227 46.5834 22.8152 47.6667 26.9777 47.6667C39.6677 47.6667 50.1977 36.8984 49.4552 24.7217ZM37.9802 34.06C37.4376 35.1319 36.5105 35.9785 35.3702 36.4434C34.6952 36.725 33.9527 36.855 33.1652 36.855C32.0177 36.855 30.7802 36.595 29.4977 36.0534C28.1308 35.4754 26.8332 34.7562 25.6277 33.9084C24.3227 32.9984 23.1077 31.98 21.9377 30.875C20.7677 29.7484 19.7327 28.5567 18.7877 27.3217C17.8652 26.0867 17.1227 24.8517 16.5827 23.6167C16.0427 22.3817 15.7727 21.19 15.7727 20.0634C15.7727 19.3267 15.9077 18.6117 16.1777 17.9617C16.4477 17.29 16.8752 16.6834 17.4827 16.1417C18.2027 15.4484 18.9902 15.1234 19.8227 15.1234C20.1377 15.1234 20.4527 15.1884 20.7452 15.3184C21.0377 15.4484 21.3077 15.6434 21.5102 15.925L24.1202 19.4784C24.3227 19.76 24.4802 19.9984 24.5702 20.2367C24.6827 20.475 24.7277 20.6917 24.7277 20.9084C24.7277 21.1684 24.6377 21.4284 24.4802 21.6884C24.3227 21.9484 24.1202 22.2084 23.8502 22.4684L22.9952 23.335C22.8602 23.465 22.8152 23.595 22.8152 23.7684C22.8152 23.855 22.8377 23.9417 22.8602 24.0284C22.9052 24.115 22.9277 24.18 22.9502 24.245C23.1527 24.6134 23.5127 25.0684 24.0077 25.6317C25.0611 26.8237 26.2123 27.9323 27.4502 28.9467C28.0352 29.4234 28.5302 29.7484 28.9127 29.9434C28.9802 29.965 29.0477 30.0084 29.1152 30.03C29.2052 30.0734 29.2952 30.0734 29.4077 30.0734C29.6102 30.0734 29.7452 30.0084 29.8802 29.8784L30.7352 29.055C31.0277 28.7734 31.2977 28.5784 31.5452 28.4484C31.8152 28.2967 32.0627 28.21 32.3552 28.21C32.5802 28.21 32.8052 28.2534 33.0527 28.3617C33.3002 28.47 33.5702 28.6 33.8402 28.795L37.5752 31.3517C37.8677 31.5467 38.0702 31.785 38.2052 32.045C38.3177 32.3267 38.3852 32.5867 38.3852 32.89C38.2502 33.2584 38.1602 33.67 37.9802 34.06V34.06Z" fill="#FFFAFA"/>
</svg>
